<svg width="642" height="495" viewBox="0 0 642 495" fill="none" xmlns="http://www.w3.org/2000/svg">
<g clip-path="url(#clip0_585_4404)">
<rect width="642" height="495" rx="12" fill="#FFF6ED"/>
<g clip-path="url(#clip1_585_4404)">
<rect x="32" y="80" width="578" height="385" rx="10" fill="white"/>
<rect x="32" y="80" width="676.632" height="385" rx="10" fill="white"/>
<g filter="url(#filter0_d_585_4404)">
<g clip-path="url(#clip2_585_4404)">
<path d="M44.3184 113.207V106.705H48.5235V107.406H45.1484V109.555H48.3114V110.256H45.1484V112.506H48.5235V113.207H44.3184ZM49.6655 113.207V109.666C49.6655 109.487 49.6594 109.306 49.6471 109.122C49.6348 108.937 49.6163 108.753 49.5917 108.568H50.4032L50.4954 109.564H50.3848C50.5077 109.22 50.7045 108.956 50.975 108.771C51.2455 108.581 51.5682 108.485 51.9432 108.485C52.3244 108.485 52.6379 108.577 52.8838 108.762C53.1297 108.94 53.2957 109.223 53.3818 109.61H53.2435C53.3603 109.266 53.5662 108.992 53.8613 108.79C54.1564 108.587 54.5007 108.485 54.8941 108.485C55.4044 108.485 55.7886 108.636 56.0468 108.937C56.305 109.232 56.4341 109.693 56.4341 110.32V113.207H55.595V110.366C55.595 109.942 55.5212 109.638 55.3737 109.453C55.2261 109.263 54.9925 109.168 54.6728 109.168C54.2978 109.168 54.0027 109.297 53.7875 109.555C53.5724 109.807 53.4648 110.151 53.4648 110.588V113.207H52.6256V110.366C52.6256 109.942 52.5519 109.638 52.4043 109.453C52.2629 109.263 52.0293 109.168 51.7035 109.168C51.3285 109.168 51.0334 109.297 50.8182 109.555C50.6092 109.807 50.5047 110.151 50.5047 110.588V113.207H49.6655ZM57.8064 115.199V109.666C57.8064 109.487 57.8003 109.306 57.788 109.122C57.7757 108.937 57.7572 108.753 57.7326 108.568H58.5441L58.6456 109.638H58.5441C58.6364 109.281 58.8331 109.002 59.1343 108.799C59.4356 108.59 59.7952 108.485 60.2132 108.485C60.6251 108.485 60.9848 108.581 61.2922 108.771C61.5995 108.962 61.8362 109.238 62.0022 109.601C62.1744 109.958 62.2604 110.385 62.2604 110.883C62.2604 111.381 62.1744 111.811 62.0022 112.174C61.8362 112.537 61.5995 112.813 61.2922 113.004C60.9848 113.194 60.6251 113.29 60.2132 113.29C59.8013 113.29 59.4448 113.188 59.1435 112.985C58.8485 112.776 58.6486 112.497 58.5441 112.146H58.6456V115.199H57.8064ZM60.0196 112.626C60.4438 112.626 60.7819 112.478 61.034 112.183C61.286 111.888 61.412 111.455 61.412 110.883C61.412 110.311 61.286 109.881 61.034 109.592C60.7819 109.303 60.4438 109.158 60.0196 109.158C59.5954 109.158 59.2573 109.303 59.0052 109.592C58.7593 109.881 58.6364 110.311 58.6364 110.883C58.6364 111.455 58.7593 111.888 59.0052 112.183C59.2573 112.478 59.5954 112.626 60.0196 112.626ZM63.3898 113.207V106.42H64.2289V113.207H63.3898ZM67.5871 113.29C67.1322 113.29 66.7387 113.194 66.4067 113.004C66.0748 112.807 65.8166 112.53 65.6321 112.174C65.4477 111.811 65.3555 111.381 65.3555 110.883C65.3555 110.391 65.4477 109.967 65.6321 109.61C65.8166 109.248 66.0748 108.971 66.4067 108.78C66.7387 108.584 67.1322 108.485 67.5871 108.485C68.042 108.485 68.4355 108.584 68.7675 108.78C69.1056 108.971 69.3638 109.248 69.5421 109.61C69.7265 109.967 69.8187 110.391 69.8187 110.883C69.8187 111.381 69.7265 111.811 69.5421 112.174C69.3638 112.53 69.1056 112.807 68.7675 113.004C68.4355 113.194 68.042 113.29 67.5871 113.29ZM67.5871 112.626C68.0051 112.626 68.3402 112.478 68.5923 112.183C68.8443 111.888 68.9703 111.455 68.9703 110.883C68.9703 110.311 68.8443 109.881 68.5923 109.592C68.3402 109.303 68.0051 109.158 67.5871 109.158C67.1629 109.158 66.8248 109.303 66.5727 109.592C66.3268 109.881 66.2039 110.311 66.2039 110.883C66.2039 111.455 66.3268 111.888 66.5727 112.183C66.8248 112.478 67.1629 112.626 67.5871 112.626ZM70.7165 115.3L70.5229 114.618C70.8118 114.55 71.0516 114.47 71.2422 114.378C71.4327 114.292 71.5926 114.178 71.7217 114.037C71.8508 113.895 71.9645 113.717 72.0629 113.502L72.2934 112.948L72.275 113.299L70.2554 108.568H71.1592L72.7729 112.543H72.5332L74.1469 108.568H75.0138L72.8836 113.566C72.7545 113.868 72.6131 114.12 72.4594 114.322C72.3119 114.525 72.1489 114.691 71.9707 114.82C71.7985 114.95 71.6079 115.051 71.3989 115.125C71.1899 115.199 70.9624 115.257 70.7165 115.3ZM77.8389 113.29C77.1012 113.29 76.5172 113.078 76.0869 112.653C75.6627 112.229 75.4506 111.645 75.4506 110.901C75.4506 110.409 75.5428 109.985 75.7272 109.629C75.9178 109.266 76.1791 108.986 76.511 108.79C76.843 108.587 77.2303 108.485 77.673 108.485C78.0972 108.485 78.4568 108.577 78.7519 108.762C79.047 108.94 79.2714 109.195 79.4251 109.527C79.5788 109.859 79.6556 110.253 79.6556 110.708V110.984H76.1053V110.486H79.0839L78.9271 110.606C78.9271 110.127 78.8195 109.755 78.6043 109.49C78.3953 109.226 78.0849 109.094 77.673 109.094C77.2242 109.094 76.8768 109.251 76.6309 109.564C76.385 109.872 76.2621 110.293 76.2621 110.828V110.91C76.2621 111.476 76.4004 111.903 76.677 112.192C76.9598 112.481 77.3502 112.626 77.8482 112.626C78.1248 112.626 78.383 112.586 78.6228 112.506C78.8625 112.426 79.0931 112.294 79.3144 112.109L79.591 112.69C79.382 112.881 79.1207 113.028 78.8072 113.133C78.4998 113.237 78.1771 113.29 77.8389 113.29ZM82.864 113.29C82.1263 113.29 81.5422 113.078 81.1119 112.653C80.6877 112.229 80.4756 111.645 80.4756 110.901C80.4756 110.409 80.5678 109.985 80.7522 109.629C80.9428 109.266 81.2041 108.986 81.5361 108.79C81.868 108.587 82.2554 108.485 82.698 108.485C83.1222 108.485 83.4818 108.577 83.7769 108.762C84.072 108.94 84.2964 109.195 84.4501 109.527C84.6038 109.859 84.6806 110.253 84.6806 110.708V110.984H81.1303V110.486H84.1089L83.9521 110.606C83.9521 110.127 83.8445 109.755 83.6294 109.49C83.4203 109.226 83.1099 109.094 82.698 109.094C82.2492 109.094 81.9019 109.251 81.656 109.564C81.41 109.872 81.2871 110.293 81.2871 110.828V110.91C81.2871 111.476 81.4254 111.903 81.7021 112.192C81.9849 112.481 82.3752 112.626 82.8732 112.626C83.1498 112.626 83.4081 112.586 83.6478 112.506C83.8876 112.426 84.1181 112.294 84.3394 112.109L84.6161 112.69C84.4071 112.881 84.1458 113.028 83.8322 113.133C83.5249 113.237 83.2021 113.29 82.864 113.29ZM88.2087 113.207V109.666C88.2087 109.487 88.2026 109.306 88.1903 109.122C88.178 108.937 88.1596 108.753 88.135 108.568H88.9465L89.0387 109.564H88.928C89.0694 109.214 89.2877 108.946 89.5827 108.762C89.8778 108.577 90.2221 108.485 90.6156 108.485C91.1627 108.485 91.5746 108.636 91.8513 108.937C92.1279 109.232 92.2662 109.693 92.2662 110.32V113.207H91.4271V110.366C91.4271 109.942 91.3441 109.638 91.1781 109.453C91.0121 109.263 90.7539 109.168 90.4035 109.168C89.9854 109.168 89.6534 109.294 89.4075 109.546C89.1678 109.798 89.0479 110.139 89.0479 110.569V113.207H88.2087ZM95.4095 113.29C95.0038 113.29 94.6472 113.194 94.3398 113.004C94.0325 112.813 93.7927 112.537 93.6206 112.174C93.4484 111.811 93.3624 111.381 93.3624 110.883C93.3624 110.385 93.4484 109.958 93.6206 109.601C93.7927 109.238 94.0325 108.962 94.3398 108.771C94.6472 108.581 95.0038 108.485 95.4095 108.485C95.8214 108.485 96.178 108.59 96.4792 108.799C96.7866 109.002 96.9895 109.281 97.0879 109.638H96.9772L97.0787 108.568H97.8901C97.8717 108.753 97.8533 108.937 97.8348 109.122C97.8225 109.306 97.8164 109.487 97.8164 109.666V113.207H96.9772V112.146H97.0787C96.9803 112.497 96.7774 112.776 96.47 112.985C96.1688 113.188 95.8153 113.29 95.4095 113.29ZM95.6032 112.626C96.0212 112.626 96.3563 112.478 96.6084 112.183C96.8604 111.888 96.9864 111.455 96.9864 110.883C96.9864 110.311 96.8604 109.881 96.6084 109.592C96.3563 109.303 96.0212 109.158 95.6032 109.158C95.1852 109.158 94.847 109.303 94.5888 109.592C94.3368 109.881 94.2107 110.311 94.2107 110.883C94.2107 111.455 94.3368 111.888 94.5888 112.183C94.8409 112.478 95.179 112.626 95.6032 112.626ZM99.2224 113.207V109.666C99.2224 109.487 99.2162 109.306 99.2039 109.122C99.1916 108.937 99.1732 108.753 99.1486 108.568H99.9601L100.052 109.564H99.9417C100.065 109.22 100.261 108.956 100.532 108.771C100.802 108.581 101.125 108.485 101.5 108.485C101.881 108.485 102.195 108.577 102.441 108.762C102.687 108.94 102.853 109.223 102.939 109.61H102.8C102.917 109.266 103.123 108.992 103.418 108.79C103.713 108.587 104.058 108.485 104.451 108.485C104.961 108.485 105.345 108.636 105.604 108.937C105.862 109.232 105.991 109.693 105.991 110.32V113.207H105.152V110.366C105.152 109.942 105.078 109.638 104.931 109.453C104.783 109.263 104.549 109.168 104.23 109.168C103.855 109.168 103.56 109.297 103.344 109.555C103.129 109.807 103.022 110.151 103.022 110.588V113.207H102.182V110.366C102.182 109.942 102.109 109.638 101.961 109.453C101.82 109.263 101.586 109.168 101.26 109.168C100.885 109.168 100.59 109.297 100.375 109.555C100.166 109.807 100.062 110.151 100.062 110.588V113.207H99.2224ZM109.475 113.29C108.737 113.29 108.153 113.078 107.723 112.653C107.299 112.229 107.087 111.645 107.087 110.901C107.087 110.409 107.179 109.985 107.363 109.629C107.554 109.266 107.815 108.986 108.147 108.79C108.479 108.587 108.866 108.485 109.309 108.485C109.733 108.485 110.093 108.577 110.388 108.762C110.683 108.94 110.907 109.195 111.061 109.527C111.215 109.859 111.292 110.253 111.292 110.708V110.984H107.741V110.486H110.72L110.563 110.606C110.563 110.127 110.456 109.755 110.24 109.49C110.031 109.226 109.721 109.094 109.309 109.094C108.86 109.094 108.513 109.251 108.267 109.564C108.021 109.872 107.898 110.293 107.898 110.828V110.91C107.898 111.476 108.036 111.903 108.313 112.192C108.596 112.481 108.986 112.626 109.484 112.626C109.761 112.626 110.019 112.586 110.259 112.506C110.499 112.426 110.729 112.294 110.95 112.109L111.227 112.69C111.018 112.881 110.757 113.028 110.443 113.133C110.136 113.237 109.813 113.29 109.475 113.29Z" fill="#242424"/>
<path d="M125.945 80.0001L125.945 465" stroke="#D5D5D5" stroke-opacity="0.835294" stroke-width="0.576347"/>
<path d="M193.955 80.0001L193.955 465" stroke="#D5D5D5" stroke-opacity="0.835294" stroke-width="0.576347"/>
<path d="M272.336 80.0001L272.336 464.424" stroke="#D5D5D5" stroke-opacity="0.835294" stroke-width="0.576347"/>
<path d="M32 126.108L680.967 126.108" stroke="#D5D5D5" stroke-opacity="0.835294" stroke-width="0.576347"/>
<path d="M31.4229 157.23L680.39 157.23" stroke="#D5D5D5" stroke-opacity="0.835294" stroke-width="0.576347"/>
<path d="M31.4229 188.353L680.39 188.353" stroke="#D5D5D5" stroke-opacity="0.835294" stroke-width="0.576347"/>
<path d="M31.4229 219.476L680.39 219.476" stroke="#D5D5D5" stroke-opacity="0.835294" stroke-width="0.576347"/>
<path d="M31.4229 250.599L680.39 250.599" stroke="#D5D5D5" stroke-opacity="0.835294" stroke-width="0.576347"/>
<path d="M31.4229 281.722L680.39 281.722" stroke="#D5D5D5" stroke-opacity="0.835294" stroke-width="0.576347"/>
<path d="M31.4229 312.844L680.39 312.844" stroke="#D5D5D5" stroke-opacity="0.835294" stroke-width="0.576347"/>
<path d="M31.4229 343.967L680.39 343.967" stroke="#D5D5D5" stroke-opacity="0.835294" stroke-width="0.576347"/>
<path d="M31.4229 375.09L680.39 375.09" stroke="#D5D5D5" stroke-opacity="0.835294" stroke-width="0.576347"/>
<path d="M31.4229 406.213L680.39 406.213" stroke="#D5D5D5" stroke-opacity="0.835294" stroke-width="0.576347"/>
<path d="M136.588 113.207L134.311 106.705H135.214L137.142 112.441H136.81L138.857 106.705H139.53L141.448 112.441H141.153L143.145 106.705H143.993L141.697 113.207H140.95L139.078 107.72H139.272L137.326 113.207H136.588ZM146.397 113.29C145.942 113.29 145.549 113.194 145.217 113.004C144.885 112.807 144.627 112.53 144.442 112.174C144.258 111.811 144.166 111.381 144.166 110.883C144.166 110.391 144.258 109.967 144.442 109.61C144.627 109.248 144.885 108.971 145.217 108.78C145.549 108.584 145.942 108.485 146.397 108.485C146.852 108.485 147.246 108.584 147.578 108.78C147.916 108.971 148.174 109.248 148.352 109.61C148.537 109.967 148.629 110.391 148.629 110.883C148.629 111.381 148.537 111.811 148.352 112.174C148.174 112.53 147.916 112.807 147.578 113.004C147.246 113.194 146.852 113.29 146.397 113.29ZM146.397 112.626C146.815 112.626 147.15 112.478 147.402 112.183C147.655 111.888 147.781 111.455 147.781 110.883C147.781 110.311 147.655 109.881 147.402 109.592C147.15 109.303 146.815 109.158 146.397 109.158C145.973 109.158 145.635 109.303 145.383 109.592C145.137 109.881 145.014 110.311 145.014 110.883C145.014 111.455 145.137 111.888 145.383 112.183C145.635 112.478 145.973 112.626 146.397 112.626ZM149.746 113.207V109.702C149.746 109.518 149.74 109.331 149.728 109.14C149.722 108.943 149.706 108.753 149.682 108.568H150.493L150.595 109.73L150.456 109.739C150.518 109.457 150.622 109.223 150.77 109.039C150.924 108.848 151.105 108.71 151.314 108.624C151.529 108.531 151.75 108.485 151.978 108.485C152.076 108.485 152.159 108.488 152.227 108.494C152.295 108.501 152.362 108.516 152.43 108.541L152.411 109.288C152.319 109.251 152.233 109.229 152.153 109.223C152.079 109.211 151.987 109.205 151.876 109.205C151.606 109.205 151.372 109.266 151.176 109.389C150.985 109.512 150.838 109.675 150.733 109.878C150.635 110.081 150.585 110.299 150.585 110.532V113.207H149.746ZM153.169 113.207V106.42H154.008V110.615H154.026L156.119 108.568H157.162L154.672 111.003L154.681 110.606L157.383 113.207H156.313L154.026 111.049H154.008V113.207H153.169ZM160.519 113.207V106.705H162.723C163.449 106.705 164.06 106.831 164.558 107.084C165.062 107.336 165.443 107.704 165.702 108.19C165.96 108.67 166.089 109.257 166.089 109.951C166.089 110.646 165.96 111.236 165.702 111.722C165.443 112.208 165.062 112.577 164.558 112.829C164.06 113.081 163.449 113.207 162.723 113.207H160.519ZM161.377 112.478H162.659C163.525 112.478 164.168 112.269 164.586 111.851C165.004 111.433 165.213 110.8 165.213 109.951C165.213 109.103 165.004 108.473 164.586 108.061C164.168 107.643 163.525 107.434 162.659 107.434H161.377V112.478ZM169.114 113.29C168.708 113.29 168.351 113.194 168.044 113.004C167.737 112.813 167.497 112.537 167.325 112.174C167.153 111.811 167.066 111.381 167.066 110.883C167.066 110.385 167.153 109.958 167.325 109.601C167.497 109.238 167.737 108.962 168.044 108.771C168.351 108.581 168.708 108.485 169.114 108.485C169.526 108.485 169.882 108.59 170.183 108.799C170.491 109.002 170.694 109.281 170.792 109.638H170.681L170.783 108.568H171.594C171.576 108.753 171.557 108.937 171.539 109.122C171.527 109.306 171.52 109.487 171.52 109.666V113.207H170.681V112.146H170.783C170.684 112.497 170.482 112.776 170.174 112.985C169.873 113.188 169.519 113.29 169.114 113.29ZM169.307 112.626C169.725 112.626 170.06 112.478 170.312 112.183C170.565 111.888 170.691 111.455 170.691 110.883C170.691 110.311 170.565 109.881 170.312 109.592C170.06 109.303 169.725 109.158 169.307 109.158C168.889 109.158 168.551 109.303 168.293 109.592C168.041 109.881 167.915 110.311 167.915 110.883C167.915 111.455 168.041 111.888 168.293 112.183C168.545 112.478 168.883 112.626 169.307 112.626ZM172.725 115.3L172.531 114.618C172.82 114.55 173.06 114.47 173.25 114.378C173.441 114.292 173.601 114.178 173.73 114.037C173.859 113.895 173.973 113.717 174.071 113.502L174.302 112.948L174.283 113.299L172.264 108.568H173.167L174.781 112.543H174.541L176.155 108.568H177.022L174.892 113.566C174.763 113.868 174.621 114.12 174.468 114.322C174.32 114.525 174.157 114.691 173.979 114.82C173.807 114.95 173.616 115.051 173.407 115.125C173.198 115.199 172.971 115.257 172.725 115.3ZM179.285 113.29C178.91 113.29 178.56 113.24 178.234 113.142C177.914 113.044 177.65 112.902 177.441 112.718L177.708 112.137C177.936 112.309 178.185 112.441 178.455 112.533C178.732 112.62 179.015 112.663 179.303 112.663C179.654 112.663 179.918 112.598 180.097 112.469C180.281 112.34 180.373 112.168 180.373 111.953C180.373 111.78 180.315 111.642 180.198 111.538C180.081 111.433 179.897 111.356 179.645 111.307L178.769 111.132C178.375 111.04 178.077 110.892 177.874 110.689C177.677 110.48 177.579 110.213 177.579 109.887C177.579 109.616 177.653 109.377 177.8 109.168C177.948 108.952 178.157 108.786 178.427 108.67C178.704 108.547 179.027 108.485 179.396 108.485C179.734 108.485 180.047 108.534 180.336 108.633C180.631 108.731 180.874 108.876 181.065 109.066L180.788 109.629C180.598 109.463 180.382 109.337 180.143 109.251C179.909 109.158 179.669 109.112 179.423 109.112C179.067 109.112 178.802 109.183 178.63 109.324C178.458 109.46 178.372 109.638 178.372 109.859C178.372 110.025 178.424 110.164 178.529 110.274C178.633 110.379 178.802 110.459 179.036 110.514L179.912 110.689C180.324 110.775 180.634 110.917 180.843 111.113C181.053 111.31 181.157 111.571 181.157 111.897C181.157 112.186 181.077 112.435 180.917 112.644C180.764 112.853 180.545 113.013 180.263 113.124C179.986 113.234 179.66 113.29 179.285 113.29Z" fill="#242424"/>
<path d="M204.872 113.207L202.022 106.705H202.954L205.434 112.497H205.121L207.611 106.705H208.505L205.637 113.207H204.872ZM210.446 113.29C210.041 113.29 209.684 113.194 209.377 113.004C209.069 112.813 208.83 112.537 208.657 112.174C208.485 111.811 208.399 111.381 208.399 110.883C208.399 110.385 208.485 109.958 208.657 109.601C208.83 109.238 209.069 108.962 209.377 108.771C209.684 108.581 210.041 108.485 210.446 108.485C210.858 108.485 211.215 108.59 211.516 108.799C211.824 109.002 212.026 109.281 212.125 109.638H212.014L212.116 108.568H212.927C212.909 108.753 212.89 108.937 212.872 109.122C212.859 109.306 212.853 109.487 212.853 109.666V113.207H212.014V112.146H212.116C212.017 112.497 211.814 112.776 211.507 112.985C211.206 113.188 210.852 113.29 210.446 113.29ZM210.64 112.626C211.058 112.626 211.393 112.478 211.645 112.183C211.897 111.888 212.023 111.455 212.023 110.883C212.023 110.311 211.897 109.881 211.645 109.592C211.393 109.303 211.058 109.158 210.64 109.158C210.222 109.158 209.884 109.303 209.626 109.592C209.374 109.881 209.248 110.311 209.248 110.883C209.248 111.455 209.374 111.888 209.626 112.183C209.878 112.478 210.216 112.626 210.64 112.626ZM216.251 113.29C215.79 113.29 215.39 113.194 215.052 113.004C214.714 112.807 214.45 112.527 214.259 112.165C214.075 111.796 213.983 111.359 213.983 110.855C213.983 110.357 214.078 109.933 214.268 109.583C214.459 109.226 214.723 108.956 215.062 108.771C215.4 108.581 215.796 108.485 216.251 108.485C216.552 108.485 216.844 108.537 217.127 108.642C217.41 108.74 217.64 108.885 217.819 109.075L217.533 109.666C217.355 109.493 217.158 109.367 216.943 109.288C216.728 109.201 216.515 109.158 216.306 109.158C215.852 109.158 215.495 109.306 215.237 109.601C214.979 109.89 214.849 110.311 214.849 110.864C214.849 111.424 214.979 111.854 215.237 112.155C215.495 112.457 215.852 112.607 216.306 112.607C216.509 112.607 216.718 112.567 216.934 112.487C217.149 112.407 217.348 112.281 217.533 112.109L217.819 112.69C217.634 112.887 217.398 113.038 217.109 113.142C216.826 113.24 216.54 113.29 216.251 113.29ZM220.578 113.29C220.172 113.29 219.815 113.194 219.508 113.004C219.2 112.813 218.961 112.537 218.789 112.174C218.616 111.811 218.53 111.381 218.53 110.883C218.53 110.385 218.616 109.958 218.789 109.601C218.961 109.238 219.2 108.962 219.508 108.771C219.815 108.581 220.172 108.485 220.578 108.485C220.989 108.485 221.346 108.59 221.647 108.799C221.955 109.002 222.157 109.281 222.256 109.638H222.145L222.247 108.568H223.058C223.04 108.753 223.021 108.937 223.003 109.122C222.991 109.306 222.984 109.487 222.984 109.666V113.207H222.145V112.146H222.247C222.148 112.497 221.945 112.776 221.638 112.985C221.337 113.188 220.983 113.29 220.578 113.29ZM220.771 112.626C221.189 112.626 221.524 112.478 221.776 112.183C222.028 111.888 222.154 111.455 222.154 110.883C222.154 110.311 222.028 109.881 221.776 109.592C221.524 109.303 221.189 109.158 220.771 109.158C220.353 109.158 220.015 109.303 219.757 109.592C219.505 109.881 219.379 110.311 219.379 110.883C219.379 111.455 219.505 111.888 219.757 112.183C220.009 112.478 220.347 112.626 220.771 112.626ZM226.124 113.29C225.638 113.29 225.269 113.157 225.017 112.893C224.772 112.623 224.649 112.217 224.649 111.676V109.214H223.745V108.568H224.649V107.323L225.488 107.093V108.568H226.797V109.214H225.488V111.602C225.488 111.959 225.549 112.214 225.672 112.368C225.801 112.515 225.986 112.589 226.225 112.589C226.348 112.589 226.453 112.58 226.539 112.561C226.631 112.537 226.714 112.509 226.788 112.478V113.17C226.696 113.207 226.588 113.234 226.465 113.253C226.348 113.277 226.235 113.29 226.124 113.29ZM227.677 113.207V108.568H228.517V113.207H227.677ZM227.604 107.554V106.65H228.599V107.554H227.604ZM231.875 113.29C231.42 113.29 231.026 113.194 230.694 113.004C230.362 112.807 230.104 112.53 229.92 112.174C229.735 111.811 229.643 111.381 229.643 110.883C229.643 110.391 229.735 109.967 229.92 109.61C230.104 109.248 230.362 108.971 230.694 108.78C231.026 108.584 231.42 108.485 231.875 108.485C232.33 108.485 232.723 108.584 233.055 108.78C233.393 108.971 233.651 109.248 233.83 109.61C234.014 109.967 234.106 110.391 234.106 110.883C234.106 111.381 234.014 111.811 233.83 112.174C233.651 112.53 233.393 112.807 233.055 113.004C232.723 113.194 232.33 113.29 231.875 113.29ZM231.875 112.626C232.293 112.626 232.628 112.478 232.88 112.183C233.132 111.888 233.258 111.455 233.258 110.883C233.258 110.311 233.132 109.881 232.88 109.592C232.628 109.303 232.293 109.158 231.875 109.158C231.45 109.158 231.112 109.303 230.86 109.592C230.614 109.881 230.491 110.311 230.491 110.883C230.491 111.455 230.614 111.888 230.86 112.183C231.112 112.478 231.45 112.626 231.875 112.626ZM235.233 113.207V109.666C235.233 109.487 235.227 109.306 235.214 109.122C235.202 108.937 235.184 108.753 235.159 108.568H235.971L236.063 109.564H235.952C236.094 109.214 236.312 108.946 236.607 108.762C236.902 108.577 237.246 108.485 237.64 108.485C238.187 108.485 238.599 108.636 238.875 108.937C239.152 109.232 239.29 109.693 239.29 110.32V113.207H238.451V110.366C238.451 109.942 238.368 109.638 238.202 109.453C238.036 109.263 237.778 109.168 237.428 109.168C237.01 109.168 236.678 109.294 236.432 109.546C236.192 109.798 236.072 110.139 236.072 110.569V113.207H235.233ZM243.187 113.207V106.705H245.391C246.116 106.705 246.728 106.831 247.226 107.084C247.73 107.336 248.111 107.704 248.369 108.19C248.628 108.67 248.757 109.257 248.757 109.951C248.757 110.646 248.628 111.236 248.369 111.722C248.111 112.208 247.73 112.577 247.226 112.829C246.728 113.081 246.116 113.207 245.391 113.207H243.187ZM244.044 112.478H245.326C246.193 112.478 246.836 112.269 247.254 111.851C247.672 111.433 247.881 110.8 247.881 109.951C247.881 109.103 247.672 108.473 247.254 108.061C246.836 107.643 246.193 107.434 245.326 107.434H244.044V112.478ZM251.781 113.29C251.376 113.29 251.019 113.194 250.712 113.004C250.404 112.813 250.164 112.537 249.992 112.174C249.82 111.811 249.734 111.381 249.734 110.883C249.734 110.385 249.82 109.958 249.992 109.601C250.164 109.238 250.404 108.962 250.712 108.771C251.019 108.581 251.376 108.485 251.781 108.485C252.193 108.485 252.55 108.59 252.851 108.799C253.158 109.002 253.361 109.281 253.46 109.638H253.349L253.45 108.568H254.262C254.243 108.753 254.225 108.937 254.207 109.122C254.194 109.306 254.188 109.487 254.188 109.666V113.207H253.349V112.146H253.45C253.352 112.497 253.149 112.776 252.842 112.985C252.541 113.188 252.187 113.29 251.781 113.29ZM251.975 112.626C252.393 112.626 252.728 112.478 252.98 112.183C253.232 111.888 253.358 111.455 253.358 110.883C253.358 110.311 253.232 109.881 252.98 109.592C252.728 109.303 252.393 109.158 251.975 109.158C251.557 109.158 251.219 109.303 250.961 109.592C250.709 109.881 250.583 110.311 250.583 110.883C250.583 111.455 250.709 111.888 250.961 112.183C251.213 112.478 251.551 112.626 251.975 112.626ZM255.392 115.3L255.199 114.618C255.488 114.55 255.727 114.47 255.918 114.378C256.109 114.292 256.268 114.178 256.398 114.037C256.527 113.895 256.64 113.717 256.739 113.502L256.969 112.948L256.951 113.299L254.931 108.568H255.835L257.449 112.543H257.209L258.823 108.568H259.69L257.559 113.566C257.43 113.868 257.289 114.12 257.135 114.322C256.988 114.525 256.825 114.691 256.647 114.82C256.474 114.95 256.284 115.051 256.075 115.125C255.866 115.199 255.638 115.257 255.392 115.3ZM261.953 113.29C261.578 113.29 261.227 113.24 260.901 113.142C260.582 113.044 260.317 112.902 260.108 112.718L260.376 112.137C260.603 112.309 260.852 112.441 261.123 112.533C261.399 112.62 261.682 112.663 261.971 112.663C262.322 112.663 262.586 112.598 262.764 112.469C262.949 112.34 263.041 112.168 263.041 111.953C263.041 111.78 262.982 111.642 262.866 111.538C262.749 111.433 262.564 111.356 262.312 111.307L261.436 111.132C261.043 111.04 260.745 110.892 260.542 110.689C260.345 110.48 260.247 110.213 260.247 109.887C260.247 109.616 260.32 109.377 260.468 109.168C260.616 108.952 260.825 108.786 261.095 108.67C261.372 108.547 261.695 108.485 262.063 108.485C262.401 108.485 262.715 108.534 263.004 108.633C263.299 108.731 263.542 108.876 263.732 109.066L263.456 109.629C263.265 109.463 263.05 109.337 262.81 109.251C262.577 109.158 262.337 109.112 262.091 109.112C261.734 109.112 261.47 109.183 261.298 109.324C261.126 109.46 261.04 109.638 261.04 109.859C261.04 110.025 261.092 110.164 261.197 110.274C261.301 110.379 261.47 110.459 261.704 110.514L262.58 110.689C262.992 110.775 263.302 110.917 263.511 111.113C263.72 111.31 263.825 111.571 263.825 111.897C263.825 112.186 263.745 112.435 263.585 112.644C263.431 112.853 263.213 113.013 262.93 113.124C262.654 113.234 262.328 113.29 261.953 113.29Z" fill="#242424"/>
<path d="M283.348 113.29C282.825 113.29 282.355 113.222 281.937 113.087C281.519 112.952 281.156 112.761 280.849 112.515L281.144 111.833C281.359 111.992 281.577 112.128 281.799 112.238C282.02 112.343 282.257 112.423 282.509 112.478C282.767 112.527 283.047 112.552 283.348 112.552C283.883 112.552 284.276 112.457 284.528 112.266C284.786 112.069 284.916 111.811 284.916 111.491C284.916 111.215 284.826 111.003 284.648 110.855C284.47 110.708 284.159 110.591 283.717 110.505L282.73 110.302C282.134 110.179 281.688 109.979 281.393 109.702C281.104 109.42 280.96 109.039 280.96 108.559C280.96 108.172 281.061 107.834 281.264 107.545C281.473 107.25 281.759 107.022 282.121 106.862C282.49 106.702 282.921 106.622 283.412 106.622C283.867 106.622 284.289 106.69 284.676 106.825C285.063 106.961 285.389 107.16 285.653 107.425L285.358 108.079C285.082 107.827 284.783 107.646 284.464 107.535C284.15 107.419 283.794 107.36 283.394 107.36C282.908 107.36 282.524 107.465 282.241 107.674C281.959 107.883 281.817 108.166 281.817 108.522C281.817 108.805 281.906 109.029 282.085 109.195C282.263 109.355 282.558 109.478 282.97 109.564L283.957 109.758C284.584 109.881 285.042 110.074 285.331 110.339C285.626 110.603 285.773 110.969 285.773 111.436C285.773 111.805 285.675 112.131 285.478 112.414C285.281 112.69 285.002 112.905 284.639 113.059C284.276 113.213 283.846 113.29 283.348 113.29ZM286.898 113.207V108.568H287.737V113.207H286.898ZM286.824 107.554V106.65H287.82V107.554H286.824ZM291.132 113.29C290.671 113.29 290.271 113.194 289.933 113.004C289.595 112.807 289.331 112.527 289.14 112.165C288.955 111.796 288.863 111.359 288.863 110.855C288.863 110.357 288.959 109.933 289.149 109.583C289.34 109.226 289.604 108.956 289.942 108.771C290.28 108.581 290.677 108.485 291.132 108.485C291.433 108.485 291.725 108.537 292.008 108.642C292.291 108.74 292.521 108.885 292.699 109.075L292.414 109.666C292.235 109.493 292.039 109.367 291.823 109.288C291.608 109.201 291.396 109.158 291.187 109.158C290.732 109.158 290.376 109.306 290.117 109.601C289.859 109.89 289.73 110.311 289.73 110.864C289.73 111.424 289.859 111.854 290.117 112.155C290.376 112.457 290.732 112.607 291.187 112.607C291.39 112.607 291.599 112.567 291.814 112.487C292.029 112.407 292.229 112.281 292.414 112.109L292.699 112.69C292.515 112.887 292.278 113.038 291.989 113.142C291.707 113.24 291.421 113.29 291.132 113.29ZM293.724 113.207V106.42H294.563V110.615H294.581L296.675 108.568H297.717L295.227 111.003L295.236 110.606L297.938 113.207H296.868L294.581 111.049H294.563V113.207H293.724ZM301.074 113.207V106.705H303.278C304.004 106.705 304.615 106.831 305.113 107.084C305.617 107.336 305.999 107.704 306.257 108.19C306.515 108.67 306.644 109.257 306.644 109.951C306.644 110.646 306.515 111.236 306.257 111.722C305.999 112.208 305.617 112.577 305.113 112.829C304.615 113.081 304.004 113.207 303.278 113.207H301.074ZM301.932 112.478H303.214C304.081 112.478 304.723 112.269 305.141 111.851C305.559 111.433 305.768 110.8 305.768 109.951C305.768 109.103 305.559 108.473 305.141 108.061C304.723 107.643 304.081 107.434 303.214 107.434H301.932V112.478ZM309.669 113.29C309.263 113.29 308.906 113.194 308.599 113.004C308.292 112.813 308.052 112.537 307.88 112.174C307.708 111.811 307.622 111.381 307.622 110.883C307.622 110.385 307.708 109.958 307.88 109.601C308.052 109.238 308.292 108.962 308.599 108.771C308.906 108.581 309.263 108.485 309.669 108.485C310.081 108.485 310.437 108.59 310.738 108.799C311.046 109.002 311.249 109.281 311.347 109.638H311.236L311.338 108.568H312.149C312.131 108.753 312.112 108.937 312.094 109.122C312.082 109.306 312.076 109.487 312.076 109.666V113.207H311.236V112.146H311.338C311.24 112.497 311.037 112.776 310.729 112.985C310.428 113.188 310.075 113.29 309.669 113.29ZM309.862 112.626C310.28 112.626 310.616 112.478 310.868 112.183C311.12 111.888 311.246 111.455 311.246 110.883C311.246 110.311 311.12 109.881 310.868 109.592C310.616 109.303 310.28 109.158 309.862 109.158C309.444 109.158 309.106 109.303 308.848 109.592C308.596 109.881 308.47 110.311 308.47 110.883C308.47 111.455 308.596 111.888 308.848 112.183C309.1 112.478 309.438 112.626 309.862 112.626ZM313.28 115.3L313.086 114.618C313.375 114.55 313.615 114.47 313.805 114.378C313.996 114.292 314.156 114.178 314.285 114.037C314.414 113.895 314.528 113.717 314.626 113.502L314.857 112.948L314.838 113.299L312.819 108.568H313.722L315.336 112.543H315.096L316.71 108.568H317.577L315.447 113.566C315.318 113.868 315.176 114.12 315.023 114.322C314.875 114.525 314.712 114.691 314.534 114.82C314.362 114.95 314.171 115.051 313.962 115.125C313.753 115.199 313.526 115.257 313.28 115.3ZM319.84 113.29C319.465 113.29 319.115 113.24 318.789 113.142C318.469 113.044 318.205 112.902 317.996 112.718L318.263 112.137C318.491 112.309 318.74 112.441 319.01 112.533C319.287 112.62 319.57 112.663 319.859 112.663C320.209 112.663 320.473 112.598 320.652 112.469C320.836 112.34 320.928 112.168 320.928 111.953C320.928 111.78 320.87 111.642 320.753 111.538C320.636 111.433 320.452 111.356 320.2 111.307L319.324 111.132C318.93 111.04 318.632 110.892 318.429 110.689C318.233 110.48 318.134 110.213 318.134 109.887C318.134 109.616 318.208 109.377 318.355 109.168C318.503 108.952 318.712 108.786 318.983 108.67C319.259 108.547 319.582 108.485 319.951 108.485C320.289 108.485 320.602 108.534 320.891 108.633C321.186 108.731 321.429 108.876 321.62 109.066L321.343 109.629C321.153 109.463 320.938 109.337 320.698 109.251C320.464 109.158 320.224 109.112 319.978 109.112C319.622 109.112 319.358 109.183 319.185 109.324C319.013 109.46 318.927 109.638 318.927 109.859C318.927 110.025 318.979 110.164 319.084 110.274C319.188 110.379 319.358 110.459 319.591 110.514L320.467 110.689C320.879 110.775 321.19 110.917 321.399 111.113C321.608 111.31 321.712 111.571 321.712 111.897C321.712 112.186 321.632 112.435 321.472 112.644C321.319 112.853 321.1 113.013 320.818 113.124C320.541 113.234 320.215 113.29 319.84 113.29Z" fill="#242424"/>
<rect x="38.79" y="136.586" width="79.2206" height="11.3172" rx="4.52689" fill="#E9E9E9"/>
<rect x="38.79" y="198.831" width="79.2206" height="11.3172" rx="4.52689" fill="#E9E9E9"/>
<rect x="38.79" y="229.387" width="79.2206" height="11.3172" rx="4.52689" fill="#E9E9E9"/>
<rect x="38.79" y="261.076" width="79.2206" height="11.3172" rx="4.52689" fill="#E9E9E9"/>
<rect x="38.79" y="291.632" width="79.2206" height="11.3172" rx="4.52689" fill="#E9E9E9"/>
<rect x="38.79" y="323.32" width="79.2206" height="11.3172" rx="4.52689" fill="#E9E9E9"/>
<rect x="38.79" y="353.877" width="79.2206" height="11.3172" rx="4.52689" fill="#E9E9E9"/>
<rect x="38.79" y="385.565" width="79.2206" height="11.3172" rx="4.52689" fill="#E9E9E9"/>
<rect x="38.79" y="168.274" width="79.2206" height="11.3172" rx="4.52689" fill="#E9E9E9"/>
</g>
<rect x="31.7118" y="79.7118" width="299.124" height="385.576" rx="6.05165" stroke="#DBDBDB" stroke-width="0.576347" shape-rendering="crispEdges"/>
</g>
<g filter="url(#filter1_d_585_4404)">
<g clip-path="url(#clip3_585_4404)">
<path d="M414.119 80L414.119 465" stroke="#D5D5D5" stroke-width="0.576347"/>
<path d="M498.264 80L498.264 465" stroke="#D5D5D5" stroke-width="0.576347"/>
<path d="M582.412 80.5764L582.412 465" stroke="#D5D5D5" stroke-width="0.576347"/>
<path d="M330.548 126.108L979.515 126.108" stroke="#D5D5D5" stroke-width="0.576347"/>
<path d="M329.973 157.23L978.94 157.23" stroke="#D5D5D5" stroke-width="0.576347"/>
<path d="M329.973 188.353L978.94 188.353" stroke="#D5D5D5" stroke-width="0.576347"/>
<path d="M329.973 219.476L978.94 219.476" stroke="#D5D5D5" stroke-width="0.576347"/>
<path d="M329.973 250.599L978.94 250.599" stroke="#D5D5D5" stroke-width="0.576347"/>
<path d="M329.973 281.721L978.94 281.721" stroke="#D5D5D5" stroke-width="0.576347"/>
<path d="M329.973 312.844L978.94 312.844" stroke="#D5D5D5" stroke-width="0.576347"/>
<path d="M329.973 343.967L978.94 343.967" stroke="#D5D5D5" stroke-width="0.576347"/>
<path d="M329.973 375.09L978.94 375.09" stroke="#D5D5D5" stroke-width="0.576347"/>
<path d="M329.973 406.213L978.94 406.213" stroke="#D5D5D5" stroke-width="0.576347"/>
<path d="M360.019 97.0691V90.5679H362.767C363.462 90.5679 364 90.7339 364.381 91.0659C364.762 91.3917 364.953 91.8497 364.953 92.4399C364.953 92.8272 364.867 93.1592 364.695 93.4358C364.522 93.7124 364.28 93.9245 363.966 94.0721C363.653 94.2135 363.284 94.2842 362.86 94.2842L363.007 94.1366H363.256C363.508 94.1366 363.733 94.2012 363.929 94.3303C364.132 94.4594 364.298 94.6653 364.427 94.9481L365.359 97.0691H364.307L363.385 94.9389C363.293 94.6869 363.148 94.5239 362.952 94.4502C362.761 94.3764 362.524 94.3395 362.242 94.3395H360.978V97.0691H360.019ZM360.978 93.611H362.611C363.072 93.611 363.419 93.5126 363.653 93.3159C363.892 93.1192 364.012 92.8364 364.012 92.4675C364.012 92.0925 363.892 91.8097 363.653 91.6192C363.419 91.4286 363.072 91.3333 362.611 91.3333H360.978V93.611ZM366.183 93.8139C366.183 93.1315 366.303 92.5413 366.542 92.0433C366.782 91.5454 367.13 91.1611 367.585 90.8906C368.046 90.6201 368.593 90.4849 369.226 90.4849C369.853 90.4849 370.394 90.6201 370.849 90.8906C371.304 91.1611 371.654 91.5454 371.9 92.0433C372.152 92.5413 372.278 93.1284 372.278 93.8047C372.278 94.4871 372.152 95.0803 371.9 95.5844C371.654 96.0824 371.301 96.4697 370.84 96.7463C370.385 97.0168 369.847 97.1521 369.226 97.1521C368.593 97.1521 368.049 97.0168 367.594 96.7463C367.139 96.4697 366.788 96.0824 366.542 95.5844C366.303 95.0803 366.183 94.4901 366.183 93.8139ZM367.188 93.8139C367.188 94.6008 367.36 95.2156 367.704 95.6582C368.049 96.1008 368.556 96.3221 369.226 96.3221C369.878 96.3221 370.382 96.1039 370.738 95.6674C371.095 95.2248 371.273 94.6069 371.273 93.8139C371.273 93.0208 371.095 92.4061 370.738 91.9696C370.388 91.5331 369.884 91.3148 369.226 91.3148C368.556 91.3148 368.049 91.5331 367.704 91.9696C367.36 92.4061 367.188 93.0208 367.188 93.8139ZM374.744 97.0691V91.3702H372.521V90.5679H377.925V91.3702H375.703V97.0691H374.744ZM381.622 97.0691V96.2668H383.135V91.3794H383.614L381.77 92.5044V91.5823L383.402 90.5679H384.094V96.2668H385.514V97.0691H381.622Z" fill="black"/>
<path d="M356.838 118.221C356.574 117.767 356.355 117.318 356.183 116.875C356.017 116.439 355.894 115.996 355.814 115.547C355.741 115.092 355.704 114.622 355.704 114.136C355.704 113.644 355.741 113.174 355.814 112.725C355.894 112.277 356.017 111.834 356.183 111.398C356.355 110.961 356.574 110.515 356.838 110.06H357.52C357.207 110.755 356.97 111.441 356.81 112.117C356.65 112.787 356.571 113.46 356.571 114.136C356.571 114.813 356.65 115.489 356.81 116.165C356.97 116.841 357.207 117.527 357.52 118.221H356.838ZM360.623 116.562L358.345 110.06H359.249L361.176 115.796H360.844L362.891 110.06H363.564L365.482 115.796H365.187L367.179 110.06H368.028L365.731 116.562H364.985L363.113 111.075H363.306L361.36 116.562H360.623ZM368.539 114.376V113.694H371.204V114.376H368.539ZM374.263 116.562L371.414 110.06H372.345L374.826 115.852H374.512L377.002 110.06H377.897L375.029 116.562H374.263ZM378.111 114.376V113.694H380.776V114.376H378.111ZM384.19 116.645C383.667 116.645 383.197 116.577 382.779 116.442C382.361 116.306 381.998 116.116 381.691 115.87L381.986 115.188C382.201 115.347 382.419 115.483 382.64 115.593C382.862 115.698 383.098 115.778 383.35 115.833C383.609 115.882 383.888 115.907 384.19 115.907C384.724 115.907 385.118 115.812 385.37 115.621C385.628 115.424 385.757 115.166 385.757 114.846C385.757 114.57 385.668 114.358 385.49 114.21C385.312 114.063 385.001 113.946 384.558 113.86L383.572 113.657C382.975 113.534 382.53 113.334 382.235 113.057C381.946 112.775 381.801 112.393 381.801 111.914C381.801 111.527 381.903 111.188 382.105 110.9C382.315 110.604 382.6 110.377 382.963 110.217C383.332 110.057 383.762 109.977 384.254 109.977C384.709 109.977 385.13 110.045 385.517 110.18C385.905 110.316 386.231 110.515 386.495 110.78L386.2 111.434C385.923 111.182 385.625 111.001 385.305 110.89C384.992 110.774 384.635 110.715 384.236 110.715C383.75 110.715 383.366 110.82 383.083 111.029C382.8 111.238 382.659 111.52 382.659 111.877C382.659 112.16 382.748 112.384 382.926 112.55C383.104 112.71 383.4 112.833 383.811 112.919L384.798 113.113C385.425 113.236 385.883 113.429 386.172 113.694C386.467 113.958 386.615 114.324 386.615 114.791C386.615 115.16 386.516 115.486 386.32 115.769C386.123 116.045 385.843 116.26 385.481 116.414C385.118 116.568 384.688 116.645 384.19 116.645ZM387.97 118.221H387.278C387.592 117.527 387.828 116.841 387.988 116.165C388.154 115.489 388.237 114.813 388.237 114.136C388.237 113.466 388.154 112.793 387.988 112.117C387.828 111.441 387.592 110.755 387.278 110.06H387.97C388.234 110.515 388.449 110.964 388.615 111.407C388.787 111.843 388.91 112.286 388.984 112.735C389.064 113.183 389.104 113.651 389.104 114.136C389.104 114.628 389.064 115.098 388.984 115.547C388.91 115.996 388.787 116.439 388.615 116.875C388.449 117.318 388.234 117.767 387.97 118.221Z" fill="#696969"/>
<path d="M443.589 97.0691V90.5679H446.337C447.031 90.5679 447.569 90.7339 447.95 91.0659C448.332 91.3917 448.522 91.8497 448.522 92.4399C448.522 92.8272 448.436 93.1592 448.264 93.4358C448.092 93.7124 447.849 93.9245 447.535 94.0721C447.222 94.2135 446.853 94.2842 446.429 94.2842L446.576 94.1366H446.825C447.077 94.1366 447.302 94.2012 447.499 94.3303C447.701 94.4594 447.867 94.6653 447.997 94.9481L448.928 97.0691H447.877L446.955 94.9389C446.862 94.6869 446.718 94.5239 446.521 94.4502C446.331 94.3764 446.094 94.3395 445.811 94.3395H444.548V97.0691H443.589ZM444.548 93.611H446.18C446.641 93.611 446.988 93.5126 447.222 93.3159C447.462 93.1192 447.582 92.8364 447.582 92.4675C447.582 92.0925 447.462 91.8097 447.222 91.6192C446.988 91.4286 446.641 91.3333 446.18 91.3333H444.548V93.611ZM449.752 93.8139C449.752 93.1315 449.872 92.5413 450.112 92.0433C450.352 91.5454 450.699 91.1611 451.154 90.8906C451.615 90.6201 452.162 90.4849 452.795 90.4849C453.422 90.4849 453.963 90.6201 454.418 90.8906C454.873 91.1611 455.224 91.5454 455.47 92.0433C455.722 92.5413 455.848 93.1284 455.848 93.8047C455.848 94.4871 455.722 95.0803 455.47 95.5844C455.224 96.0824 454.87 96.4697 454.409 96.7463C453.954 97.0168 453.416 97.1521 452.795 97.1521C452.162 97.1521 451.618 97.0168 451.163 96.7463C450.708 96.4697 450.358 96.0824 450.112 95.5844C449.872 95.0803 449.752 94.4901 449.752 93.8139ZM450.757 93.8139C450.757 94.6008 450.929 95.2156 451.274 95.6582C451.618 96.1008 452.125 96.3221 452.795 96.3221C453.447 96.3221 453.951 96.1039 454.308 95.6674C454.664 95.2248 454.842 94.6069 454.842 93.8139C454.842 93.0208 454.664 92.4061 454.308 91.9696C453.957 91.5331 453.453 91.3148 452.795 91.3148C452.125 91.3148 451.618 91.5331 451.274 91.9696C450.929 92.4061 450.757 93.0208 450.757 93.8139ZM458.313 97.0691V91.3702H456.091V90.5679H461.494V91.3702H459.272V97.0691H458.313ZM464.85 97.0691V96.359L467.082 94.026C467.371 93.7247 467.586 93.4419 467.728 93.1776C467.869 92.9132 467.94 92.6397 467.94 92.3569C467.94 92.0065 467.829 91.7421 467.608 91.5638C467.393 91.3855 467.079 91.2964 466.667 91.2964C466.341 91.2964 466.034 91.3548 465.745 91.4716C465.462 91.5884 465.189 91.7667 464.924 92.0065L464.592 91.278C464.85 91.0382 465.17 90.8476 465.551 90.7062C465.939 90.5587 466.347 90.4849 466.778 90.4849C467.454 90.4849 467.973 90.6386 468.336 90.946C468.705 91.2534 468.889 91.6929 468.889 92.2647C468.889 92.6704 468.791 93.0608 468.594 93.4358C468.398 93.8047 468.103 94.1858 467.709 94.5793L465.782 96.525V96.2668H469.157V97.0691H464.85Z" fill="black"/>
<path d="M440.407 118.221C440.143 117.767 439.925 117.318 439.753 116.875C439.587 116.439 439.464 115.996 439.384 115.547C439.31 115.092 439.273 114.622 439.273 114.136C439.273 113.644 439.31 113.174 439.384 112.725C439.464 112.277 439.587 111.834 439.753 111.398C439.925 110.961 440.143 110.515 440.407 110.06H441.09C440.776 110.755 440.539 111.441 440.38 112.117C440.22 112.787 440.14 113.46 440.14 114.136C440.14 114.813 440.22 115.489 440.38 116.165C440.539 116.841 440.776 117.527 441.09 118.221H440.407ZM444.192 116.562L441.914 110.06H442.818L444.745 115.796H444.413L446.461 110.06H447.134L449.052 115.796H448.757L450.749 110.06H451.597L449.301 116.562H448.554L446.682 111.075H446.876L444.93 116.562H444.192ZM452.108 114.376V113.694H454.773V114.376H452.108ZM457.833 116.562L454.983 110.06H455.915L458.395 115.852H458.082L460.572 110.06H461.466L458.598 116.562H457.833ZM461.681 114.376V113.694H464.346V114.376H461.681ZM467.759 116.645C467.236 116.645 466.766 116.577 466.348 116.442C465.93 116.306 465.567 116.116 465.26 115.87L465.555 115.188C465.77 115.347 465.988 115.483 466.21 115.593C466.431 115.698 466.668 115.778 466.92 115.833C467.178 115.882 467.458 115.907 467.759 115.907C468.294 115.907 468.687 115.812 468.939 115.621C469.197 115.424 469.327 115.166 469.327 114.846C469.327 114.57 469.237 114.358 469.059 114.21C468.881 114.063 468.57 113.946 468.128 113.86L467.141 113.657C466.545 113.534 466.099 113.334 465.804 113.057C465.515 112.775 465.371 112.393 465.371 111.914C465.371 111.527 465.472 111.188 465.675 110.9C465.884 110.604 466.17 110.377 466.532 110.217C466.901 110.057 467.332 109.977 467.823 109.977C468.278 109.977 468.699 110.045 469.087 110.18C469.474 110.316 469.8 110.515 470.064 110.78L469.769 111.434C469.493 111.182 469.194 111.001 468.875 110.89C468.561 110.774 468.205 110.715 467.805 110.715C467.319 110.715 466.935 110.82 466.652 111.029C466.37 111.238 466.228 111.52 466.228 111.877C466.228 112.16 466.317 112.384 466.496 112.55C466.674 112.71 466.969 112.833 467.381 112.919L468.368 113.113C468.995 113.236 469.453 113.429 469.742 113.694C470.037 113.958 470.184 114.324 470.184 114.791C470.184 115.16 470.086 115.486 469.889 115.769C469.692 116.045 469.413 116.26 469.05 116.414C468.687 116.568 468.257 116.645 467.759 116.645ZM471.539 118.221H470.847C471.161 117.527 471.398 116.841 471.558 116.165C471.724 115.489 471.807 114.813 471.807 114.136C471.807 113.466 471.724 112.793 471.558 112.117C471.398 111.441 471.161 110.755 470.847 110.06H471.539C471.803 110.515 472.019 110.964 472.185 111.407C472.357 111.843 472.48 112.286 472.553 112.735C472.633 113.183 472.673 113.651 472.673 114.136C472.673 114.628 472.633 115.098 472.553 115.547C472.48 115.996 472.357 116.439 472.185 116.875C472.019 117.318 471.803 117.767 471.539 118.221Z" fill="#696969"/>
<path d="M527.738 97.0691V90.5679H530.486C531.181 90.5679 531.719 90.7339 532.1 91.0659C532.481 91.3917 532.672 91.8497 532.672 92.4399C532.672 92.8272 532.586 93.1592 532.413 93.4358C532.241 93.7124 531.998 93.9245 531.685 94.0721C531.371 94.2135 531.002 94.2842 530.578 94.2842L530.726 94.1366H530.975C531.227 94.1366 531.451 94.2012 531.648 94.3303C531.851 94.4594 532.017 94.6653 532.146 94.9481L533.077 97.0691H532.026L531.104 94.9389C531.012 94.6869 530.867 94.5239 530.671 94.4502C530.48 94.3764 530.243 94.3395 529.96 94.3395H528.697V97.0691H527.738ZM528.697 93.611H530.329C530.79 93.611 531.138 93.5126 531.371 93.3159C531.611 93.1192 531.731 92.8364 531.731 92.4675C531.731 92.0925 531.611 91.8097 531.371 91.6192C531.138 91.4286 530.79 91.3333 530.329 91.3333H528.697V93.611ZM533.902 93.8139C533.902 93.1315 534.021 92.5413 534.261 92.0433C534.501 91.5454 534.848 91.1611 535.303 90.8906C535.764 90.6201 536.311 90.4849 536.945 90.4849C537.572 90.4849 538.113 90.6201 538.568 90.8906C539.023 91.1611 539.373 91.5454 539.619 92.0433C539.871 92.5413 539.997 93.1284 539.997 93.8047C539.997 94.4871 539.871 95.0803 539.619 95.5844C539.373 96.0824 539.02 96.4697 538.558 96.7463C538.104 97.0168 537.566 97.1521 536.945 97.1521C536.311 97.1521 535.767 97.0168 535.312 96.7463C534.858 96.4697 534.507 96.0824 534.261 95.5844C534.021 95.0803 533.902 94.4901 533.902 93.8139ZM534.907 93.8139C534.907 94.6008 535.079 95.2156 535.423 95.6582C535.767 96.1008 536.275 96.3221 536.945 96.3221C537.596 96.3221 538.1 96.1039 538.457 95.6674C538.814 95.2248 538.992 94.6069 538.992 93.8139C538.992 93.0208 538.814 92.4061 538.457 91.9696C538.107 91.5331 537.602 91.3148 536.945 91.3148C536.275 91.3148 535.767 91.5331 535.423 91.9696C535.079 92.4061 534.907 93.0208 534.907 93.8139ZM542.462 97.0691V91.3702H540.24V90.5679H545.644V91.3702H543.421V97.0691H542.462ZM550.936 97.1521C550.494 97.1521 550.07 97.0875 549.664 96.9584C549.258 96.8232 548.92 96.6326 548.649 96.3867L548.981 95.6582C549.283 95.8918 549.59 96.0639 549.904 96.1746C550.217 96.2853 550.552 96.3406 550.909 96.3406C551.364 96.3406 551.708 96.2453 551.942 96.0547C552.181 95.8641 552.301 95.5906 552.301 95.234C552.301 94.8836 552.181 94.6192 551.942 94.4409C551.708 94.2565 551.361 94.1643 550.9 94.1643H549.894V93.3897H550.826C551.219 93.3897 551.533 93.2913 551.766 93.0946C552 92.8917 552.117 92.6182 552.117 92.2739C552.117 91.9603 552.009 91.7206 551.794 91.5546C551.579 91.3825 551.271 91.2964 550.872 91.2964C550.196 91.2964 549.602 91.5331 549.092 92.0065L548.769 91.278C549.021 91.0259 549.341 90.8322 549.728 90.697C550.116 90.5556 550.521 90.4849 550.946 90.4849C551.597 90.4849 552.111 90.6355 552.486 90.9368C552.861 91.2318 553.048 91.6437 553.048 92.1724C553.048 92.572 552.934 92.9132 552.707 93.196C552.486 93.4788 552.181 93.6663 551.794 93.7586V93.6571C552.255 93.7309 552.609 93.9153 552.854 94.2104C553.107 94.4994 553.233 94.8621 553.233 95.2986C553.233 95.8764 553.027 96.3314 552.615 96.6633C552.209 96.9892 551.65 97.1521 550.936 97.1521Z" fill="black"/>
<path d="M524.557 118.221C524.292 117.767 524.074 117.318 523.902 116.875C523.736 116.439 523.613 115.996 523.533 115.547C523.459 115.092 523.422 114.622 523.422 114.136C523.422 113.644 523.459 113.174 523.533 112.725C523.613 112.277 523.736 111.834 523.902 111.398C524.074 110.961 524.292 110.515 524.557 110.06H525.239C524.926 110.755 524.689 111.441 524.529 112.117C524.369 112.787 524.289 113.46 524.289 114.136C524.289 114.813 524.369 115.489 524.529 116.165C524.689 116.841 524.926 117.527 525.239 118.221H524.557ZM528.341 116.562L526.064 110.06H526.967L528.895 115.796H528.563L530.61 110.06H531.283L533.201 115.796H532.906L534.898 110.06H535.746L533.45 116.562H532.703L530.831 111.075H531.025L529.079 116.562H528.341ZM536.257 114.376V113.694H538.922V114.376H536.257ZM541.982 116.562L539.133 110.06H540.064L542.545 115.852H542.231L544.721 110.06H545.615L542.748 116.562H541.982ZM545.83 114.376V113.694H548.495V114.376H545.83ZM551.908 116.645C551.386 116.645 550.915 116.577 550.497 116.442C550.079 116.306 549.717 116.116 549.409 115.87L549.704 115.188C549.92 115.347 550.138 115.483 550.359 115.593C550.58 115.698 550.817 115.778 551.069 115.833C551.327 115.882 551.607 115.907 551.908 115.907C552.443 115.907 552.837 115.812 553.089 115.621C553.347 115.424 553.476 115.166 553.476 114.846C553.476 114.57 553.387 114.358 553.209 114.21C553.03 114.063 552.72 113.946 552.277 113.86L551.29 113.657C550.694 113.534 550.248 113.334 549.953 113.057C549.664 112.775 549.52 112.393 549.52 111.914C549.52 111.527 549.621 111.188 549.824 110.9C550.033 110.604 550.319 110.377 550.682 110.217C551.051 110.057 551.481 109.977 551.973 109.977C552.428 109.977 552.849 110.045 553.236 110.18C553.624 110.316 553.949 110.515 554.214 110.78L553.919 111.434C553.642 111.182 553.344 111.001 553.024 110.89C552.711 110.774 552.354 110.715 551.954 110.715C551.469 110.715 551.085 110.82 550.802 111.029C550.519 111.238 550.378 111.52 550.378 111.877C550.378 112.16 550.467 112.384 550.645 112.55C550.823 112.71 551.118 112.833 551.53 112.919L552.517 113.113C553.144 113.236 553.602 113.429 553.891 113.694C554.186 113.958 554.334 114.324 554.334 114.791C554.334 115.16 554.235 115.486 554.038 115.769C553.842 116.045 553.562 116.26 553.199 116.414C552.837 116.568 552.406 116.645 551.908 116.645ZM555.688 118.221H554.997C555.31 117.527 555.547 116.841 555.707 116.165C555.873 115.489 555.956 114.813 555.956 114.136C555.956 113.466 555.873 112.793 555.707 112.117C555.547 111.441 555.31 110.755 554.997 110.06H555.688C555.953 110.515 556.168 110.964 556.334 111.407C556.506 111.843 556.629 112.286 556.703 112.735C556.783 113.183 556.823 113.651 556.823 114.136C556.823 114.628 556.783 115.098 556.703 115.547C556.629 115.996 556.506 116.439 556.334 116.875C556.168 117.318 555.953 117.767 555.688 118.221Z" fill="#696969"/>
<path d="M608.702 118.221C608.438 117.767 608.22 117.318 608.048 116.875C607.882 116.439 607.759 115.996 607.679 115.547C607.605 115.092 607.568 114.622 607.568 114.136C607.568 113.644 607.605 113.174 607.679 112.725C607.759 112.277 607.882 111.834 608.048 111.398C608.22 110.961 608.438 110.515 608.702 110.06H609.385C609.071 110.755 608.834 111.441 608.675 112.117C608.515 112.787 608.435 113.46 608.435 114.136C608.435 114.813 608.515 115.489 608.675 116.165C608.834 116.841 609.071 117.527 609.385 118.221H608.702ZM612.487 116.562L610.209 110.06H611.113L613.04 115.796H612.708L614.755 110.06H615.429L617.347 115.796H617.052L619.043 110.06H619.892L617.596 116.562H616.849L614.977 111.075H615.17L613.225 116.562H612.487ZM620.403 114.376V113.694H623.068V114.376H620.403ZM626.128 116.562L623.278 110.06H624.21L626.69 115.852H626.377L628.866 110.06H629.761L626.893 116.562H626.128ZM629.976 114.376V113.694H632.641V114.376H629.976ZM636.054 116.645C635.531 116.645 635.061 116.577 634.643 116.442C634.225 116.306 633.862 116.116 633.555 115.87L633.85 115.188C634.065 115.347 634.283 115.483 634.505 115.593C634.726 115.698 634.963 115.778 635.215 115.833C635.473 115.882 635.753 115.907 636.054 115.907C636.589 115.907 636.982 115.812 637.234 115.621C637.492 115.424 637.621 115.166 637.621 114.846C637.621 114.57 637.532 114.358 637.354 114.21C637.176 114.063 636.865 113.946 636.423 113.86L635.436 113.657C634.84 113.534 634.394 113.334 634.099 113.057C633.81 112.775 633.665 112.393 633.665 111.914C633.665 111.527 633.767 111.188 633.97 110.9C634.179 110.604 634.465 110.377 634.827 110.217C635.196 110.057 635.627 109.977 636.118 109.977C636.573 109.977 636.994 110.045 637.382 110.18C637.769 110.316 638.095 110.515 638.359 110.78L638.064 111.434C637.787 111.182 637.489 111.001 637.17 110.89C636.856 110.774 636.5 110.715 636.1 110.715C635.614 110.715 635.23 110.82 634.947 111.029C634.664 111.238 634.523 111.52 634.523 111.877C634.523 112.16 634.612 112.384 634.79 112.55C634.969 112.71 635.264 112.833 635.676 112.919L636.662 113.113C637.289 113.236 637.748 113.429 638.036 113.694C638.332 113.958 638.479 114.324 638.479 114.791C638.479 115.16 638.381 115.486 638.184 115.769C637.987 116.045 637.708 116.26 637.345 116.414C636.982 116.568 636.552 116.645 636.054 116.645ZM639.834 118.221H639.142C639.456 117.527 639.693 116.841 639.852 116.165C640.018 115.489 640.101 114.813 640.101 114.136C640.101 113.466 640.018 112.793 639.852 112.117C639.693 111.441 639.456 110.755 639.142 110.06H639.834C640.098 110.515 640.314 110.964 640.48 111.407C640.652 111.843 640.775 112.286 640.848 112.735C640.928 113.183 640.968 113.651 640.968 114.136C640.968 114.628 640.928 115.098 640.848 115.547C640.775 115.996 640.652 116.439 640.48 116.875C640.314 117.318 640.098 117.767 639.834 118.221Z" fill="#696969"/>
<rect x="332.853" y="128.413" width="78.9596" height="26.512" rx="2.88174" fill="#EBEBEB"/>
<rect x="332.853" y="159.536" width="78.9596" height="26.512" rx="2.88174" fill="#EBEBEB"/>
<rect x="332.853" y="221.782" width="78.9596" height="26.512" rx="2.88174" fill="#EBEBEB"/>
<rect x="332.853" y="190.659" width="78.9596" height="26.512" rx="2.88174" fill="#EBEBEB"/>
<rect x="585.294" y="221.782" width="78.9596" height="26.512" rx="2.88174" fill="#EBEBEB"/>
<rect x="416.424" y="159.536" width="78.9596" height="26.512" rx="2.88174" fill="#EBEBEB"/>
<g filter="url(#filter2_d_585_4404)">
<rect x="377" y="126" width="97" height="34" rx="17" fill="#0064AD" shape-rendering="crispEdges"/>
<rect x="377.5" y="126.5" width="96" height="33" rx="16.5" stroke="white" shape-rendering="crispEdges"/>
<path d="M389.982 149V139.83H387.154V138.57H394.154V139.83H391.368V149H389.982ZM394.488 149V141.454H395.762V142.84L395.622 142.644C395.8 142.215 396.07 141.897 396.434 141.692C396.798 141.477 397.242 141.37 397.764 141.37H398.226V142.602H397.568C397.036 142.602 396.607 142.77 396.28 143.106C395.954 143.433 395.79 143.899 395.79 144.506V149H394.488ZM401.595 149.168C401.1 149.168 400.662 149.079 400.279 148.902C399.906 148.715 399.612 148.463 399.397 148.146C399.182 147.819 399.075 147.446 399.075 147.026C399.075 146.625 399.159 146.265 399.327 145.948C399.504 145.621 399.775 145.346 400.139 145.122C400.512 144.898 400.979 144.739 401.539 144.646L404.339 144.184V145.276L401.833 145.696C401.348 145.78 400.993 145.934 400.769 146.158C400.554 146.382 400.447 146.657 400.447 146.984C400.447 147.292 400.568 147.549 400.811 147.754C401.063 147.959 401.376 148.062 401.749 148.062C402.225 148.062 402.636 147.964 402.981 147.768C403.336 147.563 403.611 147.287 403.807 146.942C404.012 146.597 404.115 146.214 404.115 145.794V143.876C404.115 143.465 403.961 143.134 403.653 142.882C403.354 142.621 402.958 142.49 402.463 142.49C402.034 142.49 401.651 142.602 401.315 142.826C400.988 143.041 400.746 143.33 400.587 143.694L399.453 143.106C399.593 142.761 399.817 142.453 400.125 142.182C400.433 141.902 400.792 141.683 401.203 141.524C401.614 141.365 402.043 141.286 402.491 141.286C403.07 141.286 403.578 141.398 404.017 141.622C404.456 141.837 404.796 142.14 405.039 142.532C405.291 142.915 405.417 143.363 405.417 143.876V149H404.143V147.572L404.381 147.656C404.222 147.955 404.008 148.216 403.737 148.44C403.466 148.664 403.149 148.841 402.785 148.972C402.421 149.103 402.024 149.168 401.595 149.168ZM409.399 149L406.445 141.454H407.901L410.267 147.838H409.763L412.143 141.454H413.599L410.631 149H409.399ZM418.099 149.168C417.371 149.168 416.722 148.995 416.153 148.65C415.584 148.305 415.136 147.833 414.809 147.236C414.482 146.629 414.319 145.953 414.319 145.206C414.319 144.45 414.478 143.778 414.795 143.19C415.122 142.602 415.56 142.14 416.111 141.804C416.671 141.459 417.296 141.286 417.987 141.286C418.547 141.286 419.042 141.389 419.471 141.594C419.91 141.79 420.278 142.061 420.577 142.406C420.885 142.742 421.118 143.129 421.277 143.568C421.445 143.997 421.529 144.445 421.529 144.912C421.529 145.015 421.52 145.131 421.501 145.262C421.492 145.383 421.478 145.5 421.459 145.612H415.271V144.492H420.703L420.087 144.996C420.171 144.511 420.124 144.077 419.947 143.694C419.77 143.311 419.508 143.008 419.163 142.784C418.818 142.56 418.426 142.448 417.987 142.448C417.548 142.448 417.147 142.56 416.783 142.784C416.419 143.008 416.134 143.33 415.929 143.75C415.733 144.161 415.654 144.651 415.691 145.22C415.654 145.771 415.738 146.256 415.943 146.676C416.158 147.087 416.456 147.409 416.839 147.642C417.231 147.866 417.656 147.978 418.113 147.978C418.617 147.978 419.042 147.861 419.387 147.628C419.732 147.395 420.012 147.096 420.227 146.732L421.319 147.292C421.17 147.637 420.936 147.955 420.619 148.244C420.311 148.524 419.942 148.748 419.513 148.916C419.093 149.084 418.622 149.168 418.099 149.168ZM423.227 149V138.402H424.529V149H423.227ZM428.969 149V138.402H430.271V149H428.969ZM435.763 149.168C435.035 149.168 434.387 148.995 433.817 148.65C433.248 148.305 432.8 147.833 432.473 147.236C432.147 146.629 431.983 145.953 431.983 145.206C431.983 144.45 432.142 143.778 432.459 143.19C432.786 142.602 433.225 142.14 433.775 141.804C434.335 141.459 434.961 141.286 435.651 141.286C436.211 141.286 436.706 141.389 437.135 141.594C437.574 141.79 437.943 142.061 438.241 142.406C438.549 142.742 438.783 143.129 438.941 143.568C439.109 143.997 439.193 144.445 439.193 144.912C439.193 145.015 439.184 145.131 439.165 145.262C439.156 145.383 439.142 145.5 439.123 145.612H432.935V144.492H438.367L437.751 144.996C437.835 144.511 437.789 144.077 437.611 143.694C437.434 143.311 437.173 143.008 436.827 142.784C436.482 142.56 436.09 142.448 435.651 142.448C435.213 142.448 434.811 142.56 434.447 142.784C434.083 143.008 433.799 143.33 433.593 143.75C433.397 144.161 433.318 144.651 433.355 145.22C433.318 145.771 433.402 146.256 433.607 146.676C433.822 147.087 434.121 147.409 434.503 147.642C434.895 147.866 435.32 147.978 435.777 147.978C436.281 147.978 436.706 147.861 437.051 147.628C437.397 147.395 437.677 147.096 437.891 146.732L438.983 147.292C438.834 147.637 438.601 147.955 438.283 148.244C437.975 148.524 437.607 148.748 437.177 148.916C436.757 149.084 436.286 149.168 435.763 149.168ZM443.007 149.168C442.512 149.168 442.074 149.079 441.691 148.902C441.318 148.715 441.024 148.463 440.809 148.146C440.594 147.819 440.487 147.446 440.487 147.026C440.487 146.625 440.571 146.265 440.739 145.948C440.916 145.621 441.187 145.346 441.551 145.122C441.924 144.898 442.391 144.739 442.951 144.646L445.751 144.184V145.276L443.245 145.696C442.76 145.78 442.405 145.934 442.181 146.158C441.966 146.382 441.859 146.657 441.859 146.984C441.859 147.292 441.98 147.549 442.223 147.754C442.475 147.959 442.788 148.062 443.161 148.062C443.637 148.062 444.048 147.964 444.393 147.768C444.748 147.563 445.023 147.287 445.219 146.942C445.424 146.597 445.527 146.214 445.527 145.794V143.876C445.527 143.465 445.373 143.134 445.065 142.882C444.766 142.621 444.37 142.49 443.875 142.49C443.446 142.49 443.063 142.602 442.727 142.826C442.4 143.041 442.158 143.33 441.999 143.694L440.865 143.106C441.005 142.761 441.229 142.453 441.537 142.182C441.845 141.902 442.204 141.683 442.615 141.524C443.026 141.365 443.455 141.286 443.903 141.286C444.482 141.286 444.99 141.398 445.429 141.622C445.868 141.837 446.208 142.14 446.451 142.532C446.703 142.915 446.829 143.363 446.829 143.876V149H445.555V147.572L445.793 147.656C445.634 147.955 445.42 148.216 445.149 148.44C444.878 148.664 444.561 148.841 444.197 148.972C443.833 149.103 443.436 149.168 443.007 149.168ZM450.811 149L447.857 141.454H449.313L451.679 147.838H451.175L453.555 141.454H455.011L452.043 149H450.811ZM459.511 149.168C458.783 149.168 458.135 148.995 457.565 148.65C456.996 148.305 456.548 147.833 456.221 147.236C455.895 146.629 455.731 145.953 455.731 145.206C455.731 144.45 455.89 143.778 456.207 143.19C456.534 142.602 456.973 142.14 457.523 141.804C458.083 141.459 458.709 141.286 459.399 141.286C459.959 141.286 460.454 141.389 460.883 141.594C461.322 141.79 461.691 142.061 461.989 142.406C462.297 142.742 462.531 143.129 462.689 143.568C462.857 143.997 462.941 144.445 462.941 144.912C462.941 145.015 462.932 145.131 462.913 145.262C462.904 145.383 462.89 145.5 462.871 145.612H456.683V144.492H462.115L461.499 144.996C461.583 144.511 461.537 144.077 461.359 143.694C461.182 143.311 460.921 143.008 460.575 142.784C460.23 142.56 459.838 142.448 459.399 142.448C458.961 142.448 458.559 142.56 458.195 142.784C457.831 143.008 457.547 143.33 457.341 143.75C457.145 144.161 457.066 144.651 457.103 145.22C457.066 145.771 457.15 146.256 457.355 146.676C457.57 147.087 457.869 147.409 458.251 147.642C458.643 147.866 459.068 147.978 459.525 147.978C460.029 147.978 460.454 147.861 460.799 147.628C461.145 147.395 461.425 147.096 461.639 146.732L462.731 147.292C462.582 147.637 462.349 147.955 462.031 148.244C461.723 148.524 461.355 148.748 460.925 148.916C460.505 149.084 460.034 149.168 459.511 149.168Z" fill="white"/>
</g>
</g>
<rect x="330.26" y="79.7118" width="378.66" height="385.576" rx="6.05165" stroke="#DBDBDB" stroke-width="0.576347" shape-rendering="crispEdges"/>
</g>
</g>
<rect x="32.3" y="80.3" width="577.4" height="384.4" rx="9.7" stroke="#DBDBDB" stroke-width="0.6"/>
<path d="M37.184 53L32.264 35.12H35.264L39.248 50.6H38.504L42.632 35.12H45.584L49.712 50.6H48.944L52.952 35.12H55.928L51.032 53H47.84L43.688 37.76H44.528L40.352 53H37.184ZM62.9518 53.288C61.7038 53.288 60.5598 52.992 59.5198 52.4C58.4958 51.808 57.6798 51 57.0718 49.976C56.4638 48.952 56.1598 47.792 56.1598 46.496C56.1598 45.184 56.4638 44.024 57.0718 43.016C57.6798 41.992 58.4958 41.192 59.5198 40.616C60.5438 40.024 61.6878 39.728 62.9518 39.728C64.2318 39.728 65.3758 40.024 66.3838 40.616C67.4078 41.192 68.2158 41.992 68.8078 43.016C69.4158 44.024 69.7198 45.184 69.7198 46.496C69.7198 47.808 69.4158 48.976 68.8078 50C68.1998 51.024 67.3838 51.832 66.3598 52.424C65.3358 53 64.1998 53.288 62.9518 53.288ZM62.9518 50.768C63.7198 50.768 64.3998 50.584 64.9918 50.216C65.5838 49.848 66.0478 49.344 66.3838 48.704C66.7358 48.048 66.9118 47.312 66.9118 46.496C66.9118 45.68 66.7358 44.952 66.3838 44.312C66.0478 43.672 65.5838 43.168 64.9918 42.8C64.3998 42.432 63.7198 42.248 62.9518 42.248C62.1998 42.248 61.5198 42.432 60.9118 42.8C60.3198 43.168 59.8478 43.672 59.4958 44.312C59.1598 44.952 58.9918 45.68 58.9918 46.496C58.9918 47.312 59.1598 48.048 59.4958 48.704C59.8478 49.344 60.3198 49.848 60.9118 50.216C61.5198 50.584 62.1998 50.768 62.9518 50.768ZM72.1274 53V40.016H74.7194V42.632L74.4794 42.248C74.7674 41.4 75.2314 40.792 75.8714 40.424C76.5114 40.04 77.2794 39.848 78.1754 39.848H78.9674V42.32H77.8394C76.9434 42.32 76.2154 42.6 75.6554 43.16C75.1114 43.704 74.8394 44.488 74.8394 45.512V53H72.1274ZM80.5827 53V34.832H83.2947V47L82.2387 46.736L88.7427 40.016H92.1267L87.2307 45.224L92.3428 53H89.2227L84.6627 46.112L86.2707 45.896L82.4307 49.976L83.2947 48.176V53H80.5827ZM97.9153 53V34.832H100.627V42.56L100.195 42.224C100.515 41.408 101.027 40.792 101.731 40.376C102.435 39.944 103.251 39.728 104.179 39.728C105.139 39.728 105.987 39.936 106.723 40.352C107.459 40.768 108.035 41.344 108.451 42.08C108.867 42.816 109.075 43.656 109.075 44.6V53H106.387V45.344C106.387 44.688 106.259 44.136 106.003 43.688C105.763 43.224 105.427 42.872 104.995 42.632C104.563 42.376 104.067 42.248 103.507 42.248C102.963 42.248 102.467 42.376 102.019 42.632C101.587 42.872 101.243 43.224 100.987 43.688C100.747 44.152 100.627 44.704 100.627 45.344V53H97.9153ZM118.002 53.288C116.754 53.288 115.61 52.992 114.57 52.4C113.546 51.808 112.73 51 112.122 49.976C111.514 48.952 111.21 47.792 111.21 46.496C111.21 45.184 111.514 44.024 112.122 43.016C112.73 41.992 113.546 41.192 114.57 40.616C115.594 40.024 116.738 39.728 118.002 39.728C119.282 39.728 120.426 40.024 121.434 40.616C122.458 41.192 123.266 41.992 123.858 43.016C124.466 44.024 124.77 45.184 124.77 46.496C124.77 47.808 124.466 48.976 123.858 50C123.25 51.024 122.434 51.832 121.41 52.424C120.386 53 119.25 53.288 118.002 53.288ZM118.002 50.768C118.77 50.768 119.45 50.584 120.042 50.216C120.634 49.848 121.098 49.344 121.434 48.704C121.786 48.048 121.962 47.312 121.962 46.496C121.962 45.68 121.786 44.952 121.434 44.312C121.098 43.672 120.634 43.168 120.042 42.8C119.45 42.432 118.77 42.248 118.002 42.248C117.25 42.248 116.57 42.432 115.962 42.8C115.37 43.168 114.898 43.672 114.546 44.312C114.21 44.952 114.042 45.68 114.042 46.496C114.042 47.312 114.21 48.048 114.546 48.704C114.898 49.344 115.37 49.848 115.962 50.216C116.57 50.584 117.25 50.768 118.002 50.768ZM131.809 53.288C130.833 53.288 129.977 53.072 129.241 52.64C128.505 52.192 127.929 51.576 127.513 50.792C127.113 49.992 126.913 49.072 126.913 48.032V40.016H129.625V47.792C129.625 48.384 129.745 48.904 129.985 49.352C130.225 49.8 130.561 50.152 130.993 50.408C131.425 50.648 131.921 50.768 132.481 50.768C133.057 50.768 133.561 50.64 133.993 50.384C134.425 50.128 134.761 49.768 135.001 49.304C135.257 48.84 135.385 48.296 135.385 47.672V40.016H138.073V53H135.505V50.456L135.793 50.792C135.489 51.592 134.985 52.208 134.281 52.64C133.577 53.072 132.753 53.288 131.809 53.288ZM141 53V40.016H143.592V42.632L143.352 42.248C143.64 41.4 144.104 40.792 144.744 40.424C145.384 40.04 146.152 39.848 147.048 39.848H147.84V42.32H146.712C145.816 42.32 145.088 42.6 144.528 43.16C143.984 43.704 143.712 44.488 143.712 45.512V53H141ZM154.255 53.288C152.927 53.288 151.759 52.96 150.751 52.304C149.759 51.648 149.063 50.768 148.663 49.664L150.751 48.68C151.103 49.416 151.583 50 152.191 50.432C152.815 50.864 153.503 51.08 154.255 51.08C154.895 51.08 155.415 50.936 155.815 50.648C156.215 50.36 156.415 49.968 156.415 49.472C156.415 49.152 156.327 48.896 156.151 48.704C155.975 48.496 155.751 48.328 155.479 48.2C155.223 48.072 154.959 47.976 154.687 47.912L152.647 47.336C151.527 47.016 150.687 46.536 150.127 45.896C149.583 45.24 149.311 44.48 149.311 43.616C149.311 42.832 149.511 42.152 149.911 41.576C150.311 40.984 150.863 40.528 151.567 40.208C152.271 39.888 153.063 39.728 153.943 39.728C155.127 39.728 156.183 40.024 157.111 40.616C158.039 41.192 158.695 42 159.079 43.04L156.991 44.024C156.735 43.4 156.327 42.904 155.767 42.536C155.223 42.168 154.607 41.984 153.919 41.984C153.327 41.984 152.855 42.128 152.503 42.416C152.151 42.688 151.975 43.048 151.975 43.496C151.975 43.8 152.055 44.056 152.215 44.264C152.375 44.456 152.583 44.616 152.839 44.744C153.095 44.856 153.359 44.952 153.631 45.032L155.743 45.656C156.815 45.96 157.639 46.44 158.215 47.096C158.791 47.736 159.079 48.504 159.079 49.4C159.079 50.168 158.871 50.848 158.455 51.44C158.055 52.016 157.495 52.472 156.775 52.808C156.055 53.128 155.215 53.288 154.255 53.288ZM171.716 53.288C170.468 53.288 169.324 52.992 168.284 52.4C167.26 51.808 166.444 51 165.836 49.976C165.228 48.952 164.924 47.792 164.924 46.496C164.924 45.184 165.228 44.024 165.836 43.016C166.444 41.992 167.26 41.192 168.284 40.616C169.308 40.024 170.452 39.728 171.716 39.728C172.996 39.728 174.14 40.024 175.148 40.616C176.172 41.192 176.98 41.992 177.572 43.016C178.18 44.024 178.484 45.184 178.484 46.496C178.484 47.808 178.18 48.976 177.572 50C176.964 51.024 176.148 51.832 175.124 52.424C174.1 53 172.964 53.288 171.716 53.288ZM171.716 50.768C172.484 50.768 173.164 50.584 173.756 50.216C174.348 49.848 174.812 49.344 175.148 48.704C175.5 48.048 175.676 47.312 175.676 46.496C175.676 45.68 175.5 44.952 175.148 44.312C174.812 43.672 174.348 43.168 173.756 42.8C173.164 42.432 172.484 42.248 171.716 42.248C170.964 42.248 170.284 42.432 169.676 42.8C169.084 43.168 168.612 43.672 168.26 44.312C167.924 44.952 167.756 45.68 167.756 46.496C167.756 47.312 167.924 48.048 168.26 48.704C168.612 49.344 169.084 49.848 169.676 50.216C170.284 50.584 170.964 50.768 171.716 50.768ZM182.004 53V42.464H179.604V40.016H182.004V39.344C182.004 38.368 182.204 37.552 182.604 36.896C183.004 36.224 183.556 35.712 184.26 35.36C184.98 35.008 185.804 34.832 186.732 34.832C186.908 34.832 187.108 34.848 187.332 34.88C187.556 34.896 187.74 34.92 187.884 34.952V37.304C187.756 37.272 187.612 37.256 187.452 37.256C187.292 37.24 187.164 37.232 187.068 37.232C186.348 37.232 185.772 37.4 185.34 37.736C184.908 38.056 184.692 38.592 184.692 39.344V40.016H187.668V42.464H184.692V53H182.004ZM200.007 53.288C198.711 53.288 197.559 52.992 196.551 52.4C195.559 51.792 194.783 50.976 194.223 49.952C193.663 48.912 193.383 47.752 193.383 46.472C193.383 45.16 193.663 44 194.223 42.992C194.799 41.984 195.567 41.192 196.527 40.616C197.487 40.024 198.575 39.728 199.791 39.728C200.767 39.728 201.639 39.896 202.407 40.232C203.175 40.568 203.824 41.032 204.352 41.624C204.88 42.2 205.28 42.864 205.551 43.616C205.839 44.368 205.983 45.168 205.983 46.016C205.983 46.224 205.975 46.44 205.959 46.664C205.944 46.888 205.911 47.096 205.863 47.288H195.519V45.128H204.327L203.031 46.112C203.191 45.328 203.135 44.632 202.863 44.024C202.607 43.4 202.207 42.912 201.664 42.56C201.135 42.192 200.511 42.008 199.791 42.008C199.071 42.008 198.431 42.192 197.871 42.56C197.311 42.912 196.879 43.424 196.575 44.096C196.271 44.752 196.151 45.552 196.215 46.496C196.135 47.376 196.255 48.144 196.575 48.8C196.911 49.456 197.375 49.968 197.967 50.336C198.575 50.704 199.263 50.888 200.031 50.888C200.815 50.888 201.479 50.712 202.023 50.36C202.583 50.008 203.023 49.552 203.343 48.992L205.551 50.072C205.295 50.68 204.896 51.232 204.352 51.728C203.824 52.208 203.184 52.592 202.432 52.88C201.696 53.152 200.888 53.288 200.007 53.288ZM208.39 53V40.016H210.982V42.824L210.646 42.392C210.918 41.512 211.414 40.848 212.134 40.4C212.854 39.952 213.678 39.728 214.606 39.728C215.646 39.728 216.566 40.008 217.366 40.568C218.182 41.112 218.726 41.84 218.998 42.752L218.23 42.824C218.614 41.784 219.198 41.008 219.982 40.496C220.782 39.984 221.694 39.728 222.718 39.728C223.614 39.728 224.422 39.936 225.142 40.352C225.878 40.768 226.462 41.344 226.894 42.08C227.326 42.816 227.542 43.656 227.542 44.6V53H224.83V45.344C224.83 44.688 224.71 44.136 224.47 43.688C224.246 43.224 223.926 42.872 223.51 42.632C223.11 42.376 222.638 42.248 222.094 42.248C221.55 42.248 221.07 42.376 220.654 42.632C220.238 42.872 219.91 43.224 219.67 43.688C219.43 44.152 219.31 44.704 219.31 45.344V53H216.622V45.344C216.622 44.688 216.502 44.136 216.262 43.688C216.038 43.224 215.718 42.872 215.302 42.632C214.902 42.376 214.422 42.248 213.862 42.248C213.318 42.248 212.838 42.376 212.422 42.632C212.006 42.872 211.678 43.224 211.438 43.688C211.214 44.152 211.102 44.704 211.102 45.344V53H208.39ZM230.205 57.8V40.016H232.797V42.704L232.485 42.08C232.965 41.344 233.605 40.768 234.405 40.352C235.205 39.936 236.117 39.728 237.141 39.728C238.373 39.728 239.477 40.024 240.453 40.616C241.445 41.208 242.221 42.016 242.781 43.04C243.357 44.064 243.645 45.216 243.645 46.496C243.645 47.776 243.357 48.928 242.781 49.952C242.221 50.976 241.453 51.792 240.477 52.4C239.501 52.992 238.389 53.288 237.141 53.288C236.133 53.288 235.213 53.08 234.381 52.664C233.565 52.248 232.933 51.648 232.485 50.864L232.917 50.36V57.8H230.205ZM236.877 50.768C237.645 50.768 238.325 50.584 238.917 50.216C239.509 49.848 239.973 49.344 240.309 48.704C240.661 48.048 240.837 47.312 240.837 46.496C240.837 45.68 240.661 44.952 240.309 44.312C239.973 43.672 239.509 43.168 238.917 42.8C238.325 42.432 237.645 42.248 236.877 42.248C236.125 42.248 235.445 42.432 234.837 42.8C234.245 43.168 233.773 43.672 233.421 44.312C233.085 44.952 232.917 45.68 232.917 46.496C232.917 47.312 233.085 48.048 233.421 48.704C233.773 49.344 234.245 49.848 234.837 50.216C235.445 50.584 236.125 50.768 236.877 50.768ZM246.043 53V34.832H248.755V53H246.043ZM257.95 53.288C256.702 53.288 255.558 52.992 254.518 52.4C253.494 51.808 252.678 51 252.07 49.976C251.462 48.952 251.158 47.792 251.158 46.496C251.158 45.184 251.462 44.024 252.07 43.016C252.678 41.992 253.494 41.192 254.518 40.616C255.542 40.024 256.686 39.728 257.95 39.728C259.23 39.728 260.374 40.024 261.382 40.616C262.406 41.192 263.214 41.992 263.806 43.016C264.414 44.024 264.718 45.184 264.718 46.496C264.718 47.808 264.414 48.976 263.806 50C263.198 51.024 262.382 51.832 261.358 52.424C260.334 53 259.198 53.288 257.95 53.288ZM257.95 50.768C258.718 50.768 259.398 50.584 259.99 50.216C260.582 49.848 261.046 49.344 261.382 48.704C261.734 48.048 261.91 47.312 261.91 46.496C261.91 45.68 261.734 44.952 261.382 44.312C261.046 43.672 260.582 43.168 259.99 42.8C259.398 42.432 258.718 42.248 257.95 42.248C257.198 42.248 256.518 42.432 255.91 42.8C255.318 43.168 254.846 43.672 254.494 44.312C254.158 44.952 253.99 45.68 253.99 46.496C253.99 47.312 254.158 48.048 254.494 48.704C254.846 49.344 255.318 49.848 255.91 50.216C256.518 50.584 257.198 50.768 257.95 50.768ZM268.043 58.304C267.723 58.304 267.403 58.272 267.083 58.208C266.779 58.16 266.499 58.08 266.243 57.968V55.64C266.435 55.688 266.667 55.728 266.939 55.76C267.211 55.808 267.475 55.832 267.731 55.832C268.483 55.832 269.035 55.664 269.387 55.328C269.755 55.008 270.083 54.504 270.371 53.816L271.235 51.848L271.187 54.128L265.571 40.016H268.475L272.627 50.84H271.643L275.771 40.016H278.699L272.963 54.416C272.659 55.184 272.275 55.856 271.811 56.432C271.363 57.024 270.827 57.48 270.203 57.8C269.595 58.136 268.875 58.304 268.043 58.304ZM286.177 53.288C284.881 53.288 283.729 52.992 282.721 52.4C281.729 51.792 280.953 50.976 280.393 49.952C279.833 48.912 279.553 47.752 279.553 46.472C279.553 45.16 279.833 44 280.393 42.992C280.969 41.984 281.737 41.192 282.697 40.616C283.657 40.024 284.745 39.728 285.961 39.728C286.937 39.728 287.809 39.896 288.577 40.232C289.345 40.568 289.993 41.032 290.521 41.624C291.049 42.2 291.449 42.864 291.721 43.616C292.009 44.368 292.153 45.168 292.153 46.016C292.153 46.224 292.145 46.44 292.129 46.664C292.113 46.888 292.081 47.096 292.033 47.288H281.689V45.128H290.497L289.201 46.112C289.361 45.328 289.305 44.632 289.033 44.024C288.777 43.4 288.377 42.912 287.833 42.56C287.305 42.192 286.681 42.008 285.961 42.008C285.241 42.008 284.601 42.192 284.041 42.56C283.481 42.912 283.049 43.424 282.745 44.096C282.441 44.752 282.321 45.552 282.385 46.496C282.305 47.376 282.425 48.144 282.745 48.8C283.081 49.456 283.545 49.968 284.137 50.336C284.745 50.704 285.433 50.888 286.201 50.888C286.985 50.888 287.649 50.712 288.193 50.36C288.753 50.008 289.193 49.552 289.513 48.992L291.721 50.072C291.465 50.68 291.065 51.232 290.521 51.728C289.993 52.208 289.353 52.592 288.601 52.88C287.865 53.152 287.057 53.288 286.177 53.288ZM300.656 53.288C299.36 53.288 298.208 52.992 297.2 52.4C296.208 51.792 295.432 50.976 294.872 49.952C294.312 48.912 294.032 47.752 294.032 46.472C294.032 45.16 294.312 44 294.872 42.992C295.448 41.984 296.216 41.192 297.176 40.616C298.136 40.024 299.224 39.728 300.44 39.728C301.416 39.728 302.288 39.896 303.056 40.232C303.824 40.568 304.472 41.032 305 41.624C305.528 42.2 305.928 42.864 306.2 43.616C306.488 44.368 306.632 45.168 306.632 46.016C306.632 46.224 306.624 46.44 306.608 46.664C306.592 46.888 306.56 47.096 306.512 47.288H296.168V45.128H304.976L303.68 46.112C303.84 45.328 303.784 44.632 303.512 44.024C303.256 43.4 302.856 42.912 302.312 42.56C301.784 42.192 301.16 42.008 300.44 42.008C299.72 42.008 299.08 42.192 298.52 42.56C297.96 42.912 297.528 43.424 297.224 44.096C296.92 44.752 296.8 45.552 296.864 46.496C296.784 47.376 296.904 48.144 297.224 48.8C297.56 49.456 298.024 49.968 298.616 50.336C299.224 50.704 299.912 50.888 300.68 50.888C301.464 50.888 302.128 50.712 302.672 50.36C303.232 50.008 303.672 49.552 303.992 48.992L306.2 50.072C305.944 50.68 305.544 51.232 305 51.728C304.472 52.208 303.832 52.592 303.08 52.88C302.344 53.152 301.536 53.288 300.656 53.288ZM313.838 53.288C312.51 53.288 311.342 52.96 310.334 52.304C309.342 51.648 308.646 50.768 308.246 49.664L310.334 48.68C310.686 49.416 311.166 50 311.774 50.432C312.398 50.864 313.086 51.08 313.838 51.08C314.478 51.08 314.998 50.936 315.398 50.648C315.798 50.36 315.998 49.968 315.998 49.472C315.998 49.152 315.91 48.896 315.734 48.704C315.558 48.496 315.334 48.328 315.062 48.2C314.806 48.072 314.542 47.976 314.27 47.912L312.23 47.336C311.11 47.016 310.27 46.536 309.71 45.896C309.166 45.24 308.894 44.48 308.894 43.616C308.894 42.832 309.094 42.152 309.494 41.576C309.894 40.984 310.446 40.528 311.15 40.208C311.854 39.888 312.646 39.728 313.526 39.728C314.71 39.728 315.766 40.024 316.694 40.616C317.622 41.192 318.278 42 318.662 43.04L316.574 44.024C316.318 43.4 315.91 42.904 315.35 42.536C314.806 42.168 314.19 41.984 313.502 41.984C312.91 41.984 312.438 42.128 312.086 42.416C311.734 42.688 311.558 43.048 311.558 43.496C311.558 43.8 311.638 44.056 311.798 44.264C311.958 44.456 312.166 44.616 312.422 44.744C312.678 44.856 312.942 44.952 313.214 45.032L315.326 45.656C316.398 45.96 317.222 46.44 317.798 47.096C318.374 47.736 318.662 48.504 318.662 49.4C318.662 50.168 318.454 50.848 318.038 51.44C317.638 52.016 317.078 52.472 316.358 52.808C315.638 53.128 314.798 53.288 313.838 53.288Z" fill="#414141"/>
</g>
<defs>
<filter id="filter0_d_585_4404" x="14.1334" y="62.1332" width="345.808" height="432.26" filterUnits="userSpaceOnUse" color-interpolation-filters="sRGB">
<feFlood flood-opacity="0" result="BackgroundImageFix"/>
<feColorMatrix in="SourceAlpha" type="matrix" values="0 0 0 0 0 0 0 0 0 0 0 0 0 0 0 0 0 0 127 0" result="hardAlpha"/>
<feOffset dx="5.76347" dy="5.76347"/>
<feGaussianBlur stdDeviation="11.5269"/>
<feComposite in2="hardAlpha" operator="out"/>
<feColorMatrix type="matrix" values="0 0 0 0 0.458615 0 0 0 0 0.458615 0 0 0 0 0.458615 0 0 0 0.08 0"/>
<feBlend mode="normal" in2="BackgroundImageFix" result="effect1_dropShadow_585_4404"/>
<feBlend mode="normal" in="SourceGraphic" in2="effect1_dropShadow_585_4404" result="shape"/>
</filter>
<filter id="filter1_d_585_4404" x="312.681" y="62.1332" width="425.344" height="432.26" filterUnits="userSpaceOnUse" color-interpolation-filters="sRGB">
<feFlood flood-opacity="0" result="BackgroundImageFix"/>
<feColorMatrix in="SourceAlpha" type="matrix" values="0 0 0 0 0 0 0 0 0 0 0 0 0 0 0 0 0 0 127 0" result="hardAlpha"/>
<feOffset dx="5.76347" dy="5.76347"/>
<feGaussianBlur stdDeviation="11.5269"/>
<feComposite in2="hardAlpha" operator="out"/>
<feColorMatrix type="matrix" values="0 0 0 0 0.458615 0 0 0 0 0.458615 0 0 0 0 0.458615 0 0 0 0.08 0"/>
<feBlend mode="normal" in2="BackgroundImageFix" result="effect1_dropShadow_585_4404"/>
<feBlend mode="normal" in="SourceGraphic" in2="effect1_dropShadow_585_4404" result="shape"/>
</filter>
<filter id="filter2_d_585_4404" x="367" y="118" width="117" height="54" filterUnits="userSpaceOnUse" color-interpolation-filters="sRGB">
<feFlood flood-opacity="0" result="BackgroundImageFix"/>
<feColorMatrix in="SourceAlpha" type="matrix" values="0 0 0 0 0 0 0 0 0 0 0 0 0 0 0 0 0 0 127 0" result="hardAlpha"/>
<feOffset dy="2"/>
<feGaussianBlur stdDeviation="5"/>
<feComposite in2="hardAlpha" operator="out"/>
<feColorMatrix type="matrix" values="0 0 0 0 0.0791341 0 0 0 0 0.0791341 0 0 0 0 0.0791341 0 0 0 0.15 0"/>
<feBlend mode="normal" in2="BackgroundImageFix" result="effect1_dropShadow_585_4404"/>
<feBlend mode="normal" in="SourceGraphic" in2="effect1_dropShadow_585_4404" result="shape"/>
</filter>
<clipPath id="clip0_585_4404">
<rect width="642" height="495" rx="12" fill="white"/>
</clipPath>
<clipPath id="clip1_585_4404">
<rect x="32" y="80" width="578" height="385" rx="10" fill="white"/>
</clipPath>
<clipPath id="clip2_585_4404">
<rect x="32" y="80" width="298.548" height="385" rx="5.76347" fill="white"/>
</clipPath>
<clipPath id="clip3_585_4404">
<rect x="330.548" y="80" width="378.084" height="385" rx="5.76347" fill="white"/>
</clipPath>
</defs>
</svg>
