<svg width="642" height="495" viewBox="0 0 642 495" fill="none" xmlns="http://www.w3.org/2000/svg">
<g clip-path="url(#clip0_554_2754)">
<rect width="642" height="495" rx="12" fill="#F7FBF7"/>
<mask id="path-2-inside-1_554_2754" fill="white">
<path d="M-354 -46.1863H1086V25.8137H-354V-46.1863Z"/>
</mask>
<path d="M1086 24.8137H-354V26.8137H1086V24.8137Z" fill="#EAF5EB" mask="url(#path-2-inside-1_554_2754)"/>
<mask id="path-4-inside-2_554_2754" fill="white">
<path d="M-354 25.8137H1086V97.8137H-354V25.8137Z"/>
</mask>
<path d="M1086 96.8137H-354V98.8137H1086V96.8137Z" fill="#EAF5EB" mask="url(#path-4-inside-2_554_2754)"/>
<mask id="path-6-inside-3_554_2754" fill="white">
<path d="M-354 97.8137H1086V169.814H-354V97.8137Z"/>
</mask>
<path d="M1086 168.814H-354V170.814H1086V168.814Z" fill="#EAF5EB" mask="url(#path-6-inside-3_554_2754)"/>
<mask id="path-8-inside-4_554_2754" fill="white">
<path d="M-354 169.814H1086V241.814H-354V169.814Z"/>
</mask>
<path d="M1086 240.814H-354V242.814H1086V240.814Z" fill="#EAF5EB" mask="url(#path-8-inside-4_554_2754)"/>
<mask id="path-10-inside-5_554_2754" fill="white">
<path d="M-354 241.814H1086V313.814H-354V241.814Z"/>
</mask>
<path d="M1086 312.814H-354V314.814H1086V312.814Z" fill="#EAF5EB" mask="url(#path-10-inside-5_554_2754)"/>
<mask id="path-12-inside-6_554_2754" fill="white">
<path d="M-354 313.814H1086V385.814H-354V313.814Z"/>
</mask>
<path d="M1086 384.814H-354V386.814H1086V384.814Z" fill="#EAF5EB" mask="url(#path-12-inside-6_554_2754)"/>
<mask id="path-14-inside-7_554_2754" fill="white">
<path d="M-354 385.814H1086V457.814H-354V385.814Z"/>
</mask>
<path d="M1086 456.814H-354V458.814H1086V456.814Z" fill="#EAF5EB" mask="url(#path-14-inside-7_554_2754)"/>
<mask id="path-16-inside-8_554_2754" fill="white">
<path d="M-354 457.814H1086V529.814H-354V457.814Z"/>
</mask>
<path d="M1086 528.814H-354V530.814H1086V528.814Z" fill="#EAF5EB" mask="url(#path-16-inside-8_554_2754)"/>
<mask id="path-18-inside-9_554_2754" fill="white">
<path d="M-42.4004 -46.2379H23.4663V970H-42.4004V-46.2379Z"/>
</mask>
<path d="M22.4663 -46.2379V970H24.4663V-46.2379H22.4663Z" fill="#EAF5EB" mask="url(#path-18-inside-9_554_2754)"/>
<mask id="path-20-inside-10_554_2754" fill="white">
<path d="M23.4668 -46.2379H89.3335V970H23.4668V-46.2379Z"/>
</mask>
<path d="M88.3335 -46.2379V970H90.3335V-46.2379H88.3335Z" fill="#EAF5EB" mask="url(#path-20-inside-10_554_2754)"/>
<mask id="path-22-inside-11_554_2754" fill="white">
<path d="M89.333 -46.2379H155.2V970H89.333V-46.2379Z"/>
</mask>
<path d="M154.2 -46.2379V970H156.2V-46.2379H154.2Z" fill="#EAF5EB" mask="url(#path-22-inside-11_554_2754)"/>
<g clip-path="url(#clip1_554_2754)">
<mask id="path-24-inside-12_554_2754" fill="white">
<path d="M155.2 -46.2379H221.067V970H155.2V-46.2379Z"/>
</mask>
<rect width="65" height="71" transform="translate(155.001 -46.0001)" fill="#EAF5EA"/>
</g>
<path d="M220.067 -46.2379V970H222.067V-46.2379H220.067Z" fill="#EAF5EB" mask="url(#path-24-inside-12_554_2754)"/>
<mask id="path-26-inside-13_554_2754" fill="white">
<path d="M221.066 -46.2379H286.933V970H221.066V-46.2379Z"/>
</mask>
<path d="M285.933 -46.2379V970H287.933V-46.2379H285.933Z" fill="#EAF5EB" mask="url(#path-26-inside-13_554_2754)"/>
<mask id="path-28-inside-14_554_2754" fill="white">
<path d="M286.934 -46.2379H352.8V970H286.934V-46.2379Z"/>
</mask>
<path d="M351.8 -46.2379V970H353.8V-46.2379H351.8Z" fill="#EAF5EB" mask="url(#path-28-inside-14_554_2754)"/>
<mask id="path-30-inside-15_554_2754" fill="white">
<path d="M352.8 -46.2379H418.666V970H352.8V-46.2379Z"/>
</mask>
<path d="M417.666 -46.2379V970H419.666V-46.2379H417.666Z" fill="#EAF5EB" mask="url(#path-30-inside-15_554_2754)"/>
<mask id="path-32-inside-16_554_2754" fill="white">
<path d="M418.667 -46.2379H484.534V970H418.667V-46.2379Z"/>
</mask>
<path d="M483.534 -46.2379V970H485.534V-46.2379H483.534Z" fill="#EAF5EB" mask="url(#path-32-inside-16_554_2754)"/>
<mask id="path-34-inside-17_554_2754" fill="white">
<path d="M484.533 -46.2379H550.4V970H484.533V-46.2379Z"/>
</mask>
<path d="M549.4 -46.2379V970H551.4V-46.2379H549.4Z" fill="#EAF5EB" mask="url(#path-34-inside-17_554_2754)"/>
<mask id="path-36-inside-18_554_2754" fill="white">
<path d="M550.399 -46.2379H616.266V970H550.399V-46.2379Z"/>
</mask>
<path d="M615.266 -46.2379V970H617.266V-46.2379H615.266Z" fill="#EAF5EB" mask="url(#path-36-inside-18_554_2754)"/>
<g clip-path="url(#clip2_554_2754)">
<mask id="path-38-inside-19_554_2754" fill="white">
<path d="M616.266 -46.2379H682.132V970H616.266V-46.2379Z"/>
</mask>
<rect width="65" height="71" transform="translate(601 25.9999)" fill="#EAF5EA"/>
</g>
<path d="M681.132 -46.2379V970H683.132V-46.2379H681.132Z" fill="#EAF5EB" mask="url(#path-38-inside-19_554_2754)"/>
<rect width="65" height="71" transform="translate(23 242)" fill="#EAF5EA"/>
<g filter="url(#filter0_d_554_2754)">
<rect x="34" y="31" width="574" height="433" rx="8" fill="white"/>
<circle cx="78" cy="75" r="20" stroke="#00AD57"/>
<path fill-rule="evenodd" clip-rule="evenodd" d="M76.2791 67.257C79.213 66.6154 80.6749 69.8996 82.304 70.9333L81.528 71.653L85.2488 71.74C85.2786 71.5702 85.4222 68.5507 85.3287 68.1493L84.6819 68.7396L84.6593 68.706C84.3341 68.2407 82.489 66.5487 81.9823 66.0764C80.131 64.3516 77.2269 63.2363 74.034 64.6286C69.8217 66.4653 68.9761 72.0725 71.9261 74.9437L77.3533 80.1387C78.6063 81.4081 80.4622 80.5235 80.2535 78.9707C80.1436 78.1533 78.334 76.6657 77.7955 76.1453C75.6532 74.0757 72.9902 72.2711 73.4941 69.8762C73.7936 68.4531 74.8043 67.5795 76.2791 67.257ZM75.5455 71.1009C75.7127 71.8748 80.1347 75.8185 80.772 76.4317C83.9564 79.4964 81.7151 82.2551 79.5537 82.6984C76.29 83.3677 74.6403 79.3893 73.0511 78.7838L73.8826 78.0377L70.164 77.891C70.1312 78.0603 69.9353 81.0771 70.0219 81.4798L70.8695 80.7317C70.9341 80.9189 71.0383 81.1028 71.1875 81.2747L73.8881 83.8854C80.9525 90.0841 89.4704 80.9391 83.777 74.9058L78.3727 69.6866C77.0888 68.5407 75.1946 69.4776 75.5455 71.1009Z" fill="#00AD57"/>
<path d="M116.76 83.74C115.827 83.74 114.96 83.5667 114.16 83.22C113.36 82.86 112.68 82.3733 112.12 81.76C111.56 81.1467 111.147 80.44 110.88 79.64L112.88 78.8C113.24 79.72 113.767 80.4267 114.46 80.92C115.153 81.4133 115.953 81.66 116.86 81.66C117.393 81.66 117.86 81.58 118.26 81.42C118.66 81.2467 118.967 81.0067 119.18 80.7C119.407 80.3933 119.52 80.04 119.52 79.64C119.52 79.0933 119.367 78.66 119.06 78.34C118.753 78.02 118.3 77.7667 117.7 77.58L114.9 76.7C113.78 76.3533 112.927 75.8267 112.34 75.12C111.753 74.4 111.46 73.56 111.46 72.6C111.46 71.76 111.667 71.0267 112.08 70.4C112.493 69.76 113.06 69.26 113.78 68.9C114.513 68.54 115.347 68.36 116.28 68.36C117.173 68.36 117.987 68.52 118.72 68.84C119.453 69.1467 120.08 69.5733 120.6 70.12C121.133 70.6667 121.52 71.3 121.76 72.02L119.8 72.88C119.507 72.0933 119.047 71.4867 118.42 71.06C117.807 70.6333 117.093 70.42 116.28 70.42C115.787 70.42 115.353 70.5067 114.98 70.68C114.607 70.84 114.313 71.08 114.1 71.4C113.9 71.7067 113.8 72.0667 113.8 72.48C113.8 72.96 113.953 73.3867 114.26 73.76C114.567 74.1333 115.033 74.4133 115.66 74.6L118.26 75.42C119.447 75.78 120.34 76.3 120.94 76.98C121.54 77.6467 121.84 78.48 121.84 79.48C121.84 80.3067 121.62 81.04 121.18 81.68C120.753 82.32 120.16 82.8267 119.4 83.2C118.64 83.56 117.76 83.74 116.76 83.74ZM127.929 83.74C127.116 83.74 126.403 83.56 125.789 83.2C125.176 82.8267 124.696 82.3133 124.349 81.66C124.016 80.9933 123.849 80.2267 123.849 79.36V72.68H126.109V79.16C126.109 79.6533 126.209 80.0867 126.409 80.46C126.609 80.8333 126.889 81.1267 127.249 81.34C127.609 81.54 128.023 81.64 128.489 81.64C128.969 81.64 129.389 81.5333 129.749 81.32C130.109 81.1067 130.389 80.8067 130.589 80.42C130.803 80.0333 130.909 79.58 130.909 79.06V72.68H133.149V83.5H131.009V81.38L131.249 81.66C130.996 82.3267 130.576 82.84 129.989 83.2C129.403 83.56 128.716 83.74 127.929 83.74ZM135.588 87.5V72.68H137.748V74.92L137.488 74.4C137.888 73.7867 138.421 73.3067 139.088 72.96C139.755 72.6133 140.515 72.44 141.368 72.44C142.395 72.44 143.315 72.6867 144.128 73.18C144.955 73.6733 145.601 74.3467 146.068 75.2C146.548 76.0533 146.788 77.0133 146.788 78.08C146.788 79.1467 146.548 80.1067 146.068 80.96C145.601 81.8133 144.961 82.4933 144.148 83C143.335 83.4933 142.408 83.74 141.368 83.74C140.528 83.74 139.761 83.5667 139.068 83.22C138.388 82.8733 137.861 82.3733 137.488 81.72L137.848 81.3V87.5H135.588ZM141.148 81.64C141.788 81.64 142.355 81.4867 142.848 81.18C143.341 80.8733 143.728 80.4533 144.008 79.92C144.301 79.3733 144.448 78.76 144.448 78.08C144.448 77.4 144.301 76.7933 144.008 76.26C143.728 75.7267 143.341 75.3067 142.848 75C142.355 74.6933 141.788 74.54 141.148 74.54C140.521 74.54 139.955 74.6933 139.448 75C138.955 75.3067 138.561 75.7267 138.268 76.26C137.988 76.7933 137.848 77.4 137.848 78.08C137.848 78.76 137.988 79.3733 138.268 79.92C138.561 80.4533 138.955 80.8733 139.448 81.18C139.955 81.4867 140.521 81.64 141.148 81.64ZM148.786 83.5V72.68H150.946V74.86L150.746 74.54C150.986 73.8333 151.373 73.3267 151.906 73.02C152.44 72.7 153.08 72.54 153.826 72.54H154.486V74.6H153.546C152.8 74.6 152.193 74.8333 151.726 75.3C151.273 75.7533 151.046 76.4067 151.046 77.26V83.5H148.786ZM161.273 83.74C160.339 83.74 159.473 83.5667 158.673 83.22C157.873 82.86 157.193 82.3733 156.633 81.76C156.073 81.1467 155.659 80.44 155.393 79.64L157.393 78.8C157.753 79.72 158.279 80.4267 158.973 80.92C159.666 81.4133 160.466 81.66 161.373 81.66C161.906 81.66 162.373 81.58 162.773 81.42C163.173 81.2467 163.479 81.0067 163.693 80.7C163.919 80.3933 164.033 80.04 164.033 79.64C164.033 79.0933 163.879 78.66 163.573 78.34C163.266 78.02 162.813 77.7667 162.213 77.58L159.413 76.7C158.293 76.3533 157.439 75.8267 156.853 75.12C156.266 74.4 155.973 73.56 155.973 72.6C155.973 71.76 156.179 71.0267 156.593 70.4C157.006 69.76 157.573 69.26 158.293 68.9C159.026 68.54 159.859 68.36 160.793 68.36C161.686 68.36 162.499 68.52 163.233 68.84C163.966 69.1467 164.593 69.5733 165.113 70.12C165.646 70.6667 166.033 71.3 166.273 72.02L164.313 72.88C164.019 72.0933 163.559 71.4867 162.933 71.06C162.319 70.6333 161.606 70.42 160.793 70.42C160.299 70.42 159.866 70.5067 159.493 70.68C159.119 70.84 158.826 71.08 158.613 71.4C158.413 71.7067 158.313 72.0667 158.313 72.48C158.313 72.96 158.466 73.3867 158.773 73.76C159.079 74.1333 159.546 74.4133 160.173 74.6L162.773 75.42C163.959 75.78 164.853 76.3 165.453 76.98C166.053 77.6467 166.353 78.48 166.353 79.48C166.353 80.3067 166.133 81.04 165.693 81.68C165.266 82.32 164.673 82.8267 163.913 83.2C163.153 83.56 162.273 83.74 161.273 83.74ZM169.542 87.92C169.275 87.92 169.008 87.8933 168.742 87.84C168.488 87.8 168.255 87.7333 168.042 87.64V85.7C168.202 85.74 168.395 85.7733 168.622 85.8C168.848 85.84 169.068 85.86 169.282 85.86C169.908 85.86 170.368 85.72 170.662 85.44C170.968 85.1733 171.242 84.7533 171.482 84.18L172.202 82.54L172.162 84.44L167.482 72.68H169.902L173.362 81.7H172.542L175.982 72.68H178.422L173.642 84.68C173.388 85.32 173.068 85.88 172.682 86.36C172.308 86.8533 171.862 87.2333 171.342 87.5C170.835 87.78 170.235 87.92 169.542 87.92ZM179.768 83.5V72.68H181.928V74.8L181.668 74.52C181.935 73.84 182.362 73.3267 182.948 72.98C183.535 72.62 184.215 72.44 184.988 72.44C185.788 72.44 186.495 72.6133 187.108 72.96C187.722 73.3067 188.202 73.7867 188.548 74.4C188.895 75.0133 189.068 75.72 189.068 76.52V83.5H186.828V77.12C186.828 76.5733 186.728 76.1133 186.528 75.74C186.328 75.3533 186.042 75.06 185.668 74.86C185.308 74.6467 184.895 74.54 184.428 74.54C183.962 74.54 183.542 74.6467 183.168 74.86C182.808 75.06 182.528 75.3533 182.328 75.74C182.128 76.1267 182.028 76.5867 182.028 77.12V83.5H179.768ZM196.427 83.74C195.347 83.74 194.387 83.4933 193.547 83C192.721 82.4933 192.061 81.8133 191.567 80.96C191.087 80.1067 190.847 79.14 190.847 78.06C190.847 76.9933 191.087 76.0333 191.567 75.18C192.047 74.3267 192.707 73.66 193.547 73.18C194.387 72.6867 195.347 72.44 196.427 72.44C197.161 72.44 197.847 72.5733 198.487 72.84C199.127 73.0933 199.681 73.4467 200.147 73.9C200.627 74.3533 200.981 74.88 201.207 75.48L199.227 76.4C199.001 75.84 198.634 75.3933 198.127 75.06C197.634 74.7133 197.067 74.54 196.427 74.54C195.814 74.54 195.261 74.6933 194.767 75C194.287 75.2933 193.907 75.7133 193.627 76.26C193.347 76.7933 193.207 77.4 193.207 78.08C193.207 78.76 193.347 79.3733 193.627 79.92C193.907 80.4533 194.287 80.8733 194.767 81.18C195.261 81.4867 195.814 81.64 196.427 81.64C197.081 81.64 197.647 81.4733 198.127 81.14C198.621 80.7933 198.987 80.3333 199.227 79.76L201.207 80.7C200.994 81.2733 200.647 81.7933 200.167 82.26C199.701 82.7133 199.147 83.0733 198.507 83.34C197.867 83.6067 197.174 83.74 196.427 83.74ZM205.412 83.5L210.652 68.6H213.572L218.812 83.5H216.292L215.152 80.16H209.092L207.932 83.5H205.412ZM209.772 78.06H214.432L211.792 70.26H212.452L209.772 78.06ZM220.38 83.5V68.6H222.74V83.5H220.38Z" fill="#333333"/>
<path d="M58 111H584" stroke="#CBCBCB" stroke-width="0.6"/>
<rect x="399" y="135" width="185" height="12" rx="4" fill="#F3F3F3"/>
<rect x="337" y="160" width="247" height="12" rx="4" fill="#F3F3F3"/>
<rect x="337" y="185" width="247" height="12" rx="4" fill="#F3F3F3"/>
<circle cx="69" cy="243" r="12" stroke="#00AD57" stroke-width="0.6"/>
<path fill-rule="evenodd" clip-rule="evenodd" d="M67.9657 238.354C69.7261 237.969 70.6032 239.94 71.5807 240.56L71.1151 240.992L73.3475 241.044C73.3654 240.942 73.4516 239.13 73.3955 238.889L73.0074 239.244L72.9938 239.223C72.7987 238.944 71.6917 237.929 71.3876 237.646C70.2768 236.611 68.5344 235.942 66.6187 236.777C64.0913 237.879 63.5839 241.243 65.3539 242.966L68.6102 246.083C69.362 246.845 70.4755 246.314 70.3503 245.382C70.2844 244.892 69.1986 243.999 68.8756 243.687C67.5902 242.445 65.9924 241.362 66.2947 239.926C66.4744 239.072 67.0808 238.548 67.9657 238.354ZM67.5255 240.66C67.6259 241.125 70.2791 243.491 70.6614 243.859C72.5721 245.698 71.2273 247.353 69.9305 247.619C67.9722 248.02 66.9824 245.633 66.0289 245.27L66.5278 244.822L64.2967 244.734C64.2769 244.836 64.1594 246.646 64.2114 246.888L64.7199 246.439C64.7587 246.551 64.8212 246.661 64.9107 246.765L66.5311 248.331C70.7697 252.05 75.8805 246.563 72.4644 242.943L69.2218 239.812C68.4515 239.124 67.315 239.686 67.5255 240.66Z" fill="#00AD57"/>
<path d="M57 267H148C156.837 267 164 274.163 164 283V293C164 301.837 156.837 309 148 309H73C64.1634 309 57 301.837 57 293V267Z" stroke="#CFCFCF" stroke-width="0.8"/>
<path d="M74.232 294V283.57H75.352V288.26H80.952V283.57H82.072V294H80.952V289.31H75.352V294H74.232ZM87.6626 294.168C86.9626 294.168 86.3279 294 85.7586 293.664C85.1986 293.319 84.7553 292.847 84.4286 292.25C84.1019 291.653 83.9386 290.976 83.9386 290.22C83.9386 289.464 84.0973 288.797 84.4146 288.218C84.7319 287.63 85.1613 287.168 85.7026 286.832C86.2533 286.496 86.8693 286.328 87.5506 286.328C88.0919 286.328 88.5726 286.431 88.9926 286.636C89.4219 286.832 89.7859 287.103 90.0846 287.448C90.3833 287.784 90.6119 288.167 90.7706 288.596C90.9293 289.016 91.0086 289.45 91.0086 289.898C91.0086 289.991 91.0039 290.099 90.9946 290.22C90.9853 290.332 90.9713 290.449 90.9526 290.57H84.6106V289.59H90.3506L89.8466 290.01C89.9306 289.497 89.8699 289.039 89.6646 288.638C89.4686 288.227 89.1839 287.905 88.8106 287.672C88.4373 287.429 88.0173 287.308 87.5506 287.308C87.0839 287.308 86.6499 287.429 86.2486 287.672C85.8566 287.915 85.5486 288.255 85.3246 288.694C85.1006 289.123 85.0119 289.637 85.0586 290.234C85.0119 290.831 85.1053 291.354 85.3386 291.802C85.5813 292.241 85.9079 292.581 86.3186 292.824C86.7386 293.067 87.1866 293.188 87.6626 293.188C88.2133 293.188 88.6753 293.057 89.0486 292.796C89.4219 292.535 89.7253 292.208 89.9586 291.816L90.8546 292.292C90.7053 292.628 90.4766 292.941 90.1686 293.23C89.8606 293.51 89.4919 293.739 89.0626 293.916C88.6426 294.084 88.1759 294.168 87.6626 294.168ZM92.7199 294V283.402H93.7699V294H92.7199ZM95.7791 294V283.402H96.8291V294H95.7791ZM102.352 294.168C101.643 294.168 100.999 294 100.42 293.664C99.8416 293.319 99.3796 292.852 99.0343 292.264C98.6983 291.667 98.5303 290.99 98.5303 290.234C98.5303 289.487 98.6983 288.82 99.0343 288.232C99.3703 287.644 99.823 287.182 100.392 286.846C100.971 286.501 101.624 286.328 102.352 286.328C103.08 286.328 103.729 286.496 104.298 286.832C104.877 287.168 105.33 287.63 105.656 288.218C105.992 288.806 106.16 289.478 106.16 290.234C106.16 290.999 105.988 291.681 105.642 292.278C105.297 292.866 104.835 293.328 104.256 293.664C103.687 294 103.052 294.168 102.352 294.168ZM102.352 293.118C102.856 293.118 103.309 292.992 103.71 292.74C104.121 292.488 104.443 292.143 104.676 291.704C104.919 291.265 105.04 290.775 105.04 290.234C105.04 289.693 104.919 289.207 104.676 288.778C104.443 288.349 104.121 288.008 103.71 287.756C103.309 287.504 102.856 287.378 102.352 287.378C101.848 287.378 101.391 287.504 100.98 287.756C100.579 288.008 100.257 288.349 100.014 288.778C99.7716 289.207 99.6503 289.693 99.6503 290.234C99.6503 290.775 99.7716 291.265 100.014 291.704C100.257 292.143 100.579 292.488 100.98 292.74C101.391 292.992 101.848 293.118 102.352 293.118ZM112.981 294.084C112.309 294.084 111.791 293.888 111.427 293.496C111.063 293.104 110.881 292.544 110.881 291.816V287.546H109.495V286.496H109.845C110.162 286.496 110.414 286.393 110.601 286.188C110.788 285.973 110.881 285.707 110.881 285.39V284.76H111.931V286.496H113.583V287.546H111.931V291.816C111.931 292.068 111.968 292.292 112.043 292.488C112.118 292.675 112.244 292.824 112.421 292.936C112.608 293.048 112.855 293.104 113.163 293.104C113.238 293.104 113.326 293.099 113.429 293.09C113.532 293.081 113.62 293.071 113.695 293.062V294C113.583 294.028 113.457 294.047 113.317 294.056C113.177 294.075 113.065 294.084 112.981 294.084ZM115.399 294V283.402H116.449V287.952L116.211 287.896C116.397 287.411 116.701 287.028 117.121 286.748C117.55 286.468 118.045 286.328 118.605 286.328C119.137 286.328 119.613 286.449 120.033 286.692C120.462 286.935 120.798 287.271 121.041 287.7C121.293 288.12 121.419 288.596 121.419 289.128V294H120.369V289.534C120.369 289.077 120.285 288.689 120.117 288.372C119.949 288.055 119.715 287.812 119.417 287.644C119.127 287.467 118.796 287.378 118.423 287.378C118.049 287.378 117.713 287.467 117.415 287.644C117.116 287.812 116.878 288.059 116.701 288.386C116.533 288.703 116.449 289.086 116.449 289.534V294H115.399ZM126.7 294.168C126 294.168 125.366 294 124.796 293.664C124.236 293.319 123.793 292.847 123.466 292.25C123.14 291.653 122.976 290.976 122.976 290.22C122.976 289.464 123.135 288.797 123.452 288.218C123.77 287.63 124.199 287.168 124.74 286.832C125.291 286.496 125.907 286.328 126.588 286.328C127.13 286.328 127.61 286.431 128.03 286.636C128.46 286.832 128.824 287.103 129.122 287.448C129.421 287.784 129.65 288.167 129.808 288.596C129.967 289.016 130.046 289.45 130.046 289.898C130.046 289.991 130.042 290.099 130.032 290.22C130.023 290.332 130.009 290.449 129.99 290.57H123.648V289.59H129.388L128.884 290.01C128.968 289.497 128.908 289.039 128.702 288.638C128.506 288.227 128.222 287.905 127.848 287.672C127.475 287.429 127.055 287.308 126.588 287.308C126.122 287.308 125.688 287.429 125.286 287.672C124.894 287.915 124.586 288.255 124.362 288.694C124.138 289.123 124.05 289.637 124.096 290.234C124.05 290.831 124.143 291.354 124.376 291.802C124.619 292.241 124.946 292.581 125.356 292.824C125.776 293.067 126.224 293.188 126.7 293.188C127.251 293.188 127.713 293.057 128.086 292.796C128.46 292.535 128.763 292.208 128.996 291.816L129.892 292.292C129.743 292.628 129.514 292.941 129.206 293.23C128.898 293.51 128.53 293.739 128.1 293.916C127.68 294.084 127.214 294.168 126.7 294.168ZM131.757 294V286.496H132.807V287.728L132.667 287.546C132.845 287.191 133.111 286.911 133.465 286.706C133.829 286.501 134.268 286.398 134.781 286.398H135.257V287.448H134.599C134.058 287.448 133.624 287.616 133.297 287.952C132.971 288.288 132.807 288.764 132.807 289.38V294H131.757ZM139.764 294.168C139.064 294.168 138.429 294 137.86 293.664C137.3 293.319 136.857 292.847 136.53 292.25C136.203 291.653 136.04 290.976 136.04 290.22C136.04 289.464 136.199 288.797 136.516 288.218C136.833 287.63 137.263 287.168 137.804 286.832C138.355 286.496 138.971 286.328 139.652 286.328C140.193 286.328 140.674 286.431 141.094 286.636C141.523 286.832 141.887 287.103 142.186 287.448C142.485 287.784 142.713 288.167 142.872 288.596C143.031 289.016 143.11 289.45 143.11 289.898C143.11 289.991 143.105 290.099 143.096 290.22C143.087 290.332 143.073 290.449 143.054 290.57H136.712V289.59H142.452L141.948 290.01C142.032 289.497 141.971 289.039 141.766 288.638C141.57 288.227 141.285 287.905 140.912 287.672C140.539 287.429 140.119 287.308 139.652 287.308C139.185 287.308 138.751 287.429 138.35 287.672C137.958 287.915 137.65 288.255 137.426 288.694C137.202 289.123 137.113 289.637 137.16 290.234C137.113 290.831 137.207 291.354 137.44 291.802C137.683 292.241 138.009 292.581 138.42 292.824C138.84 293.067 139.288 293.188 139.764 293.188C140.315 293.188 140.777 293.057 141.15 292.796C141.523 292.535 141.827 292.208 142.06 291.816L142.956 292.292C142.807 292.628 142.578 292.941 142.27 293.23C141.962 293.51 141.593 293.739 141.164 293.916C140.744 294.084 140.277 294.168 139.764 294.168ZM145.227 291.004L145.157 283.57H146.277L146.207 291.004H145.227ZM145.157 294V292.46H146.277V294H145.157Z" fill="#333333"/>
<path d="M57 317H209C217.837 317 225 324.163 225 333V343C225 351.837 217.837 359 209 359H73C64.1634 359 57 351.837 57 343V317Z" stroke="#CFCFCF" stroke-width="0.8"/>
<path d="M74.232 344V333.57H75.352V338.26H80.952V333.57H82.072V344H80.952V339.31H75.352V344H74.232ZM87.7606 344.168C87.0513 344.168 86.4073 344 85.8286 343.664C85.2499 343.319 84.7879 342.852 84.4426 342.264C84.1066 341.667 83.9386 340.99 83.9386 340.234C83.9386 339.487 84.1066 338.82 84.4426 338.232C84.7786 337.644 85.2313 337.182 85.8006 336.846C86.3793 336.501 87.0326 336.328 87.7606 336.328C88.4886 336.328 89.1373 336.496 89.7066 336.832C90.2853 337.168 90.7379 337.63 91.0646 338.218C91.4006 338.806 91.5686 339.478 91.5686 340.234C91.5686 340.999 91.3959 341.681 91.0506 342.278C90.7053 342.866 90.2433 343.328 89.6646 343.664C89.0953 344 88.4606 344.168 87.7606 344.168ZM87.7606 343.118C88.2646 343.118 88.7173 342.992 89.1186 342.74C89.5293 342.488 89.8513 342.143 90.0846 341.704C90.3273 341.265 90.4486 340.775 90.4486 340.234C90.4486 339.693 90.3273 339.207 90.0846 338.778C89.8513 338.349 89.5293 338.008 89.1186 337.756C88.7173 337.504 88.2646 337.378 87.7606 337.378C87.2566 337.378 86.7993 337.504 86.3886 337.756C85.9873 338.008 85.6653 338.349 85.4226 338.778C85.1799 339.207 85.0586 339.693 85.0586 340.234C85.0586 340.775 85.1799 341.265 85.4226 341.704C85.6653 342.143 85.9873 342.488 86.3886 342.74C86.7993 342.992 87.2566 343.118 87.7606 343.118ZM94.7957 344L92.2197 336.496H93.4097L95.5377 343.062H95.1177L97.1197 336.496H98.1697L100.172 343.062H99.7517L101.894 336.496H103.07L100.494 344H99.4437L97.4977 337.574H97.7917L95.8457 344H94.7957ZM109.829 344.168C109.092 344.168 108.443 343.995 107.883 343.65C107.323 343.305 106.884 342.838 106.567 342.25C106.25 341.653 106.091 340.981 106.091 340.234C106.091 339.487 106.25 338.82 106.567 338.232C106.884 337.644 107.323 337.182 107.883 336.846C108.443 336.501 109.092 336.328 109.829 336.328C110.296 336.328 110.734 336.412 111.145 336.58C111.556 336.748 111.92 336.977 112.237 337.266C112.554 337.546 112.792 337.873 112.951 338.246L111.999 338.736C111.812 338.335 111.528 338.008 111.145 337.756C110.762 337.504 110.324 337.378 109.829 337.378C109.334 337.378 108.886 337.504 108.485 337.756C108.093 337.999 107.78 338.339 107.547 338.778C107.323 339.207 107.211 339.697 107.211 340.248C107.211 340.789 107.323 341.279 107.547 341.718C107.78 342.147 108.093 342.488 108.485 342.74C108.886 342.992 109.334 343.118 109.829 343.118C110.324 343.118 110.758 342.992 111.131 342.74C111.514 342.488 111.803 342.152 111.999 341.732L112.951 342.25C112.792 342.614 112.554 342.941 112.237 343.23C111.92 343.519 111.556 343.748 111.145 343.916C110.734 344.084 110.296 344.168 109.829 344.168ZM116.687 344.168C116.211 344.168 115.786 344.079 115.413 343.902C115.039 343.715 114.745 343.463 114.531 343.146C114.316 342.829 114.209 342.465 114.209 342.054C114.209 341.662 114.293 341.307 114.461 340.99C114.629 340.663 114.89 340.388 115.245 340.164C115.599 339.94 116.052 339.781 116.603 339.688L119.543 339.198V340.15L116.855 340.598C116.313 340.691 115.921 340.864 115.679 341.116C115.445 341.368 115.329 341.667 115.329 342.012C115.329 342.348 115.459 342.633 115.721 342.866C115.991 343.099 116.337 343.216 116.757 343.216C117.27 343.216 117.718 343.109 118.101 342.894C118.483 342.67 118.782 342.371 118.997 341.998C119.211 341.625 119.319 341.209 119.319 340.752V338.848C119.319 338.4 119.155 338.036 118.829 337.756C118.502 337.476 118.077 337.336 117.555 337.336C117.097 337.336 116.696 337.453 116.351 337.686C116.005 337.91 115.749 338.204 115.581 338.568L114.629 338.05C114.769 337.733 114.988 337.443 115.287 337.182C115.595 336.921 115.945 336.715 116.337 336.566C116.729 336.407 117.135 336.328 117.555 336.328C118.105 336.328 118.591 336.435 119.011 336.65C119.44 336.865 119.771 337.163 120.005 337.546C120.247 337.919 120.369 338.353 120.369 338.848V344H119.319V342.502L119.473 342.656C119.342 342.936 119.137 343.193 118.857 343.426C118.586 343.65 118.264 343.832 117.891 343.972C117.527 344.103 117.125 344.168 116.687 344.168ZM122.388 344V336.496H123.438V337.952L123.2 337.896C123.387 337.411 123.69 337.028 124.11 336.748C124.54 336.468 125.034 336.328 125.594 336.328C126.126 336.328 126.602 336.449 127.022 336.692C127.452 336.935 127.788 337.271 128.03 337.7C128.282 338.12 128.408 338.596 128.408 339.128V344H127.358V339.534C127.358 339.077 127.274 338.689 127.106 338.372C126.948 338.055 126.719 337.812 126.42 337.644C126.131 337.467 125.795 337.378 125.412 337.378C125.03 337.378 124.689 337.467 124.39 337.644C124.092 337.812 123.858 338.059 123.69 338.386C123.522 338.703 123.438 339.086 123.438 339.534V344H122.388ZM132.667 344V333.57H133.787V344H132.667ZM141.988 344.168C141.344 344.168 140.76 344.023 140.238 343.734C139.724 343.435 139.337 343.015 139.076 342.474L139.244 342.32V344H138.194V333.402H139.244V338.176L139.076 337.882C139.374 337.406 139.771 337.028 140.266 336.748C140.77 336.468 141.344 336.328 141.988 336.328C142.697 336.328 143.327 336.501 143.878 336.846C144.438 337.182 144.876 337.644 145.194 338.232C145.52 338.82 145.684 339.492 145.684 340.248C145.684 340.995 145.52 341.667 145.194 342.264C144.876 342.852 144.438 343.319 143.878 343.664C143.327 344 142.697 344.168 141.988 344.168ZM141.932 343.118C142.436 343.118 142.884 342.992 143.276 342.74C143.677 342.488 143.99 342.147 144.214 341.718C144.447 341.279 144.564 340.789 144.564 340.248C144.564 339.697 144.447 339.207 144.214 338.778C143.99 338.349 143.677 338.008 143.276 337.756C142.884 337.504 142.436 337.378 141.932 337.378C141.428 337.378 140.97 337.504 140.56 337.756C140.158 338.008 139.836 338.353 139.594 338.792C139.36 339.221 139.244 339.707 139.244 340.248C139.244 340.789 139.36 341.279 139.594 341.718C139.836 342.147 140.158 342.488 140.56 342.74C140.97 342.992 141.428 343.118 141.932 343.118ZM150.808 344.168C150.108 344.168 149.473 344 148.904 343.664C148.344 343.319 147.9 342.847 147.574 342.25C147.247 341.653 147.084 340.976 147.084 340.22C147.084 339.464 147.242 338.797 147.56 338.218C147.877 337.63 148.306 337.168 148.848 336.832C149.398 336.496 150.014 336.328 150.696 336.328C151.237 336.328 151.718 336.431 152.138 336.636C152.567 336.832 152.931 337.103 153.23 337.448C153.528 337.784 153.757 338.167 153.916 338.596C154.074 339.016 154.154 339.45 154.154 339.898C154.154 339.991 154.149 340.099 154.14 340.22C154.13 340.332 154.116 340.449 154.098 340.57H147.756V339.59H153.496L152.992 340.01C153.076 339.497 153.015 339.039 152.81 338.638C152.614 338.227 152.329 337.905 151.956 337.672C151.582 337.429 151.162 337.308 150.696 337.308C150.229 337.308 149.795 337.429 149.394 337.672C149.002 337.915 148.694 338.255 148.47 338.694C148.246 339.123 148.157 339.637 148.204 340.234C148.157 340.831 148.25 341.354 148.484 341.802C148.726 342.241 149.053 342.581 149.464 342.824C149.884 343.067 150.332 343.188 150.808 343.188C151.358 343.188 151.82 343.057 152.194 342.796C152.567 342.535 152.87 342.208 153.104 341.816L154 342.292C153.85 342.628 153.622 342.941 153.314 343.23C153.006 343.51 152.637 343.739 152.208 343.916C151.788 344.084 151.321 344.168 150.808 344.168ZM161.618 344.168C160.908 344.168 160.264 344 159.686 343.664C159.107 343.319 158.645 342.852 158.3 342.264C157.964 341.667 157.796 340.99 157.796 340.234C157.796 339.487 157.964 338.82 158.3 338.232C158.636 337.644 159.088 337.182 159.658 336.846C160.236 336.501 160.89 336.328 161.618 336.328C162.346 336.328 162.994 336.496 163.564 336.832C164.142 337.168 164.595 337.63 164.922 338.218C165.258 338.806 165.426 339.478 165.426 340.234C165.426 340.999 165.253 341.681 164.908 342.278C164.562 342.866 164.1 343.328 163.522 343.664C162.952 344 162.318 344.168 161.618 344.168ZM161.618 343.118C162.122 343.118 162.574 342.992 162.976 342.74C163.386 342.488 163.708 342.143 163.942 341.704C164.184 341.265 164.306 340.775 164.306 340.234C164.306 339.693 164.184 339.207 163.942 338.778C163.708 338.349 163.386 338.008 162.976 337.756C162.574 337.504 162.122 337.378 161.618 337.378C161.114 337.378 160.656 337.504 160.246 337.756C159.844 338.008 159.522 338.349 159.28 338.778C159.037 339.207 158.916 339.693 158.916 340.234C158.916 340.775 159.037 341.265 159.28 341.704C159.522 342.143 159.844 342.488 160.246 342.74C160.656 342.992 161.114 343.118 161.618 343.118ZM167.634 344V337.546H166.136V336.496H167.634V335.824C167.634 335.301 167.751 334.863 167.984 334.508C168.217 334.144 168.525 333.869 168.908 333.682C169.291 333.495 169.701 333.402 170.14 333.402C170.233 333.402 170.341 333.411 170.462 333.43C170.583 333.439 170.681 333.453 170.756 333.472V334.424C170.691 334.405 170.602 334.396 170.49 334.396C170.378 334.387 170.299 334.382 170.252 334.382C169.804 334.382 169.431 334.489 169.132 334.704C168.833 334.919 168.684 335.292 168.684 335.824V336.496H170.518V337.546H168.684V344H167.634ZM174.459 344V333.402H175.509V337.952L175.271 337.896C175.458 337.411 175.761 337.028 176.181 336.748C176.61 336.468 177.105 336.328 177.665 336.328C178.197 336.328 178.673 336.449 179.093 336.692C179.522 336.935 179.858 337.271 180.101 337.7C180.353 338.12 180.479 338.596 180.479 339.128V344H179.429V339.534C179.429 339.077 179.345 338.689 179.177 338.372C179.009 338.055 178.776 337.812 178.477 337.644C178.188 337.467 177.856 337.378 177.483 337.378C177.11 337.378 176.774 337.467 176.475 337.644C176.176 337.812 175.938 338.059 175.761 338.386C175.593 338.703 175.509 339.086 175.509 339.534V344H174.459ZM185.76 344.168C185.06 344.168 184.426 344 183.856 343.664C183.296 343.319 182.853 342.847 182.526 342.25C182.2 341.653 182.036 340.976 182.036 340.22C182.036 339.464 182.195 338.797 182.512 338.218C182.83 337.63 183.259 337.168 183.8 336.832C184.351 336.496 184.967 336.328 185.648 336.328C186.19 336.328 186.67 336.431 187.09 336.636C187.52 336.832 187.884 337.103 188.182 337.448C188.481 337.784 188.71 338.167 188.868 338.596C189.027 339.016 189.106 339.45 189.106 339.898C189.106 339.991 189.102 340.099 189.092 340.22C189.083 340.332 189.069 340.449 189.05 340.57H182.708V339.59H188.448L187.944 340.01C188.028 339.497 187.968 339.039 187.762 338.638C187.566 338.227 187.282 337.905 186.908 337.672C186.535 337.429 186.115 337.308 185.648 337.308C185.182 337.308 184.748 337.429 184.346 337.672C183.954 337.915 183.646 338.255 183.422 338.694C183.198 339.123 183.11 339.637 183.156 340.234C183.11 340.831 183.203 341.354 183.436 341.802C183.679 342.241 184.006 342.581 184.416 342.824C184.836 343.067 185.284 343.188 185.76 343.188C186.311 343.188 186.773 343.057 187.146 342.796C187.52 342.535 187.823 342.208 188.056 341.816L188.952 342.292C188.803 342.628 188.574 342.941 188.266 343.23C187.958 343.51 187.59 343.739 187.16 343.916C186.74 344.084 186.274 344.168 185.76 344.168ZM190.818 344V333.402H191.868V344H190.818ZM193.877 346.8V336.496H194.927V338.176L194.759 337.882C195.058 337.406 195.454 337.028 195.949 336.748C196.453 336.468 197.027 336.328 197.671 336.328C198.38 336.328 199.01 336.501 199.561 336.846C200.121 337.182 200.56 337.644 200.877 338.232C201.204 338.82 201.367 339.492 201.367 340.248C201.367 340.995 201.204 341.667 200.877 342.264C200.56 342.852 200.121 343.319 199.561 343.664C199.01 344 198.38 344.168 197.671 344.168C197.027 344.168 196.444 344.023 195.921 343.734C195.408 343.435 195.02 343.015 194.759 342.474L194.927 342.32V346.8H193.877ZM197.615 343.118C198.119 343.118 198.567 342.992 198.959 342.74C199.36 342.488 199.673 342.147 199.897 341.718C200.13 341.279 200.247 340.789 200.247 340.248C200.247 339.697 200.13 339.207 199.897 338.778C199.673 338.349 199.36 338.008 198.959 337.756C198.567 337.504 198.119 337.378 197.615 337.378C197.111 337.378 196.654 337.504 196.243 337.756C195.842 338.008 195.52 338.353 195.277 338.792C195.044 339.221 194.927 339.707 194.927 340.248C194.927 340.789 195.044 341.279 195.277 341.718C195.52 342.147 195.842 342.488 196.243 342.74C196.654 342.992 197.111 343.118 197.615 343.118ZM204.335 341.004V340.864C204.335 340.444 204.41 340.075 204.559 339.758C204.718 339.431 204.914 339.137 205.147 338.876C205.38 338.605 205.623 338.353 205.875 338.12C206.23 337.784 206.547 337.448 206.827 337.112C207.107 336.767 207.247 336.365 207.247 335.908C207.247 335.647 207.182 335.399 207.051 335.166C206.92 334.933 206.724 334.746 206.463 334.606C206.211 334.457 205.903 334.382 205.539 334.382C205.016 334.382 204.568 334.545 204.195 334.872C203.822 335.199 203.584 335.633 203.481 336.174L202.487 335.964C202.571 335.451 202.753 335.003 203.033 334.62C203.313 334.237 203.668 333.939 204.097 333.724C204.526 333.509 205.007 333.402 205.539 333.402C206.099 333.402 206.589 333.519 207.009 333.752C207.438 333.985 207.77 334.293 208.003 334.676C208.246 335.049 208.367 335.46 208.367 335.908C208.367 336.328 208.278 336.701 208.101 337.028C207.924 337.355 207.7 337.658 207.429 337.938C207.158 338.209 206.888 338.479 206.617 338.75C206.309 339.058 206.038 339.38 205.805 339.716C205.572 340.043 205.455 340.425 205.455 340.864V341.004H204.335ZM204.377 344V342.46H205.497V344H204.377Z" fill="#333333"/>
<rect x="295" y="403" width="154" height="42" rx="16" fill="#F7FFFB"/>
<rect x="295" y="403" width="154" height="42" rx="16" stroke="#00AD57" stroke-width="0.8" stroke-dasharray="2.6 2.6"/>
<path d="M316.992 430.168C316.255 430.168 315.578 430.037 314.962 429.776C314.346 429.505 313.809 429.132 313.352 428.656C312.904 428.171 312.554 427.601 312.302 426.948C312.05 426.295 311.924 425.576 311.924 424.792C311.924 424.008 312.05 423.289 312.302 422.636C312.554 421.983 312.904 421.413 313.352 420.928C313.809 420.443 314.346 420.069 314.962 419.808C315.578 419.537 316.255 419.402 316.992 419.402C317.701 419.402 318.336 419.528 318.896 419.78C319.465 420.032 319.941 420.359 320.324 420.76C320.716 421.152 320.996 421.567 321.164 422.006L320.114 422.468C319.853 421.861 319.451 421.376 318.91 421.012C318.378 420.639 317.739 420.452 316.992 420.452C316.227 420.452 315.545 420.634 314.948 420.998C314.351 421.362 313.884 421.871 313.548 422.524C313.212 423.168 313.044 423.924 313.044 424.792C313.044 425.651 313.212 426.407 313.548 427.06C313.884 427.713 314.351 428.222 314.948 428.586C315.545 428.941 316.227 429.118 316.992 429.118C317.739 429.118 318.378 428.936 318.91 428.572C319.451 428.208 319.853 427.723 320.114 427.116L321.164 427.578C320.996 428.007 320.716 428.423 320.324 428.824C319.941 429.216 319.465 429.538 318.896 429.79C318.336 430.042 317.701 430.168 316.992 430.168ZM326.253 430.168C325.543 430.168 324.899 430 324.321 429.664C323.742 429.319 323.28 428.852 322.935 428.264C322.599 427.667 322.431 426.99 322.431 426.234C322.431 425.487 322.599 424.82 322.935 424.232C323.271 423.644 323.723 423.182 324.293 422.846C324.871 422.501 325.525 422.328 326.253 422.328C326.981 422.328 327.629 422.496 328.199 422.832C328.777 423.168 329.23 423.63 329.557 424.218C329.893 424.806 330.061 425.478 330.061 426.234C330.061 426.999 329.888 427.681 329.543 428.278C329.197 428.866 328.735 429.328 328.157 429.664C327.587 430 326.953 430.168 326.253 430.168ZM326.253 429.118C326.757 429.118 327.209 428.992 327.611 428.74C328.021 428.488 328.343 428.143 328.577 427.704C328.819 427.265 328.941 426.775 328.941 426.234C328.941 425.693 328.819 425.207 328.577 424.778C328.343 424.349 328.021 424.008 327.611 423.756C327.209 423.504 326.757 423.378 326.253 423.378C325.749 423.378 325.291 423.504 324.881 423.756C324.479 424.008 324.157 424.349 323.915 424.778C323.672 425.207 323.551 425.693 323.551 426.234C323.551 426.775 323.672 427.265 323.915 427.704C324.157 428.143 324.479 428.488 324.881 428.74C325.291 428.992 325.749 429.118 326.253 429.118ZM331.773 430V422.496H332.823V423.924L332.655 423.714C332.86 423.275 333.163 422.935 333.565 422.692C333.975 422.449 334.423 422.328 334.909 422.328C335.487 422.328 336.01 422.491 336.477 422.818C336.943 423.145 337.275 423.569 337.471 424.092L337.177 424.106C337.363 423.527 337.685 423.089 338.143 422.79C338.609 422.482 339.123 422.328 339.683 422.328C340.187 422.328 340.649 422.449 341.069 422.692C341.498 422.935 341.839 423.271 342.091 423.7C342.352 424.12 342.483 424.596 342.483 425.128V430H341.433V425.534C341.433 425.077 341.349 424.689 341.181 424.372C341.022 424.055 340.803 423.812 340.523 423.644C340.243 423.467 339.921 423.378 339.557 423.378C339.202 423.378 338.88 423.467 338.591 423.644C338.301 423.812 338.073 424.059 337.905 424.386C337.737 424.703 337.653 425.086 337.653 425.534V430H336.603V425.534C336.603 425.077 336.519 424.689 336.351 424.372C336.192 424.055 335.973 423.812 335.693 423.644C335.413 423.467 335.091 423.378 334.727 423.378C334.363 423.378 334.036 423.467 333.747 423.644C333.467 423.812 333.243 424.059 333.075 424.386C332.907 424.703 332.823 425.086 332.823 425.534V430H331.773ZM344.347 432.8V422.496H345.397V424.176L345.229 423.882C345.528 423.406 345.925 423.028 346.419 422.748C346.923 422.468 347.497 422.328 348.141 422.328C348.851 422.328 349.481 422.501 350.031 422.846C350.591 423.182 351.03 423.644 351.347 424.232C351.674 424.82 351.837 425.492 351.837 426.248C351.837 426.995 351.674 427.667 351.347 428.264C351.03 428.852 350.591 429.319 350.031 429.664C349.481 430 348.851 430.168 348.141 430.168C347.497 430.168 346.914 430.023 346.391 429.734C345.878 429.435 345.491 429.015 345.229 428.474L345.397 428.32V432.8H344.347ZM348.085 429.118C348.589 429.118 349.037 428.992 349.429 428.74C349.831 428.488 350.143 428.147 350.367 427.718C350.601 427.279 350.717 426.789 350.717 426.248C350.717 425.697 350.601 425.207 350.367 424.778C350.143 424.349 349.831 424.008 349.429 423.756C349.037 423.504 348.589 423.378 348.085 423.378C347.581 423.378 347.124 423.504 346.713 423.756C346.312 424.008 345.99 424.353 345.747 424.792C345.514 425.221 345.397 425.707 345.397 426.248C345.397 426.789 345.514 427.279 345.747 427.718C345.99 428.147 346.312 428.488 346.713 428.74C347.124 428.992 347.581 429.118 348.085 429.118ZM357.059 430.168C356.35 430.168 355.706 430 355.127 429.664C354.549 429.319 354.087 428.852 353.741 428.264C353.405 427.667 353.237 426.99 353.237 426.234C353.237 425.487 353.405 424.82 353.741 424.232C354.077 423.644 354.53 423.182 355.099 422.846C355.678 422.501 356.331 422.328 357.059 422.328C357.787 422.328 358.436 422.496 359.005 422.832C359.584 423.168 360.037 423.63 360.363 424.218C360.699 424.806 360.867 425.478 360.867 426.234C360.867 426.999 360.695 427.681 360.349 428.278C360.004 428.866 359.542 429.328 358.963 429.664C358.394 430 357.759 430.168 357.059 430.168ZM357.059 429.118C357.563 429.118 358.016 428.992 358.417 428.74C358.828 428.488 359.15 428.143 359.383 427.704C359.626 427.265 359.747 426.775 359.747 426.234C359.747 425.693 359.626 425.207 359.383 424.778C359.15 424.349 358.828 424.008 358.417 423.756C358.016 423.504 357.563 423.378 357.059 423.378C356.555 423.378 356.098 423.504 355.687 423.756C355.286 424.008 354.964 424.349 354.721 424.778C354.479 425.207 354.357 425.693 354.357 426.234C354.357 426.775 354.479 427.265 354.721 427.704C354.964 428.143 355.286 428.488 355.687 428.74C356.098 428.992 356.555 429.118 357.059 429.118ZM365.183 430.168C364.465 430.168 363.835 429.986 363.293 429.622C362.752 429.258 362.36 428.763 362.117 428.138L362.999 427.718C363.214 428.175 363.513 428.539 363.895 428.81C364.287 429.081 364.717 429.216 365.183 429.216C365.631 429.216 366.009 429.109 366.317 428.894C366.625 428.67 366.779 428.381 366.779 428.026C366.779 427.765 366.705 427.559 366.555 427.41C366.406 427.251 366.233 427.13 366.037 427.046C365.841 426.962 365.669 426.901 365.519 426.864L364.441 426.556C363.751 426.36 363.251 426.085 362.943 425.73C362.635 425.375 362.481 424.965 362.481 424.498C362.481 424.059 362.593 423.677 362.817 423.35C363.041 423.023 363.345 422.771 363.727 422.594C364.11 422.417 364.535 422.328 365.001 422.328C365.636 422.328 366.21 422.496 366.723 422.832C367.246 423.159 367.615 423.616 367.829 424.204L366.933 424.624C366.747 424.204 366.476 423.877 366.121 423.644C365.776 423.401 365.389 423.28 364.959 423.28C364.539 423.28 364.203 423.387 363.951 423.602C363.699 423.817 363.573 424.087 363.573 424.414C363.573 424.666 363.639 424.867 363.769 425.016C363.9 425.165 364.049 425.277 364.217 425.352C364.395 425.427 364.549 425.483 364.679 425.52L365.925 425.884C366.532 426.061 367.003 426.337 367.339 426.71C367.685 427.083 367.857 427.522 367.857 428.026C367.857 428.437 367.741 428.805 367.507 429.132C367.283 429.459 366.971 429.715 366.569 429.902C366.168 430.079 365.706 430.168 365.183 430.168ZM372.978 430.168C372.278 430.168 371.644 430 371.074 429.664C370.514 429.319 370.071 428.847 369.744 428.25C369.418 427.653 369.254 426.976 369.254 426.22C369.254 425.464 369.413 424.797 369.73 424.218C370.048 423.63 370.477 423.168 371.018 422.832C371.569 422.496 372.185 422.328 372.866 422.328C373.408 422.328 373.888 422.431 374.308 422.636C374.738 422.832 375.102 423.103 375.4 423.448C375.699 423.784 375.928 424.167 376.086 424.596C376.245 425.016 376.324 425.45 376.324 425.898C376.324 425.991 376.32 426.099 376.31 426.22C376.301 426.332 376.287 426.449 376.268 426.57H369.926V425.59H375.666L375.162 426.01C375.246 425.497 375.186 425.039 374.98 424.638C374.784 424.227 374.5 423.905 374.126 423.672C373.753 423.429 373.333 423.308 372.866 423.308C372.4 423.308 371.966 423.429 371.564 423.672C371.172 423.915 370.864 424.255 370.64 424.694C370.416 425.123 370.328 425.637 370.374 426.234C370.328 426.831 370.421 427.354 370.654 427.802C370.897 428.241 371.224 428.581 371.634 428.824C372.054 429.067 372.502 429.188 372.978 429.188C373.529 429.188 373.991 429.057 374.364 428.796C374.738 428.535 375.041 428.208 375.274 427.816L376.17 428.292C376.021 428.628 375.792 428.941 375.484 429.23C375.176 429.51 374.808 429.739 374.378 429.916C373.958 430.084 373.492 430.168 372.978 430.168ZM382.444 430.168C381.968 430.168 381.544 430.079 381.17 429.902C380.797 429.715 380.503 429.463 380.288 429.146C380.074 428.829 379.966 428.465 379.966 428.054C379.966 427.662 380.05 427.307 380.218 426.99C380.386 426.663 380.648 426.388 381.002 426.164C381.357 425.94 381.81 425.781 382.36 425.688L385.3 425.198V426.15L382.612 426.598C382.071 426.691 381.679 426.864 381.436 427.116C381.203 427.368 381.086 427.667 381.086 428.012C381.086 428.348 381.217 428.633 381.478 428.866C381.749 429.099 382.094 429.216 382.514 429.216C383.028 429.216 383.476 429.109 383.858 428.894C384.241 428.67 384.54 428.371 384.754 427.998C384.969 427.625 385.076 427.209 385.076 426.752V424.848C385.076 424.4 384.913 424.036 384.586 423.756C384.26 423.476 383.835 423.336 383.312 423.336C382.855 423.336 382.454 423.453 382.108 423.686C381.763 423.91 381.506 424.204 381.338 424.568L380.386 424.05C380.526 423.733 380.746 423.443 381.044 423.182C381.352 422.921 381.702 422.715 382.094 422.566C382.486 422.407 382.892 422.328 383.312 422.328C383.863 422.328 384.348 422.435 384.768 422.65C385.198 422.865 385.529 423.163 385.762 423.546C386.005 423.919 386.126 424.353 386.126 424.848V430H385.076V428.502L385.23 428.656C385.1 428.936 384.894 429.193 384.614 429.426C384.344 429.65 384.022 429.832 383.648 429.972C383.284 430.103 382.883 430.168 382.444 430.168ZM388.146 430V422.496H389.196V423.952L388.958 423.896C389.145 423.411 389.448 423.028 389.868 422.748C390.297 422.468 390.792 422.328 391.352 422.328C391.884 422.328 392.36 422.449 392.78 422.692C393.209 422.935 393.545 423.271 393.788 423.7C394.04 424.12 394.166 424.596 394.166 425.128V430H393.116V425.534C393.116 425.077 393.032 424.689 392.864 424.372C392.705 424.055 392.477 423.812 392.178 423.644C391.889 423.467 391.553 423.378 391.17 423.378C390.787 423.378 390.447 423.467 390.148 423.644C389.849 423.812 389.616 424.059 389.448 424.386C389.28 424.703 389.196 425.086 389.196 425.534V430H388.146ZM401.686 430.168C400.986 430.168 400.352 430 399.782 429.664C399.222 429.319 398.779 428.847 398.452 428.25C398.126 427.653 397.962 426.976 397.962 426.22C397.962 425.464 398.121 424.797 398.438 424.218C398.756 423.63 399.185 423.168 399.726 422.832C400.277 422.496 400.893 422.328 401.574 422.328C402.116 422.328 402.596 422.431 403.016 422.636C403.446 422.832 403.81 423.103 404.108 423.448C404.407 423.784 404.636 424.167 404.794 424.596C404.953 425.016 405.032 425.45 405.032 425.898C405.032 425.991 405.028 426.099 405.018 426.22C405.009 426.332 404.995 426.449 404.976 426.57H398.634V425.59H404.374L403.87 426.01C403.954 425.497 403.894 425.039 403.688 424.638C403.492 424.227 403.208 423.905 402.834 423.672C402.461 423.429 402.041 423.308 401.574 423.308C401.108 423.308 400.674 423.429 400.272 423.672C399.88 423.915 399.572 424.255 399.348 424.694C399.124 425.123 399.036 425.637 399.082 426.234C399.036 426.831 399.129 427.354 399.362 427.802C399.605 428.241 399.932 428.581 400.342 428.824C400.762 429.067 401.21 429.188 401.686 429.188C402.237 429.188 402.699 429.057 403.072 428.796C403.446 428.535 403.749 428.208 403.982 427.816L404.878 428.292C404.729 428.628 404.5 428.941 404.192 429.23C403.884 429.51 403.516 429.739 403.086 429.916C402.666 430.084 402.2 430.168 401.686 430.168ZM406.744 430V422.496H407.794V423.924L407.626 423.714C407.831 423.275 408.134 422.935 408.536 422.692C408.946 422.449 409.394 422.328 409.88 422.328C410.458 422.328 410.981 422.491 411.448 422.818C411.914 423.145 412.246 423.569 412.442 424.092L412.148 424.106C412.334 423.527 412.656 423.089 413.114 422.79C413.58 422.482 414.094 422.328 414.654 422.328C415.158 422.328 415.62 422.449 416.04 422.692C416.469 422.935 416.81 423.271 417.062 423.7C417.323 424.12 417.454 424.596 417.454 425.128V430H416.404V425.534C416.404 425.077 416.32 424.689 416.152 424.372C415.993 424.055 415.774 423.812 415.494 423.644C415.214 423.467 414.892 423.378 414.528 423.378C414.173 423.378 413.851 423.467 413.562 423.644C413.272 423.812 413.044 424.059 412.876 424.386C412.708 424.703 412.624 425.086 412.624 425.534V430H411.574V425.534C411.574 425.077 411.49 424.689 411.322 424.372C411.163 424.055 410.944 423.812 410.664 423.644C410.384 423.467 410.062 423.378 409.698 423.378C409.334 423.378 409.007 423.467 408.718 423.644C408.438 423.812 408.214 424.059 408.046 424.386C407.878 424.703 407.794 425.086 407.794 425.534V430H406.744ZM421.489 430.168C421.013 430.168 420.588 430.079 420.215 429.902C419.841 429.715 419.547 429.463 419.333 429.146C419.118 428.829 419.011 428.465 419.011 428.054C419.011 427.662 419.095 427.307 419.263 426.99C419.431 426.663 419.692 426.388 420.047 426.164C420.401 425.94 420.854 425.781 421.405 425.688L424.345 425.198V426.15L421.657 426.598C421.115 426.691 420.723 426.864 420.481 427.116C420.247 427.368 420.131 427.667 420.131 428.012C420.131 428.348 420.261 428.633 420.523 428.866C420.793 429.099 421.139 429.216 421.559 429.216C422.072 429.216 422.52 429.109 422.903 428.894C423.285 428.67 423.584 428.371 423.799 427.998C424.013 427.625 424.121 427.209 424.121 426.752V424.848C424.121 424.4 423.957 424.036 423.631 423.756C423.304 423.476 422.879 423.336 422.357 423.336C421.899 423.336 421.498 423.453 421.153 423.686C420.807 423.91 420.551 424.204 420.383 424.568L419.431 424.05C419.571 423.733 419.79 423.443 420.089 423.182C420.397 422.921 420.747 422.715 421.139 422.566C421.531 422.407 421.937 422.328 422.357 422.328C422.907 422.328 423.393 422.435 423.813 422.65C424.242 422.865 424.573 423.163 424.807 423.546C425.049 423.919 425.171 424.353 425.171 424.848V430H424.121V428.502L424.275 428.656C424.144 428.936 423.939 429.193 423.659 429.426C423.388 429.65 423.066 429.832 422.693 429.972C422.329 430.103 421.927 430.168 421.489 430.168ZM427.19 430V422.496H428.24V430H427.19ZM427.19 421.11V419.57H428.24V421.11H427.19ZM430.249 430V419.402H431.299V430H430.249Z" fill="#333333"/>
<rect x="457" y="403" width="127" height="42" rx="16" fill="#F7FFFB"/>
<rect x="457" y="403" width="127" height="42" rx="16" stroke="#00AD57" stroke-width="0.8" stroke-dasharray="2.6 2.6"/>
<path d="M477.746 430.168C477.083 430.168 476.481 430.042 475.94 429.79C475.399 429.538 474.941 429.202 474.568 428.782C474.195 428.353 473.929 427.881 473.77 427.368L474.778 426.99C475.021 427.699 475.399 428.241 475.912 428.614C476.425 428.978 477.037 429.16 477.746 429.16C478.194 429.16 478.586 429.09 478.922 428.95C479.267 428.801 479.533 428.595 479.72 428.334C479.907 428.073 480 427.769 480 427.424C480 426.911 479.86 426.514 479.58 426.234C479.3 425.954 478.899 425.739 478.376 425.59L476.5 425.03C475.763 424.815 475.193 424.456 474.792 423.952C474.4 423.448 474.204 422.874 474.204 422.23C474.204 421.679 474.339 421.194 474.61 420.774C474.881 420.345 475.249 420.009 475.716 419.766C476.192 419.523 476.729 419.402 477.326 419.402C477.951 419.402 478.511 419.519 479.006 419.752C479.51 419.976 479.935 420.275 480.28 420.648C480.625 421.021 480.873 421.437 481.022 421.894L480.042 422.286C479.818 421.67 479.468 421.203 478.992 420.886C478.525 420.569 477.975 420.41 477.34 420.41C476.939 420.41 476.584 420.48 476.276 420.62C475.977 420.76 475.744 420.961 475.576 421.222C475.408 421.483 475.324 421.791 475.324 422.146C475.324 422.575 475.459 422.963 475.73 423.308C476.001 423.644 476.416 423.896 476.976 424.064L478.628 424.554C479.449 424.797 480.07 425.147 480.49 425.604C480.91 426.061 481.12 426.635 481.12 427.326C481.12 427.886 480.975 428.381 480.686 428.81C480.406 429.23 480.009 429.561 479.496 429.804C478.992 430.047 478.409 430.168 477.746 430.168ZM486.405 430.168C485.705 430.168 485.07 430 484.501 429.664C483.941 429.319 483.497 428.847 483.171 428.25C482.844 427.653 482.681 426.976 482.681 426.22C482.681 425.464 482.839 424.797 483.157 424.218C483.474 423.63 483.903 423.168 484.445 422.832C484.995 422.496 485.611 422.328 486.293 422.328C486.834 422.328 487.315 422.431 487.735 422.636C488.164 422.832 488.528 423.103 488.827 423.448C489.125 423.784 489.354 424.167 489.513 424.596C489.671 425.016 489.751 425.45 489.751 425.898C489.751 425.991 489.746 426.099 489.737 426.22C489.727 426.332 489.713 426.449 489.695 426.57H483.353V425.59H489.093L488.589 426.01C488.673 425.497 488.612 425.039 488.407 424.638C488.211 424.227 487.926 423.905 487.553 423.672C487.179 423.429 486.759 423.308 486.293 423.308C485.826 423.308 485.392 423.429 484.991 423.672C484.599 423.915 484.291 424.255 484.067 424.694C483.843 425.123 483.754 425.637 483.801 426.234C483.754 426.831 483.847 427.354 484.081 427.802C484.323 428.241 484.65 428.581 485.061 428.824C485.481 429.067 485.929 429.188 486.405 429.188C486.955 429.188 487.417 429.057 487.791 428.796C488.164 428.535 488.467 428.208 488.701 427.816L489.597 428.292C489.447 428.628 489.219 428.941 488.911 429.23C488.603 429.51 488.234 429.739 487.805 429.916C487.385 430.084 486.918 430.168 486.405 430.168ZM494.332 430.084C493.66 430.084 493.142 429.888 492.778 429.496C492.414 429.104 492.232 428.544 492.232 427.816V423.546H490.846V422.496H491.196C491.513 422.496 491.765 422.393 491.952 422.188C492.139 421.973 492.232 421.707 492.232 421.39V420.76H493.282V422.496H494.934V423.546H493.282V427.816C493.282 428.068 493.319 428.292 493.394 428.488C493.469 428.675 493.595 428.824 493.772 428.936C493.959 429.048 494.206 429.104 494.514 429.104C494.589 429.104 494.677 429.099 494.78 429.09C494.883 429.081 494.971 429.071 495.046 429.062V430C494.934 430.028 494.808 430.047 494.668 430.056C494.528 430.075 494.416 430.084 494.332 430.084ZM501.159 430.168C500.683 430.168 500.258 430.079 499.885 429.902C499.511 429.715 499.217 429.463 499.003 429.146C498.788 428.829 498.681 428.465 498.681 428.054C498.681 427.662 498.765 427.307 498.933 426.99C499.101 426.663 499.362 426.388 499.717 426.164C500.071 425.94 500.524 425.781 501.075 425.688L504.015 425.198V426.15L501.327 426.598C500.785 426.691 500.393 426.864 500.151 427.116C499.917 427.368 499.801 427.667 499.801 428.012C499.801 428.348 499.931 428.633 500.193 428.866C500.463 429.099 500.809 429.216 501.229 429.216C501.742 429.216 502.19 429.109 502.573 428.894C502.955 428.67 503.254 428.371 503.469 427.998C503.683 427.625 503.791 427.209 503.791 426.752V424.848C503.791 424.4 503.627 424.036 503.301 423.756C502.974 423.476 502.549 423.336 502.027 423.336C501.569 423.336 501.168 423.453 500.823 423.686C500.477 423.91 500.221 424.204 500.053 424.568L499.101 424.05C499.241 423.733 499.46 423.443 499.759 423.182C500.067 422.921 500.417 422.715 500.809 422.566C501.201 422.407 501.607 422.328 502.027 422.328C502.577 422.328 503.063 422.435 503.483 422.65C503.912 422.865 504.243 423.163 504.477 423.546C504.719 423.919 504.841 424.353 504.841 424.848V430H503.791V428.502L503.945 428.656C503.814 428.936 503.609 429.193 503.329 429.426C503.058 429.65 502.736 429.832 502.363 429.972C501.999 430.103 501.597 430.168 501.159 430.168ZM509.099 430V422.496H510.149V423.728L510.009 423.546C510.187 423.191 510.453 422.911 510.807 422.706C511.171 422.501 511.61 422.398 512.123 422.398H512.599V423.448H511.941C511.4 423.448 510.966 423.616 510.639 423.952C510.313 424.288 510.149 424.764 510.149 425.38V430H509.099ZM517.106 430.168C516.406 430.168 515.771 430 515.202 429.664C514.642 429.319 514.198 428.847 513.872 428.25C513.545 427.653 513.382 426.976 513.382 426.22C513.382 425.464 513.54 424.797 513.858 424.218C514.175 423.63 514.604 423.168 515.146 422.832C515.696 422.496 516.312 422.328 516.994 422.328C517.535 422.328 518.016 422.431 518.436 422.636C518.865 422.832 519.229 423.103 519.528 423.448C519.826 423.784 520.055 424.167 520.214 424.596C520.372 425.016 520.452 425.45 520.452 425.898C520.452 425.991 520.447 426.099 520.438 426.22C520.428 426.332 520.414 426.449 520.396 426.57H514.054V425.59H519.794L519.29 426.01C519.374 425.497 519.313 425.039 519.108 424.638C518.912 424.227 518.627 423.905 518.254 423.672C517.88 423.429 517.46 423.308 516.994 423.308C516.527 423.308 516.093 423.429 515.692 423.672C515.3 423.915 514.992 424.255 514.768 424.694C514.544 425.123 514.455 425.637 514.502 426.234C514.455 426.831 514.548 427.354 514.782 427.802C515.024 428.241 515.351 428.581 515.762 428.824C516.182 429.067 516.63 429.188 517.106 429.188C517.656 429.188 518.118 429.057 518.492 428.796C518.865 428.535 519.168 428.208 519.402 427.816L520.298 428.292C520.148 428.628 519.92 428.941 519.612 429.23C519.304 429.51 518.935 429.739 518.506 429.916C518.086 430.084 517.619 430.168 517.106 430.168ZM522.163 430V422.496H523.213V423.924L523.045 423.714C523.25 423.275 523.554 422.935 523.955 422.692C524.366 422.449 524.814 422.328 525.299 422.328C525.878 422.328 526.4 422.491 526.867 422.818C527.334 423.145 527.665 423.569 527.861 424.092L527.567 424.106C527.754 423.527 528.076 423.089 528.533 422.79C529 422.482 529.513 422.328 530.073 422.328C530.577 422.328 531.039 422.449 531.459 422.692C531.888 422.935 532.229 423.271 532.481 423.7C532.742 424.12 532.873 424.596 532.873 425.128V430H531.823V425.534C531.823 425.077 531.739 424.689 531.571 424.372C531.412 424.055 531.193 423.812 530.913 423.644C530.633 423.467 530.311 423.378 529.947 423.378C529.592 423.378 529.27 423.467 528.981 423.644C528.692 423.812 528.463 424.059 528.295 424.386C528.127 424.703 528.043 425.086 528.043 425.534V430H526.993V425.534C526.993 425.077 526.909 424.689 526.741 424.372C526.582 424.055 526.363 423.812 526.083 423.644C525.803 423.467 525.481 423.378 525.117 423.378C524.753 423.378 524.426 423.467 524.137 423.644C523.857 423.812 523.633 424.059 523.465 424.386C523.297 424.703 523.213 425.086 523.213 425.534V430H522.163ZM534.738 430V422.496H535.788V430H534.738ZM534.738 421.11V419.57H535.788V421.11H534.738ZM537.797 430V422.496H538.847V423.952L538.609 423.896C538.796 423.411 539.099 423.028 539.519 422.748C539.948 422.468 540.443 422.328 541.003 422.328C541.535 422.328 542.011 422.449 542.431 422.692C542.86 422.935 543.196 423.271 543.439 423.7C543.691 424.12 543.817 424.596 543.817 425.128V430H542.767V425.534C542.767 425.077 542.683 424.689 542.515 424.372C542.356 424.055 542.128 423.812 541.829 423.644C541.54 423.467 541.204 423.378 540.821 423.378C540.438 423.378 540.098 423.467 539.799 423.644C539.5 423.812 539.267 424.059 539.099 424.386C538.931 424.703 538.847 425.086 538.847 425.534V430H537.797ZM549.071 430.168C548.371 430.168 547.741 430 547.181 429.664C546.621 429.319 546.177 428.852 545.851 428.264C545.533 427.667 545.375 426.995 545.375 426.248C545.375 425.492 545.533 424.82 545.851 424.232C546.177 423.644 546.616 423.182 547.167 422.846C547.727 422.501 548.361 422.328 549.071 422.328C549.715 422.328 550.289 422.468 550.793 422.748C551.297 423.028 551.693 423.406 551.983 423.882L551.815 424.176V419.402H552.865V430H551.815V428.32L551.983 428.474C551.721 429.015 551.329 429.435 550.807 429.734C550.293 430.023 549.715 430.168 549.071 430.168ZM549.127 429.118C549.631 429.118 550.083 428.992 550.485 428.74C550.895 428.488 551.217 428.147 551.451 427.718C551.693 427.279 551.815 426.789 551.815 426.248C551.815 425.707 551.693 425.221 551.451 424.792C551.217 424.353 550.895 424.008 550.485 423.756C550.083 423.504 549.631 423.378 549.127 423.378C548.632 423.378 548.184 423.504 547.783 423.756C547.381 424.008 547.064 424.349 546.831 424.778C546.607 425.207 546.495 425.697 546.495 426.248C546.495 426.789 546.607 427.279 546.831 427.718C547.064 428.147 547.377 428.488 547.769 428.74C548.17 428.992 548.623 429.118 549.127 429.118ZM558.296 430.168C557.596 430.168 556.962 430 556.392 429.664C555.832 429.319 555.389 428.847 555.062 428.25C554.736 427.653 554.572 426.976 554.572 426.22C554.572 425.464 554.731 424.797 555.048 424.218C555.366 423.63 555.795 423.168 556.336 422.832C556.887 422.496 557.503 422.328 558.184 422.328C558.726 422.328 559.206 422.431 559.626 422.636C560.056 422.832 560.42 423.103 560.718 423.448C561.017 423.784 561.246 424.167 561.404 424.596C561.563 425.016 561.642 425.45 561.642 425.898C561.642 425.991 561.638 426.099 561.628 426.22C561.619 426.332 561.605 426.449 561.586 426.57H555.244V425.59H560.984L560.48 426.01C560.564 425.497 560.504 425.039 560.298 424.638C560.102 424.227 559.818 423.905 559.444 423.672C559.071 423.429 558.651 423.308 558.184 423.308C557.718 423.308 557.284 423.429 556.882 423.672C556.49 423.915 556.182 424.255 555.958 424.694C555.734 425.123 555.646 425.637 555.692 426.234C555.646 426.831 555.739 427.354 555.972 427.802C556.215 428.241 556.542 428.581 556.952 428.824C557.372 429.067 557.82 429.188 558.296 429.188C558.847 429.188 559.309 429.057 559.682 428.796C560.056 428.535 560.359 428.208 560.592 427.816L561.488 428.292C561.339 428.628 561.11 428.941 560.802 429.23C560.494 429.51 560.126 429.739 559.696 429.916C559.276 430.084 558.81 430.168 558.296 430.168ZM563.354 430V422.496H564.404V423.728L564.264 423.546C564.441 423.191 564.707 422.911 565.062 422.706C565.426 422.501 565.864 422.398 566.378 422.398H566.854V423.448H566.196C565.654 423.448 565.22 423.616 564.894 423.952C564.567 424.288 564.404 424.764 564.404 425.38V430H563.354Z" fill="#333333"/>
</g>
</g>
<defs>
<filter id="filter0_d_554_2754" x="18" y="23" width="606" height="465" filterUnits="userSpaceOnUse" color-interpolation-filters="sRGB">
<feFlood flood-opacity="0" result="BackgroundImageFix"/>
<feColorMatrix in="SourceAlpha" type="matrix" values="0 0 0 0 0 0 0 0 0 0 0 0 0 0 0 0 0 0 127 0" result="hardAlpha"/>
<feOffset dy="8"/>
<feGaussianBlur stdDeviation="8"/>
<feComposite in2="hardAlpha" operator="out"/>
<feColorMatrix type="matrix" values="0 0 0 0 0.519271 0 0 0 0 0.519271 0 0 0 0 0.519271 0 0 0 0.1 0"/>
<feBlend mode="normal" in2="BackgroundImageFix" result="effect1_dropShadow_554_2754"/>
<feBlend mode="normal" in="SourceGraphic" in2="effect1_dropShadow_554_2754" result="shape"/>
</filter>
<clipPath id="clip0_554_2754">
<rect width="642" height="495" rx="12" fill="white"/>
</clipPath>
<clipPath id="clip1_554_2754">
<path d="M155.2 -46.2379H221.067V970H155.2V-46.2379Z" fill="white"/>
</clipPath>
<clipPath id="clip2_554_2754">
<path d="M616.266 -46.2379H682.132V970H616.266V-46.2379Z" fill="white"/>
</clipPath>
</defs>
</svg>
