<svg width="18" height="18" viewBox="0 0 18 18" fill="none" xmlns="http://www.w3.org/2000/svg">
<path d="M9.00008 0.666504C4.40841 0.666504 0.666748 4.40817 0.666748 8.99984C0.666748 13.5915 4.40841 17.3332 9.00008 17.3332C13.5917 17.3332 17.3334 13.5915 17.3334 8.99984C17.3334 4.40817 13.5917 0.666504 9.00008 0.666504ZM12.9834 7.08317L8.25841 11.8082C8.14175 11.9248 7.98341 11.9915 7.81675 11.9915C7.65008 11.9915 7.49175 11.9248 7.37508 11.8082L5.01675 9.44984C4.77508 9.20817 4.77508 8.80817 5.01675 8.5665C5.25841 8.32484 5.65841 8.32484 5.90008 8.5665L7.81675 10.4832L12.1001 6.19984C12.3417 5.95817 12.7417 5.95817 12.9834 6.19984C13.2251 6.4415 13.2251 6.83317 12.9834 7.08317Z" fill="#00AD57"/>
</svg>
