<svg width="140" height="26" viewBox="0 0 140 26" fill="none" xmlns="http://www.w3.org/2000/svg">
<g clip-path="url(#clip0_34_195)">
<path fill-rule="evenodd" clip-rule="evenodd" d="M43.3453 6.8591V2.55356H39.6612V6.8591H43.3453ZM39.6612 7.87981V25.1918H43.3453V7.87981H39.6612ZM114.812 15.1602H104.247C103.287 13.0996 102.672 10.8951 102.427 8.63499C107.798 9.12324 111.971 11.698 114.812 15.1602ZM118.984 22.9282H122.491C121.959 23.8158 121.381 24.6149 120.76 25.3253C120.094 24.6149 119.517 23.8158 118.984 22.9282ZM116.854 18.1787C116.898 18.2231 116.898 18.3118 116.943 18.356H106.201C105.757 17.7791 105.357 17.1577 105.002 16.5359H115.833C116.233 17.0687 116.543 17.6014 116.854 18.1787ZM116.854 22.9282H118.585C118.761 23.7151 118.85 24.5189 118.851 25.3253C118.186 25.2808 117.52 25.1918 116.854 25.1031C114.945 24.7483 113.036 23.9934 111.261 22.9282H116.854ZM124.622 16.5359C124.711 16.7136 124.666 16.8913 124.622 17.0687C124.577 17.5124 124.489 17.912 124.355 18.356H117.12L116.853 17.0687C116.853 16.8913 116.809 16.7136 116.765 16.5359H124.622ZM124.622 11.2984C124.844 12.63 124.933 13.917 124.844 15.1602H116.632C116.543 13.6952 116.587 12.1862 116.854 10.7215C117.342 7.83589 118.54 4.9506 120.627 2.28719C122.891 5.26089 124.134 8.32385 124.622 11.2984ZM124.622 19.7321H134.21C133.589 20.398 132.967 21.0194 132.301 21.5519H109.308C108.597 21.0194 107.932 20.398 107.31 19.7321H124.622ZM124.622 22.9282H130.259C128.484 24.0379 126.575 24.7483 124.622 25.1031C123.956 25.1921 123.29 25.2808 122.624 25.3253C122.669 24.522 122.758 23.7218 122.891 22.9282H124.622ZM136.252 17.0245C135.986 17.4685 135.675 17.912 135.364 18.356H124.622C124.578 18.3118 124.622 18.2231 124.622 18.1787C124.946 17.6213 125.287 17.0735 125.643 16.5359H136.563C136.474 16.6694 136.341 16.8471 136.252 17.0245ZM136.252 3.66325C137.406 3.66325 138.383 4.55105 138.383 5.79391C138.383 6.99229 137.406 7.87981 136.252 7.87981C135.098 7.87981 134.121 6.99229 134.121 5.79391C134.121 4.55076 135.098 3.66325 136.252 3.66325ZM136.252 7.52503C137.228 7.52503 137.983 6.81461 137.983 5.79391C137.983 4.77264 137.228 4.01831 136.252 4.01831C135.275 4.01831 134.521 4.77264 134.521 5.79391C134.521 6.77041 135.275 7.52503 136.252 7.52503ZM136.252 5.61624C136.563 5.61624 136.874 5.61624 136.874 5.21669C136.874 4.95032 136.563 4.86134 136.341 4.86134H135.808V5.61624H136.252ZM136.252 5.9713L135.808 5.9271V6.99229H135.453V4.55076H136.385C136.962 4.55076 137.228 4.77264 137.228 5.26089C137.228 5.70493 136.962 5.88261 136.607 5.92681L137.317 6.992H136.873L136.252 5.9713ZM136.252 9.12324C137.184 8.90108 138.116 8.72369 139.137 8.63499C138.826 11.0765 138.205 13.2517 137.273 15.1602H126.664C128.972 12.3633 132.212 10.0997 136.252 9.12324ZM53.7328 8.01328C55.6413 8.01328 57.4167 8.63471 58.8375 9.70018V2.55356H62.5661V25.1918H58.8375V23.6384C57.4169 24.7036 55.6413 25.3253 53.7328 25.3253C48.983 25.3253 45.1212 21.4632 45.1212 16.6691C45.1212 11.8751 48.983 8.01328 53.7328 8.01328ZM53.7328 21.7299C56.5289 21.7299 58.8375 19.4657 58.8375 16.6694C58.8375 13.8728 56.5289 11.609 53.7328 11.609C50.9362 11.609 48.6721 13.8728 48.6721 16.6694C48.6718 19.4654 50.936 21.7299 53.7328 21.7299ZM73.0417 8.01328C74.9505 8.01328 76.6814 8.63471 78.1461 9.70018V8.05777H81.8305V25.1921H78.1461V23.6387C76.6811 24.7038 74.9505 25.3256 73.0417 25.3256C68.2477 25.3256 64.3859 21.4635 64.3859 16.6694C64.3862 11.8751 68.2479 8.01328 73.0417 8.01328ZM73.0417 21.7299C75.8383 21.7299 78.1019 19.4657 78.1019 16.6694C78.1019 13.8728 75.838 11.609 73.0417 11.609C70.2007 11.609 67.9371 13.8728 67.9371 16.6694C67.9371 19.4654 70.2007 21.7299 73.0417 21.7299ZM94.3926 8.81238C96.2127 9.78888 97.3669 11.4313 97.4111 13.5175H93.638C93.4161 12.1414 92.3064 11.0762 90.4864 11.0762C89.5099 11.0762 87.4679 11.4313 87.4679 12.6745C87.4679 14.5385 90.5753 14.6716 91.3742 14.7161C92.5728 14.8051 93.5935 15.0267 94.3923 15.3376C97.0115 16.2254 97.8549 18.0007 97.8549 19.9985C97.8549 21.907 96.8784 23.3278 95.5023 24.3488C95.1917 24.5707 94.8364 24.7483 94.3923 24.9254C93.1498 25.3698 91.5076 25.5472 90.3974 25.5472C87.0683 25.5472 83.739 23.7715 83.295 19.6879H87.0241C87.2012 21.5964 89.199 22.3513 90.3532 22.3513C92.4394 22.3513 93.8599 21.4635 93.8599 20.398C93.8599 18.8001 92.3504 18.4447 90.1755 18.2231C88.9326 18.0897 86.6243 17.6901 85.6036 16.8471C84.5826 16.0035 83.6503 15.0267 83.6503 13.3398C83.6503 10.3213 85.9589 7.96879 90.5751 7.92458C91.9956 7.92458 93.3274 8.23516 94.3926 8.81238ZM28.1642 8.01328C30.0727 8.01328 31.8484 8.63471 33.2689 9.70018V2.55356H36.9978V25.1918H33.2689V23.6384C31.8486 24.7036 30.0727 25.3253 28.1642 25.3253C23.3702 25.3253 19.5084 21.4632 19.5084 16.6691C19.5084 11.8751 23.3702 8.01328 28.1642 8.01328ZM28.1642 21.7299C30.9606 21.7299 33.2247 19.4657 33.2247 16.6694C33.2247 13.8728 30.9608 11.609 28.1642 11.609C25.3677 11.609 23.1038 13.8728 23.1038 16.6694C23.1041 19.4654 25.3677 21.7299 28.1642 21.7299ZM9.12113 21.7299C11.9622 21.7299 14.2258 19.4657 14.2258 16.6694C14.2258 13.8728 11.9622 11.609 9.12113 11.609C6.32483 11.609 4.06069 13.8728 4.06069 16.6694C4.06069 19.4654 6.32511 21.7299 9.12113 21.7299ZM14.2261 8.05777H17.9549V25.1921H14.2261V23.6387C12.8058 24.7038 11.0302 25.3256 9.12142 25.3256C4.37183 25.3253 0.509766 21.4632 0.509766 16.6694C0.509766 11.8751 4.37183 8.01328 9.12113 8.01328C11.0299 8.01328 12.8055 8.63471 14.2258 9.70018L14.2261 8.05777ZM94.3926 6.06028C92.9279 6.06028 91.7295 4.95032 91.7295 3.39659C91.7295 1.88736 92.9279 0.77739 94.3926 0.77739C95.8577 0.77739 97.1005 1.88736 97.1005 3.39659C97.1008 4.95032 95.8577 6.06028 94.3926 6.06028ZM94.3926 1.22172C93.1942 1.22172 92.262 2.15401 92.262 3.39659C92.262 4.68423 93.1942 5.61624 94.3926 5.61624C95.591 5.61624 96.5678 4.68423 96.5678 3.39659C96.5678 2.15401 95.5913 1.22172 94.3926 1.22172ZM94.3926 3.21949C94.7919 3.21949 95.1472 3.175 95.1472 2.73095C95.1472 2.3314 94.7919 2.28719 94.4813 2.28719H93.8599V3.21949H94.3926ZM94.3926 3.66325L93.8602 3.61904V4.95032H93.3719V1.88764H94.5264C95.2807 1.88764 95.6361 2.1543 95.6361 2.77544C95.6361 3.3079 95.2807 3.53006 94.8367 3.57455L95.7245 4.9506H95.192L94.3926 3.66325Z" fill="#9E9E9E"/>
</g>
<defs>
<clipPath id="clip0_34_195">
<rect width="138.627" height="24.7866" fill="white" transform="translate(0.509766 0.769081)"/>
</clipPath>
</defs>
</svg>
