<svg width="1440" height="1024" viewBox="0 0 1440 1024" fill="none" xmlns="http://www.w3.org/2000/svg">
<mask id="path-1-inside-1_21_283" fill="white">
<path d="M0 7.81372H1440V79.8137H0V7.81372Z"/>
</mask>
<path d="M1440 78.8137H0V80.8137H1440V78.8137Z" fill="#F0F4F9" mask="url(#path-1-inside-1_21_283)"/>
<mask id="path-3-inside-2_21_283" fill="white">
<path d="M0 79.8137H1440V151.814H0V79.8137Z"/>
</mask>
<path d="M1440 150.814H0V152.814H1440V150.814Z" fill="#F0F4F9" mask="url(#path-3-inside-2_21_283)"/>
<mask id="path-5-inside-3_21_283" fill="white">
<path d="M0 151.814H1440V223.814H0V151.814Z"/>
</mask>
<path d="M1440 222.814H0V224.814H1440V222.814Z" fill="#F0F4F9" mask="url(#path-5-inside-3_21_283)"/>
<mask id="path-7-inside-4_21_283" fill="white">
<path d="M0 223.814H1440V295.814H0V223.814Z"/>
</mask>
<path d="M1440 294.814H0V296.814H1440V294.814Z" fill="#F0F4F9" mask="url(#path-7-inside-4_21_283)"/>
<mask id="path-9-inside-5_21_283" fill="white">
<path d="M0 295.814H1440V367.814H0V295.814Z"/>
</mask>
<path d="M1440 366.814H0V368.814H1440V366.814Z" fill="#F0F4F9" mask="url(#path-9-inside-5_21_283)"/>
<mask id="path-11-inside-6_21_283" fill="white">
<path d="M0 367.814H1440V439.814H0V367.814Z"/>
</mask>
<path d="M1440 438.814H0V440.814H1440V438.814Z" fill="#F0F4F9" mask="url(#path-11-inside-6_21_283)"/>
<mask id="path-13-inside-7_21_283" fill="white">
<path d="M0 439.814H1440V511.814H0V439.814Z"/>
</mask>
<path d="M1440 510.814H0V512.814H1440V510.814Z" fill="#F0F4F9" mask="url(#path-13-inside-7_21_283)"/>
<mask id="path-15-inside-8_21_283" fill="white">
<path d="M0 511.814H1440V583.814H0V511.814Z"/>
</mask>
<path d="M1440 582.814H0V584.814H1440V582.814Z" fill="#F0F4F9" mask="url(#path-15-inside-8_21_283)"/>
<mask id="path-17-inside-9_21_283" fill="white">
<path d="M0 583.814H1440V655.814H0V583.814Z"/>
</mask>
<path d="M1440 654.814H0V656.814H1440V654.814Z" fill="#F0F4F9" mask="url(#path-17-inside-9_21_283)"/>
<mask id="path-19-inside-10_21_283" fill="white">
<path d="M0 655.814H1440V727.814H0V655.814Z"/>
</mask>
<path d="M1440 726.814H0V728.814H1440V726.814Z" fill="#F0F4F9" mask="url(#path-19-inside-10_21_283)"/>
<mask id="path-21-inside-11_21_283" fill="white">
<path d="M0 727.814H1440V799.814H0V727.814Z"/>
</mask>
<path d="M1440 798.814H0V800.814H1440V798.814Z" fill="#F0F4F9" mask="url(#path-21-inside-11_21_283)"/>
<mask id="path-23-inside-12_21_283" fill="white">
<path d="M0 799.814H1440V871.814H0V799.814Z"/>
</mask>
<path d="M1440 870.814H0V872.814H1440V870.814Z" fill="#F0F4F9" mask="url(#path-23-inside-12_21_283)"/>
<mask id="path-25-inside-13_21_283" fill="white">
<path d="M0 871.814H1440V943.814H0V871.814Z"/>
</mask>
<path d="M1440 942.814H0V944.814H1440V942.814Z" fill="#F0F4F9" mask="url(#path-25-inside-13_21_283)"/>
<mask id="path-27-inside-14_21_283" fill="white">
<path d="M0 943.814H1440V1015.81H0V943.814Z"/>
</mask>
<path d="M1440 1014.81H0V1016.81H1440V1014.81Z" fill="#F0F4F9" mask="url(#path-27-inside-14_21_283)"/>
<mask id="path-29-inside-15_21_283" fill="white">
<path d="M114 7.76208H179.867V1024H114V7.76208Z"/>
</mask>
<path d="M178.867 7.76208V1024H180.867V7.76208H178.867ZM115 1024V7.76208H113V1024H115Z" fill="#F0F4F9" mask="url(#path-29-inside-15_21_283)"/>
<mask id="path-31-inside-16_21_283" fill="white">
<path d="M179.867 7.76208H245.734V1024H179.867V7.76208Z"/>
</mask>
<path d="M244.734 7.76208V1024H246.734V7.76208H244.734Z" fill="#F0F4F9" mask="url(#path-31-inside-16_21_283)"/>
<mask id="path-33-inside-17_21_283" fill="white">
<path d="M245.733 7.76208H311.6V1024H245.733V7.76208Z"/>
</mask>
<path d="M310.6 7.76208V1024H312.6V7.76208H310.6Z" fill="#F0F4F9" mask="url(#path-33-inside-17_21_283)"/>
<mask id="path-35-inside-18_21_283" fill="white">
<path d="M311.6 7.76208H377.467V1024H311.6V7.76208Z"/>
</mask>
<path d="M376.467 7.76208V1024H378.467V7.76208H376.467Z" fill="#F0F4F9" mask="url(#path-35-inside-18_21_283)"/>
<mask id="path-37-inside-19_21_283" fill="white">
<path d="M377.467 7.76208H443.333V1024H377.467V7.76208Z"/>
</mask>
<path d="M442.333 7.76208V1024H444.333V7.76208H442.333Z" fill="#F0F4F9" mask="url(#path-37-inside-19_21_283)"/>
<mask id="path-39-inside-20_21_283" fill="white">
<path d="M443.333 7.76208H509.2V1024H443.333V7.76208Z"/>
</mask>
<path d="M508.2 7.76208V1024H510.2V7.76208H508.2Z" fill="#F0F4F9" mask="url(#path-39-inside-20_21_283)"/>
<mask id="path-41-inside-21_21_283" fill="white">
<path d="M509.2 7.76208H575.067V1024H509.2V7.76208Z"/>
</mask>
<path d="M574.067 7.76208V1024H576.067V7.76208H574.067Z" fill="#F0F4F9" mask="url(#path-41-inside-21_21_283)"/>
<mask id="path-43-inside-22_21_283" fill="white">
<path d="M575.066 7.76208H640.933V1024H575.066V7.76208Z"/>
</mask>
<path d="M639.933 7.76208V1024H641.933V7.76208H639.933Z" fill="#F0F4F9" mask="url(#path-43-inside-22_21_283)"/>
<mask id="path-45-inside-23_21_283" fill="white">
<path d="M640.934 7.76208H706.8V1024H640.934V7.76208Z"/>
</mask>
<path d="M705.8 7.76208V1024H707.8V7.76208H705.8Z" fill="#F0F4F9" mask="url(#path-45-inside-23_21_283)"/>
<mask id="path-47-inside-24_21_283" fill="white">
<path d="M706.8 7.76208H772.666V1024H706.8V7.76208Z"/>
</mask>
<path d="M771.666 7.76208V1024H773.666V7.76208H771.666Z" fill="#F0F4F9" mask="url(#path-47-inside-24_21_283)"/>
<mask id="path-49-inside-25_21_283" fill="white">
<path d="M772.667 7.76208H838.534V1024H772.667V7.76208Z"/>
</mask>
<path d="M837.534 7.76208V1024H839.534V7.76208H837.534Z" fill="#F0F4F9" mask="url(#path-49-inside-25_21_283)"/>
<mask id="path-51-inside-26_21_283" fill="white">
<path d="M838.534 7.76208H904.4V1024H838.534V7.76208Z"/>
</mask>
<path d="M903.4 7.76208V1024H905.4V7.76208H903.4Z" fill="#F0F4F9" mask="url(#path-51-inside-26_21_283)"/>
<mask id="path-53-inside-27_21_283" fill="white">
<path d="M904.4 7.76208H970.267V1024H904.4V7.76208Z"/>
</mask>
<path d="M969.267 7.76208V1024H971.267V7.76208H969.267Z" fill="#F0F4F9" mask="url(#path-53-inside-27_21_283)"/>
<mask id="path-55-inside-28_21_283" fill="white">
<path d="M970.266 7.76208H1036.13V1024H970.266V7.76208Z"/>
</mask>
<path d="M1035.13 7.76208V1024H1037.13V7.76208H1035.13Z" fill="#F0F4F9" mask="url(#path-55-inside-28_21_283)"/>
<mask id="path-57-inside-29_21_283" fill="white">
<path d="M1036.13 7.76208H1102V1024H1036.13V7.76208Z"/>
</mask>
<path d="M1101 7.76208V1024H1103V7.76208H1101Z" fill="#F0F4F9" mask="url(#path-57-inside-29_21_283)"/>
<mask id="path-59-inside-30_21_283" fill="white">
<path d="M-18 0H47V1009.28H-18V0Z"/>
</mask>
<path d="M46 0V1009.28H48V0H46ZM-17 1009.28V0H-19V1009.28H-17Z" fill="#F0F4F9" mask="url(#path-59-inside-30_21_283)"/>
<mask id="path-61-inside-31_21_283" fill="white">
<path d="M1100 7.94714H1168V1017.23H1100V7.94714Z"/>
</mask>
<path d="M1167 7.94714V1017.23H1169V7.94714H1167Z" fill="#F0F4F9" mask="url(#path-61-inside-31_21_283)"/>
<mask id="path-63-inside-32_21_283" fill="white">
<path d="M1168 7.94714H1236V1017.23H1168V7.94714Z"/>
</mask>
<path d="M1235 7.94714V1017.23H1237V7.94714H1235Z" fill="#F0F4F9" mask="url(#path-63-inside-32_21_283)"/>
<mask id="path-65-inside-33_21_283" fill="white">
<path d="M1236 7.94714H1304V1017.23H1236V7.94714Z"/>
</mask>
<path d="M1303 7.94714V1017.23H1305V7.94714H1303Z" fill="#F0F4F9" mask="url(#path-65-inside-33_21_283)"/>
<mask id="path-67-inside-34_21_283" fill="white">
<path d="M1304 7.94714H1372V1017.23H1304V7.94714Z"/>
</mask>
<path d="M1371 7.94714V1017.23H1373V7.94714H1371Z" fill="#F0F4F9" mask="url(#path-67-inside-34_21_283)"/>
<mask id="path-69-inside-35_21_283" fill="white">
<path d="M1372 7.94714H1440V1017.23H1372V7.94714Z"/>
</mask>
<path d="M1439 7.94714V1017.23H1441V7.94714H1439Z" fill="#F0F4F9" mask="url(#path-69-inside-35_21_283)"/>
</svg>
