<svg width="94" height="31" viewBox="0 0 94 31" fill="none" xmlns="http://www.w3.org/2000/svg">
<g clip-path="url(#clip0_34_167)">
<path d="M90.1673 18.5327L92.731 20.2419C91.8989 21.4675 89.9087 23.5703 86.4678 23.5703C82.1949 23.5703 79.0127 20.2644 79.0127 16.0589C79.0127 11.5836 82.2286 8.54755 86.108 8.54755C90.0099 8.54755 91.9214 11.651 92.5399 13.3265L92.8772 14.1811L82.8246 18.3415C83.5892 19.8483 84.7811 20.6129 86.4678 20.6129C88.1545 20.6129 89.3239 19.7808 90.1673 18.5327ZM82.2849 15.8228L88.9979 13.0341C88.6268 12.1008 87.5248 11.4374 86.2092 11.4374C84.5338 11.4374 82.2062 12.9217 82.2849 15.8228Z" fill="#9E9E9E"/>
<path d="M74.166 0.889984H77.4044V22.8843H74.166V0.889984Z" fill="#9E9E9E"/>
<path d="M69.0607 9.13229H72.1867V22.4908C72.1867 28.0344 68.9146 30.317 65.0464 30.317C61.4032 30.317 59.2105 27.8657 58.3897 25.8754L61.257 24.6835C61.7743 25.9091 63.0224 27.3597 65.0464 27.3597C67.5315 27.3597 69.0607 25.8192 69.0607 22.9406V21.8611H68.9483C68.2062 22.7607 66.7893 23.5703 64.9902 23.5703C61.2345 23.5703 57.7937 20.2981 57.7937 16.0814C57.7937 11.8422 61.2345 8.53633 64.9902 8.53633C66.7781 8.53633 68.2062 9.33469 68.9483 10.2118H69.0607V9.13229ZM69.2856 16.0814C69.2856 13.4277 67.5202 11.4936 65.2713 11.4936C62.9999 11.4936 61.0884 13.4277 61.0884 16.0814C61.0884 18.7014 62.9999 20.6017 65.2713 20.6017C67.5202 20.613 69.2856 18.7014 69.2856 16.0814Z" fill="#9E9E9E"/>
<path d="M40.0166 16.0251C40.0166 20.3543 36.6432 23.5365 32.5053 23.5365C28.3673 23.5365 24.9939 20.3431 24.9939 16.0251C24.9939 11.6735 28.3673 8.50255 32.5053 8.50255C36.6432 8.50255 40.0166 11.6735 40.0166 16.0251ZM36.7332 16.0251C36.7332 13.3265 34.7767 11.4711 32.5053 11.4711C30.2339 11.4711 28.2773 13.3265 28.2773 16.0251C28.2773 18.7014 30.2339 20.5792 32.5053 20.5792C34.7767 20.5792 36.7332 18.7014 36.7332 16.0251Z" fill="#9E9E9E"/>
<path d="M56.4221 16.0589C56.4221 20.3881 53.0488 23.5703 48.9108 23.5703C44.7728 23.5703 41.3994 20.3881 41.3994 16.0589C41.3994 11.7073 44.7728 8.54755 48.9108 8.54755C53.0488 8.54755 56.4221 11.696 56.4221 16.0589ZM53.1275 16.0589C53.1275 13.3602 51.1709 11.5049 48.8995 11.5049C46.6281 11.5049 44.6716 13.3602 44.6716 16.0589C44.6716 18.7351 46.6281 20.6129 48.8995 20.6129C51.1822 20.6129 53.1275 18.7239 53.1275 16.0589Z" fill="#9E9E9E"/>
<path d="M12.647 20.2757C7.93549 20.2757 4.24728 16.475 4.24728 11.7635C4.24728 7.05207 7.93549 3.25142 12.647 3.25142C15.1882 3.25142 17.0436 4.25218 18.4154 5.53406L20.6756 3.27391C18.764 1.44105 16.2115 0.0467224 12.647 0.0467224C6.19259 0.0467224 0.761475 5.30917 0.761475 11.7635C0.761475 18.2179 6.19259 23.4804 12.647 23.4804C16.1328 23.4804 18.764 22.3334 20.8217 20.1969C22.9357 18.083 23.5879 15.1144 23.5879 12.7081C23.5879 11.9547 23.4979 11.1788 23.3967 10.6053H12.647V13.7313H20.3045C20.0796 15.6879 19.4612 17.026 18.5503 17.9368C17.4484 19.05 15.7055 20.2757 12.647 20.2757Z" fill="#9E9E9E"/>
</g>
<defs>
<clipPath id="clip0_34_167">
<rect width="92.4183" height="30.3248" fill="white" transform="translate(0.627441)"/>
</clipPath>
</defs>
</svg>
