<svg width="139" height="31" viewBox="0 0 139 31" fill="none" xmlns="http://www.w3.org/2000/svg">
<g clip-path="url(#clip0_34_159)">
<path d="M138.628 13.6593V11.2213H135.6V7.43108L135.498 7.46242L132.655 8.33241L132.599 8.34951V11.2213H128.11V9.62163C128.11 8.8767 128.277 8.3066 128.605 7.92642C128.931 7.55076 129.398 7.35983 129.992 7.35983C130.42 7.35983 130.863 7.46058 131.308 7.65922L131.42 7.709V5.14145L131.367 5.12217C130.952 4.97282 130.386 4.89755 129.686 4.89755C128.803 4.89755 128 5.08965 127.3 5.4705C126.6 5.85186 126.049 6.39631 125.664 7.08861C125.279 7.78008 125.084 8.57866 125.084 9.46239V11.2213H122.976V13.6593H125.084V23.93H128.11V13.6593H132.599V20.1862C132.599 22.8743 133.867 24.2366 136.367 24.2366C136.778 24.2366 137.21 24.1883 137.652 24.0939C138.102 23.9972 138.408 23.9005 138.588 23.7972L138.628 23.7738V21.3132L138.505 21.3946C138.34 21.5043 138.136 21.5936 137.896 21.66C137.655 21.7277 137.454 21.7617 137.298 21.7617C136.712 21.7617 136.279 21.6038 136.01 21.2924C135.738 20.9781 135.6 20.4283 135.6 19.6593V13.6593H138.628ZM116.218 21.762C115.119 21.762 114.253 21.3977 113.643 20.6803C113.029 19.9591 112.718 18.9311 112.718 17.6249C112.718 16.2774 113.029 15.2226 113.643 14.4888C114.254 13.7598 115.112 13.3898 116.193 13.3898C117.242 13.3898 118.078 13.7432 118.676 14.4407C119.277 15.1417 119.583 16.188 119.583 17.5513C119.583 18.9314 119.296 19.9915 118.73 20.7005C118.168 21.4044 117.323 21.762 116.218 21.762ZM116.353 10.9151C114.257 10.9151 112.592 11.5291 111.406 12.7402C110.22 13.9515 109.618 15.6276 109.618 17.7226C109.618 19.7124 110.205 21.3129 111.363 22.4789C112.521 23.6454 114.097 24.2363 116.046 24.2363C118.077 24.2363 119.709 23.6137 120.895 22.3859C122.081 21.1592 122.682 19.499 122.682 17.4529C122.682 15.432 122.118 13.8196 121.006 12.6613C119.892 11.5025 118.326 10.9151 116.353 10.9151ZM104.739 10.915C103.313 10.915 102.134 11.2796 101.233 11.9986C100.327 12.7217 99.8676 13.6703 99.8676 14.8181C99.8676 15.4147 99.9668 15.9447 100.162 16.3941C100.359 16.8452 100.663 17.2422 101.066 17.5754C101.467 17.906 102.086 18.2523 102.906 18.6045C103.595 18.8881 104.109 19.1281 104.436 19.3172C104.755 19.5024 104.982 19.6888 105.109 19.8702C105.234 20.0477 105.297 20.2906 105.297 20.5907C105.297 21.4444 104.658 21.8598 103.342 21.8598C102.854 21.8598 102.297 21.758 101.687 21.5571C101.077 21.3564 100.507 21.0679 99.9931 20.698L99.8676 20.6079V23.5215L99.9137 23.5429C100.342 23.7406 100.882 23.9072 101.518 24.0384C102.153 24.1697 102.73 24.2366 103.232 24.2366C104.778 24.2366 106.024 23.8701 106.933 23.147C107.848 22.4188 108.311 21.4479 108.311 20.2603C108.311 19.4037 108.062 18.669 107.57 18.0766C107.081 17.4889 106.233 16.9495 105.051 16.4726C104.108 16.0944 103.505 15.7804 103.256 15.5396C103.016 15.3067 102.894 14.9775 102.894 14.5606C102.894 14.191 103.044 13.895 103.353 13.6551C103.665 13.414 104.098 13.2915 104.641 13.2915C105.145 13.2915 105.661 13.3711 106.174 13.5272C106.687 13.6833 107.137 13.8923 107.513 14.1481L107.637 14.2326V11.4687L107.589 11.4483C107.243 11.2996 106.785 11.1724 106.23 11.0691C105.677 10.9668 105.175 10.915 104.739 10.915ZM91.978 21.762C90.8799 21.762 90.0136 21.3977 89.4034 20.6803C88.7892 19.9591 88.4786 18.9314 88.4786 17.6249C88.4786 16.2774 88.7896 15.2226 89.4041 14.4888C90.0143 13.7598 90.8718 13.3898 91.9537 13.3898C93.0027 13.3898 93.838 13.7432 94.4364 14.4407C95.0379 15.1417 95.343 16.188 95.343 17.5513C95.343 18.9314 95.0558 19.9915 94.4899 20.7005C93.928 21.4044 93.0834 21.762 91.978 21.762ZM92.1131 10.9151C90.0169 10.9151 88.3524 11.5291 87.1663 12.7402C85.9803 13.9515 85.3785 15.6276 85.3785 17.7226C85.3785 19.7132 85.9659 21.3129 87.1237 22.4789C88.2815 23.6454 89.857 24.2363 91.8065 24.2363C93.8375 24.2363 95.4694 23.6137 96.6557 22.3859C97.8415 21.1592 98.4427 19.499 98.4427 17.4529C98.4427 15.432 97.8787 13.8196 96.7658 12.6613C95.6523 11.5025 94.0868 10.9151 92.1131 10.9151ZM80.7846 13.4221V11.2213H77.7951V23.9297H80.7846V17.4289C80.7846 16.3234 81.0352 15.4153 81.5297 14.7294C82.018 14.0517 82.6688 13.7082 83.4631 13.7082C83.7323 13.7082 84.0346 13.7526 84.362 13.8405C84.686 13.9278 84.9207 14.0225 85.0591 14.1223L85.1847 14.2133V11.1995L85.1362 11.1787C84.8578 11.0604 84.464 11.0007 83.9657 11.0007C83.2145 11.0007 82.5422 11.2421 81.9664 11.7173C81.461 12.135 81.0956 12.7078 80.8163 13.4221H80.7846ZM72.4417 10.915C71.0703 10.915 69.847 11.2092 68.8064 11.7889C67.7637 12.3699 66.9574 13.1995 66.4088 14.2544C65.8627 15.3067 65.5854 16.5359 65.5854 17.9066C65.5854 19.1073 65.8543 20.2093 66.3857 21.1804C66.9174 22.1531 67.67 22.9142 68.6226 23.442C69.5739 23.9692 70.6734 24.2366 71.8907 24.2366C73.3114 24.2366 74.5243 23.9525 75.4969 23.3924L75.5361 23.3698V20.6311L75.4106 20.7228C74.97 21.0436 74.4777 21.2997 73.948 21.4843C73.4196 21.6687 72.9379 21.7619 72.5156 21.7619C71.3426 21.7619 70.401 21.3948 69.7174 20.6713C69.0323 19.9467 68.685 18.9293 68.685 17.649C68.685 16.3606 69.0472 15.3171 69.7612 14.547C70.4727 13.7793 71.4162 13.3899 72.5649 13.3899C73.5475 13.3899 74.505 13.7226 75.4109 14.3797L75.5361 14.4708V11.5851L75.4957 11.5623C75.1548 11.3715 74.6899 11.2139 74.1126 11.0944C73.538 10.9752 72.9759 10.915 72.4417 10.915ZM63.5265 11.2213H60.537V23.9297H63.5265V11.2213ZM62.0623 5.80747C61.5703 5.80747 61.1412 5.97493 60.7886 6.30683C60.4346 6.63974 60.2549 7.05881 60.2549 7.55331C60.2549 8.0401 60.4324 8.45146 60.7829 8.77548C61.1313 9.0985 61.5617 9.26227 62.0623 9.26227C62.5626 9.26227 62.9948 9.0985 63.3473 8.77599C63.7022 8.45146 63.882 8.0401 63.882 7.55331C63.882 7.07607 63.707 6.6612 63.3619 6.32024C63.0172 5.97996 62.5799 5.80747 62.0623 5.80747ZM54.6035 10.2837V23.9296H57.6543V6.19663H53.432L48.0649 19.3681L42.8565 6.19663H38.4622V23.9296H41.3291V10.2824H41.4277L46.9275 23.9296H49.0911L54.5051 10.2837H54.6035Z" fill="#9E9E9E"/>
<path d="M14.063 14.3337H0V0.270737H14.063V14.3337Z" fill="#9E9E9E"/>
<path d="M29.5901 14.3337H15.5273V0.270721H29.5901V14.3337Z" fill="#9E9E9E"/>
<path d="M14.0626 29.8664H0V15.8034H14.0626V29.8664Z" fill="#9E9E9E"/>
<path d="M29.5901 29.8664H15.5273V15.8034H29.5901V29.8664Z" fill="#9E9E9E"/>
</g>
<defs>
<clipPath id="clip0_34_159">
<rect width="138.627" height="29.7832" fill="white" transform="translate(0 0.270737)"/>
</clipPath>
</defs>
</svg>
