<svg width="1440" height="764" viewBox="0 0 1440 764" fill="none" xmlns="http://www.w3.org/2000/svg">
<mask id="path-1-inside-1_50_246" fill="white">
<path d="M9 -50.1865H1449V21.8135H9V-50.1865Z"/>
</mask>
<path d="M1449 20.8135H9V22.8135H1449V20.8135Z" fill="#F0F4F9" mask="url(#path-1-inside-1_50_246)"/>
<mask id="path-3-inside-2_50_246" fill="white">
<path d="M9 21.8135H1449V93.8135H9V21.8135Z"/>
</mask>
<path d="M1449 92.8135H9V94.8135H1449V92.8135Z" fill="#F0F4F9" mask="url(#path-3-inside-2_50_246)"/>
<mask id="path-5-inside-3_50_246" fill="white">
<path d="M9 93.8135H1449V165.813H9V93.8135Z"/>
</mask>
<path d="M1449 164.813H9V166.813H1449V164.813Z" fill="#F0F4F9" mask="url(#path-5-inside-3_50_246)"/>
<mask id="path-7-inside-4_50_246" fill="white">
<path d="M9 165.813H1449V237.813H9V165.813Z"/>
</mask>
<path d="M1449 236.813H9V238.813H1449V236.813Z" fill="#F0F4F9" mask="url(#path-7-inside-4_50_246)"/>
<mask id="path-9-inside-5_50_246" fill="white">
<path d="M9 237.813H1449V309.813H9V237.813Z"/>
</mask>
<path d="M1449 308.813H9V310.813H1449V308.813Z" fill="#F0F4F9" mask="url(#path-9-inside-5_50_246)"/>
<mask id="path-11-inside-6_50_246" fill="white">
<path d="M9 309.813H1449V381.813H9V309.813Z"/>
</mask>
<path d="M1449 380.813H9V382.813H1449V380.813Z" fill="#F0F4F9" mask="url(#path-11-inside-6_50_246)"/>
<mask id="path-13-inside-7_50_246" fill="white">
<path d="M9 381.813H1449V453.813H9V381.813Z"/>
</mask>
<path d="M1449 452.813H9V454.813H1449V452.813Z" fill="#F0F4F9" mask="url(#path-13-inside-7_50_246)"/>
<mask id="path-15-inside-8_50_246" fill="white">
<path d="M9 453.813H1449V525.813H9V453.813Z"/>
</mask>
<path d="M1449 524.813H9V526.813H1449V524.813Z" fill="#F0F4F9" mask="url(#path-15-inside-8_50_246)"/>
<mask id="path-17-inside-9_50_246" fill="white">
<path d="M9 525.813H1449V597.813H9V525.813Z"/>
</mask>
<path d="M1449 596.813H9V598.813H1449V596.813Z" fill="#F0F4F9" mask="url(#path-17-inside-9_50_246)"/>
<mask id="path-19-inside-10_50_246" fill="white">
<path d="M9 597.813H1449V669.813H9V597.813Z"/>
</mask>
<path d="M1449 668.813H9V670.813H1449V668.813Z" fill="#F0F4F9" mask="url(#path-19-inside-10_50_246)"/>
<mask id="path-21-inside-11_50_246" fill="white">
<path d="M9 669.813H1449V741.813H9V669.813Z"/>
</mask>
<path d="M1449 740.813H9V742.813H1449V740.813Z" fill="#F0F4F9" mask="url(#path-21-inside-11_50_246)"/>
<mask id="path-23-inside-12_50_246" fill="white">
<path d="M9 741.813H1449V813.813H9V741.813Z"/>
</mask>
<path d="M1449 812.813H9V814.813H1449V812.813Z" fill="#F0F4F9" mask="url(#path-23-inside-12_50_246)"/>
<mask id="path-25-inside-13_50_246" fill="white">
<path d="M123 -122.238H188.867V894H123V-122.238Z"/>
</mask>
<path d="M187.867 -122.238V894H189.867V-122.238H187.867ZM124 894V-122.238H122V894H124Z" fill="#F0F4F9" mask="url(#path-25-inside-13_50_246)"/>
<mask id="path-27-inside-14_50_246" fill="white">
<path d="M188.867 -122.238H254.734V894H188.867V-122.238Z"/>
</mask>
<path d="M253.734 -122.238V894H255.734V-122.238H253.734Z" fill="#F0F4F9" mask="url(#path-27-inside-14_50_246)"/>
<mask id="path-29-inside-15_50_246" fill="white">
<path d="M254.733 -122.238H320.6V894H254.733V-122.238Z"/>
</mask>
<path d="M319.6 -122.238V894H321.6V-122.238H319.6Z" fill="#F0F4F9" mask="url(#path-29-inside-15_50_246)"/>
<mask id="path-31-inside-16_50_246" fill="white">
<path d="M320.6 -122.238H386.467V894H320.6V-122.238Z"/>
</mask>
<path d="M385.467 -122.238V894H387.467V-122.238H385.467Z" fill="#F0F4F9" mask="url(#path-31-inside-16_50_246)"/>
<mask id="path-33-inside-17_50_246" fill="white">
<path d="M386.467 -122.238H452.333V894H386.467V-122.238Z"/>
</mask>
<path d="M451.333 -122.238V894H453.333V-122.238H451.333Z" fill="#F0F4F9" mask="url(#path-33-inside-17_50_246)"/>
<mask id="path-35-inside-18_50_246" fill="white">
<path d="M452.333 -122.238H518.2V894H452.333V-122.238Z"/>
</mask>
<path d="M517.2 -122.238V894H519.2V-122.238H517.2Z" fill="#F0F4F9" mask="url(#path-35-inside-18_50_246)"/>
<mask id="path-37-inside-19_50_246" fill="white">
<path d="M518.2 -122.238H584.067V894H518.2V-122.238Z"/>
</mask>
<path d="M583.067 -122.238V894H585.067V-122.238H583.067Z" fill="#F0F4F9" mask="url(#path-37-inside-19_50_246)"/>
<mask id="path-39-inside-20_50_246" fill="white">
<path d="M584.066 -122.238H649.933V894H584.066V-122.238Z"/>
</mask>
<path d="M648.933 -122.238V894H650.933V-122.238H648.933Z" fill="#F0F4F9" mask="url(#path-39-inside-20_50_246)"/>
<mask id="path-41-inside-21_50_246" fill="white">
<path d="M649.934 -122.238H715.8V894H649.934V-122.238Z"/>
</mask>
<path d="M714.8 -122.238V894H716.8V-122.238H714.8Z" fill="#F0F4F9" mask="url(#path-41-inside-21_50_246)"/>
<mask id="path-43-inside-22_50_246" fill="white">
<path d="M715.8 -122.238H781.666V894H715.8V-122.238Z"/>
</mask>
<path d="M780.666 -122.238V894H782.666V-122.238H780.666Z" fill="#F0F4F9" mask="url(#path-43-inside-22_50_246)"/>
<mask id="path-45-inside-23_50_246" fill="white">
<path d="M781.667 -122.238H847.534V894H781.667V-122.238Z"/>
</mask>
<path d="M846.534 -122.238V894H848.534V-122.238H846.534Z" fill="#F0F4F9" mask="url(#path-45-inside-23_50_246)"/>
<mask id="path-47-inside-24_50_246" fill="white">
<path d="M847.534 -122.238H913.4V894H847.534V-122.238Z"/>
</mask>
<path d="M912.4 -122.238V894H914.4V-122.238H912.4Z" fill="#F0F4F9" mask="url(#path-47-inside-24_50_246)"/>
<mask id="path-49-inside-25_50_246" fill="white">
<path d="M913.4 -122.238H979.267V894H913.4V-122.238Z"/>
</mask>
<path d="M978.267 -122.238V894H980.267V-122.238H978.267Z" fill="#F0F4F9" mask="url(#path-49-inside-25_50_246)"/>
<mask id="path-51-inside-26_50_246" fill="white">
<path d="M979.266 -122.238H1045.13V894H979.266V-122.238Z"/>
</mask>
<path d="M1044.13 -122.238V894H1046.13V-122.238H1044.13Z" fill="#F0F4F9" mask="url(#path-51-inside-26_50_246)"/>
<mask id="path-53-inside-27_50_246" fill="white">
<path d="M1045.13 -122.238H1111V894H1045.13V-122.238Z"/>
</mask>
<path d="M1110 -122.238V894H1112V-122.238H1110Z" fill="#F0F4F9" mask="url(#path-53-inside-27_50_246)"/>
<mask id="path-55-inside-28_50_246" fill="white">
<path d="M-9 -130H56V879.284H-9V-130Z"/>
</mask>
<path d="M55 -130V879.284H57V-130H55ZM-8 879.284V-130H-10V879.284H-8Z" fill="#F0F4F9" mask="url(#path-55-inside-28_50_246)"/>
<mask id="path-57-inside-29_50_246" fill="white">
<path d="M1109 -122.053H1177V887.231H1109V-122.053Z"/>
</mask>
<path d="M1176 -122.053V887.231H1178V-122.053H1176Z" fill="#F0F4F9" mask="url(#path-57-inside-29_50_246)"/>
<mask id="path-59-inside-30_50_246" fill="white">
<path d="M1177 -122.053H1245V887.231H1177V-122.053Z"/>
</mask>
<path d="M1244 -122.053V887.231H1246V-122.053H1244Z" fill="#F0F4F9" mask="url(#path-59-inside-30_50_246)"/>
<mask id="path-61-inside-31_50_246" fill="white">
<path d="M1245 -122.053H1313V887.231H1245V-122.053Z"/>
</mask>
<path d="M1312 -122.053V887.231H1314V-122.053H1312Z" fill="#F0F4F9" mask="url(#path-61-inside-31_50_246)"/>
<mask id="path-63-inside-32_50_246" fill="white">
<path d="M1313 -122.053H1381V887.231H1313V-122.053Z"/>
</mask>
<path d="M1380 -122.053V887.231H1382V-122.053H1380Z" fill="#F0F4F9" mask="url(#path-63-inside-32_50_246)"/>
<mask id="path-65-inside-33_50_246" fill="white">
<path d="M1381 -122.053H1449V887.231H1381V-122.053Z"/>
</mask>
<path d="M1448 -122.053V887.231H1450V-122.053H1448Z" fill="#F0F4F9" mask="url(#path-65-inside-33_50_246)"/>
</svg>
