<svg width="70" height="25" viewBox="0 0 70 25" fill="none" xmlns="http://www.w3.org/2000/svg">
<path d="M4.03375 17.3162C4.32666 18.0936 4.7322 18.7582 5.25042 19.3102C5.76864 19.8622 6.38258 20.2846 7.09224 20.5775C7.80198 20.8704 8.57363 21.0169 9.40728 21.0169C10.2184 21.0169 10.9788 20.8648 11.6885 20.5606C12.3982 20.2563 13.0178 19.8283 13.5472 19.2764C14.0767 18.7243 14.4879 18.0654 14.7808 17.2993C15.0737 16.5333 15.2201 15.6772 15.2201 14.7309V0.131172H18.7687V23.788H15.2539V21.5913C14.4654 22.4249 13.5359 23.067 12.4658 23.5177C11.3955 23.9683 10.2409 24.1936 9.00175 24.1936C7.73999 24.1936 6.5628 23.9739 5.47005 23.5345C4.37737 23.0952 3.43103 22.4701 2.63126 21.6589C1.83149 20.8478 1.20057 19.8735 0.738733 18.7356C0.276818 17.5979 0.0458984 16.3306 0.0458984 14.9336V0.131172H3.59442V14.7309C3.59442 15.6772 3.74084 16.5389 4.03375 17.3162ZM24.8853 0.131172V8.74902C25.6739 7.96046 26.5864 7.3353 27.6228 6.87339C28.6592 6.41148 29.7857 6.18056 31.0023 6.18056C32.2641 6.18056 33.4468 6.41708 34.5508 6.89022C35.6548 7.36335 36.6123 8.00548 37.4234 8.81662C38.2346 9.62775 38.8767 10.5852 39.3498 11.6892C39.823 12.7933 40.0595 13.9648 40.0595 15.204C40.0595 16.4431 39.823 17.6091 39.3498 18.7018C38.8767 19.7945 38.2346 20.7465 37.4234 21.5574C36.6123 22.3686 35.6548 23.0107 34.5508 23.4838C33.4468 23.957 32.264 24.1935 31.0023 24.1935C29.7857 24.1935 28.6536 23.9626 27.6059 23.5007C26.5582 23.0388 25.6401 22.4136 24.8515 21.625V23.788H21.472V0.131172H24.8853ZM25.274 17.5359C25.5781 18.2569 26.0006 18.8877 26.5413 19.4285C27.0821 19.9692 27.7129 20.3973 28.4339 20.7127C29.1549 21.0282 29.9321 21.1859 30.7658 21.1859C31.5769 21.1859 32.3429 21.0282 33.0639 20.7127C33.7848 20.3973 34.41 19.9693 34.9395 19.4285C35.469 18.8878 35.8914 18.2569 36.2068 17.5359C36.5223 16.8149 36.68 16.0376 36.68 15.204C36.68 14.3704 36.5223 13.5874 36.2068 12.8552C35.8914 12.1229 35.469 11.4865 34.9395 10.9457C34.41 10.4051 33.7849 9.98258 33.0639 9.67845C32.3428 9.37432 31.5769 9.22215 30.7658 9.22215C29.9547 9.22215 29.1887 9.37425 28.4677 9.67845C27.7468 9.98266 27.1159 10.4051 26.5751 10.9457C26.0345 11.4865 25.6064 12.1229 25.2909 12.8552C24.9755 13.5874 24.8178 14.3704 24.8178 15.204C24.8177 16.0376 24.9698 16.8149 25.274 17.5359ZM41.9855 11.7231C42.4361 10.6416 43.0558 9.68974 43.8442 8.86739C44.6327 8.04504 45.5678 7.3973 46.6493 6.92416C47.7308 6.45103 48.9024 6.21451 50.164 6.21451C51.4032 6.21451 52.5523 6.43982 53.6112 6.89036C54.6701 7.34099 55.5826 7.96622 56.3486 8.76607C57.1147 9.56583 57.7118 10.5122 58.1397 11.6049C58.5679 12.6976 58.7819 13.8861 58.7819 15.1704V16.2856H44.7568C44.8695 16.9841 45.0948 17.6318 45.4327 18.2288C45.7707 18.8258 46.1931 19.344 46.7 19.7834C47.2069 20.2228 47.7815 20.5664 48.4236 20.8141C49.0657 21.062 49.7472 21.1859 50.4682 21.1859C52.5186 21.1859 54.1745 20.341 55.4362 18.6512L57.9033 20.4761C57.0471 21.6252 55.9883 22.5264 54.7266 23.1798C53.4648 23.8331 52.0454 24.1599 50.4683 24.1599C49.184 24.1599 47.9844 23.9345 46.8691 23.4839C45.7538 23.0334 44.785 22.4025 43.9627 21.5913C43.1403 20.7802 42.4926 19.8283 42.0195 18.7356C41.5463 17.6429 41.3097 16.4544 41.3097 15.1702C41.3096 13.9536 41.535 12.8045 41.9855 11.7231ZM46.7338 10.3881C45.7763 11.188 45.1398 12.2525 44.8244 13.5818H55.3348C55.0419 12.2525 54.4167 11.188 53.4591 10.3881C52.5016 9.58834 51.3807 9.18842 50.0965 9.18842C48.8122 9.18842 47.6914 9.58834 46.7338 10.3881ZM65.169 10.7767C64.4481 11.5653 64.0876 12.6355 64.0876 13.9873V23.7881H60.6742V6.55236H64.0537V8.68149C64.4818 7.98305 65.0394 7.43102 65.7266 7.02549C66.4137 6.61989 67.2305 6.41708 68.1768 6.41708H69.3596V9.59388H67.9402C66.8137 9.59395 65.89 9.98819 65.169 10.7767Z" fill="#9E9E9E"/>
</svg>
