<svg width="40" height="40" viewBox="0 0 40 40" fill="none" xmlns="http://www.w3.org/2000/svg">
<rect width="40" height="40" rx="10" fill="#E9872D" fill-opacity="0.1"/>
<path d="M25.537 9.557C25.6741 9.61369 25.7914 9.7098 25.8739 9.83316C25.9564 9.95653 26.0004 10.1016 26.0005 10.25V14H29.7505C29.899 13.9997 30.0443 14.0436 30.1678 14.126C30.2914 14.2084 30.3878 14.3256 30.4446 14.4628C30.5015 14.6 30.5164 14.751 30.4873 14.8967C30.4583 15.0423 30.3866 15.1761 30.2815 15.281L27.2815 18.281C27.2117 18.3506 27.1289 18.4058 27.0378 18.4433C26.9466 18.4809 26.849 18.5002 26.7505 18.5H22.561L21.451 19.6115C21.5106 19.8339 21.5182 20.067 21.4733 20.2928C21.4283 20.5187 21.332 20.7311 21.1917 20.9137C21.0515 21.0963 20.8711 21.2442 20.6645 21.3458C20.4579 21.4475 20.2307 21.5003 20.0005 21.5C19.6026 21.5 19.2211 21.342 18.9398 21.0607C18.6585 20.7794 18.5005 20.3978 18.5005 20L18.502 19.931C18.5122 19.7069 18.5727 19.488 18.6787 19.2904C18.7848 19.0928 18.9339 18.9214 19.1149 18.789C19.296 18.6566 19.5044 18.5665 19.7249 18.5253C19.9454 18.4841 20.1723 18.4929 20.389 18.551L21.5005 17.4395V13.25C21.5003 13.1514 21.5195 13.0538 21.5571 12.9627C21.5947 12.8716 21.6499 12.7888 21.7195 12.719L24.7195 9.719C24.8244 9.61418 24.9581 9.54284 25.1036 9.514C25.2492 9.48517 25.4 9.50013 25.537 9.557ZM26.44 17L27.94 15.5H25.2505C25.0515 15.5 24.8608 15.421 24.7201 15.2803C24.5795 15.1397 24.5005 14.9489 24.5005 14.75V12.0605L23.0005 13.5605V17H26.44ZM28.918 18.764C28.974 19.169 29.002 19.5815 29.002 20.0015C29.0015 21.8341 28.4415 23.623 27.397 25.1288C26.3525 26.6346 24.8731 27.7857 23.1568 28.4281C21.4404 29.0705 19.5689 29.1736 17.7923 28.7237C16.0158 28.2737 14.4189 27.2922 13.2153 25.9102C12.0116 24.5283 11.2585 22.8118 11.0567 20.9903C10.8549 19.1688 11.2139 17.3291 12.0858 15.7172C12.9577 14.1053 14.301 12.7979 15.9359 11.97C17.5709 11.142 19.4196 10.8329 21.235 11.084L20.6605 11.6585C20.4227 11.8963 20.2412 12.1844 20.1295 12.5015L20.0005 12.5C18.5117 12.5002 17.0566 12.9435 15.8206 13.7735C14.5846 14.6034 13.6235 15.7825 13.0599 17.1605C12.4962 18.5384 12.3554 20.053 12.6554 21.5113C12.9554 22.9695 13.6826 24.3055 14.7445 25.3491C15.8063 26.3927 17.1547 27.0966 18.618 27.3713C20.0812 27.6459 21.5931 27.4789 22.9611 26.8914C24.3291 26.3039 25.4913 25.3226 26.2997 24.0723C27.1081 22.8221 27.5261 21.3596 27.5005 19.871C27.8164 19.7593 28.1034 19.5784 28.3405 19.3415L28.918 18.764ZM20.0005 14.75C18.9621 14.75 17.9471 15.0579 17.0837 15.6348C16.2204 16.2117 15.5475 17.0316 15.1501 17.9909C14.7527 18.9502 14.6488 20.0058 14.8513 21.0242C15.0539 22.0426 15.5539 22.9781 16.2882 23.7123C17.0224 24.4465 17.9578 24.9466 18.9762 25.1491C19.9946 25.3517 21.0502 25.2477 22.0095 24.8504C22.9689 24.453 23.7888 23.7801 24.3657 22.9167C24.9426 22.0534 25.2505 21.0384 25.2505 20H23.7505C23.7505 20.7417 23.5305 21.4667 23.1185 22.0834C22.7064 22.7001 22.1207 23.1807 21.4355 23.4645C20.7503 23.7484 19.9963 23.8226 19.2689 23.6779C18.5414 23.5333 17.8733 23.1761 17.3488 22.6517C16.8244 22.1272 16.4672 21.459 16.3225 20.7316C16.1778 20.0042 16.2521 19.2502 16.5359 18.5649C16.8197 17.8797 17.3004 17.294 17.9171 16.882C18.5338 16.4699 19.2588 16.25 20.0005 16.25V14.75Z" fill="#E9872D"/>
</svg>
