<svg width="1440" height="657" viewBox="0 0 1440 657" fill="none" xmlns="http://www.w3.org/2000/svg">
<path d="M-299.537 268.454L-306.405 248.157C-306.2 248.085 -284.064 240.422 -260.946 222.404C-230.684 198.816 -212.979 169.389 -208.324 134.939C-203.498 99.2232 -187.701 67.5079 -162.643 43.2221C-139.411 20.7068 -109.119 5.8647 -77.3487 1.42979C-46.2975 -2.90403 -15.759 2.65833 10.958 17.5172C40.0989 33.7234 63.5755 60.7396 78.8497 95.6457C103.503 151.986 144.628 187.407 201.081 200.922C243.867 211.165 279.984 204.415 280.345 204.346L284.461 225.374C282.834 225.692 244.094 233.051 196.934 221.961C169.064 215.407 144.016 203.746 122.487 187.303C95.6277 166.787 74.3303 138.835 59.1847 104.223C33.3059 45.0832 -16.6155 14.5841 -74.3777 22.6497C-123.648 29.527 -177.599 67.8009 -187.057 137.804C-192.444 177.675 -213.639 212.932 -248.35 239.765C-274.269 259.802 -298.518 268.11 -299.537 268.454Z" fill="#00AD57"/>
<path d="M273.23 210.559C273.23 210.559 123.591 235.689 64.8845 90.9404C6.17898 -53.8086 -166.084 36.028 -200.387 119.882C-234.69 203.734 -308 237.881 -308 237.881" stroke="#28A49D" stroke-width="1.77325" stroke-linecap="round" stroke-linejoin="round"/>
<path d="M1127.25 535.935C1106.89 535.935 1093.16 534.983 1091.33 534.849L1093.24 508.836C1094.62 508.938 1223.22 517.768 1291.83 478.754C1283.4 472.58 1275.58 465.619 1268.47 457.967C1244.51 432.088 1234.36 404.133 1241.32 383.188C1247.4 364.872 1260.49 354.347 1277.23 354.313H1277.3C1303.12 354.313 1332.96 380.608 1343.87 412.976C1351.45 435.482 1348.76 456.888 1336.7 474.294C1355.69 482.035 1377.18 485.351 1399.09 479.957C1448.72 467.74 1487.78 413.686 1512.03 323.64L1537.26 330.411C1523.12 382.904 1503.91 424.574 1480.16 454.265C1458.62 481.2 1433.44 498.365 1405.34 505.283C1380.6 511.373 1353.83 509.164 1327.94 498.891C1324.15 497.387 1320.39 495.716 1316.67 493.876C1264.93 530.329 1176.62 535.935 1127.25 535.935ZM1277.31 380.397H1277.28C1275.03 380.4 1269.76 380.412 1266.11 391.401C1263 400.777 1268.45 419.522 1287.65 440.262C1295.32 448.477 1303.95 455.75 1313.35 461.925C1324.44 448.102 1322.94 432.688 1319.1 421.291C1311.34 398.245 1290.28 380.397 1277.31 380.397Z" fill="#00AD57"/>
<path d="M1329.09 467.803C1365.35 416.068 1279.08 335.966 1260.53 391.791C1240.3 452.673 1442.22 617.206 1518.37 334.433" stroke="#28A49D" stroke-width="1.4777" stroke-linecap="round" stroke-linejoin="round"/>
<path d="M1119.15 637.552C1119.15 640.036 1118.66 642.496 1117.7 644.791C1116.75 647.085 1115.36 649.17 1113.6 650.927C1111.84 652.683 1109.75 654.076 1107.45 655.027C1105.15 655.977 1102.69 656.466 1100.2 656.466H329.304C324.279 656.466 319.461 654.474 315.908 650.927C312.355 647.38 310.359 642.569 310.359 637.552C310.359 635.069 310.849 632.609 311.801 630.314C312.753 628.019 314.149 625.934 315.908 624.178C317.667 622.421 319.755 621.028 322.054 620.077C324.352 619.127 326.816 618.637 329.304 618.637H1100.2C1102.69 618.637 1105.15 619.127 1107.45 620.077C1109.75 621.028 1111.84 622.421 1113.6 624.178C1115.36 625.934 1116.75 628.019 1117.7 630.314C1118.66 632.609 1119.15 635.068 1119.15 637.552Z" fill="#00AD57" fill-opacity="0.2"/>
<path d="M661.359 145.896L697.39 136.986C697.39 136.986 705.65 142.913 698.567 151.715C698.156 152.225 661.359 145.896 661.359 145.896Z" fill="#00AD57"/>
<path d="M661.359 145.896L697.39 136.986C697.39 136.986 705.65 142.913 698.567 151.715C698.156 152.225 661.359 145.896 661.359 145.896Z" stroke="#28A49D" stroke-width="0.886623" stroke-miterlimit="10"/>
<path d="M656.875 125.868L680.685 97.437C680.685 97.437 690.859 97.3502 690.346 108.63C690.315 109.283 656.875 125.868 656.875 125.868Z" fill="#00AD57"/>
<path d="M656.875 125.868L680.685 97.437C680.685 97.437 690.859 97.3502 690.346 108.63C690.315 109.283 656.875 125.868 656.875 125.868Z" stroke="#28A49D" stroke-width="0.886623" stroke-miterlimit="10"/>
<path d="M642.28 127.626L631.402 92.1926C631.402 92.1926 636.878 83.6334 646.068 90.214C646.601 90.5968 642.28 127.626 642.28 127.626Z" fill="#00AD57"/>
<path d="M642.28 127.626L631.402 92.1926C631.402 92.1926 636.878 83.6334 646.068 90.214C646.601 90.5968 642.28 127.626 642.28 127.626Z" stroke="#28A49D" stroke-width="0.886623" stroke-miterlimit="10"/>
<path d="M710.355 602.184L677.798 604.73C677.798 604.73 671.485 598.397 678.903 591.778C679.333 591.394 710.355 602.184 710.355 602.184Z" fill="#00AD57"/>
<path d="M710.355 602.184L677.798 604.73C677.798 604.73 671.485 598.397 678.903 591.778C679.333 591.394 710.355 602.184 710.355 602.184Z" stroke="#28A49D" stroke-width="0.886623" stroke-miterlimit="10"/>
<path d="M711.355 620.211L686.584 641.46C686.584 641.46 677.743 640.07 679.814 630.353C679.936 629.791 711.355 620.211 711.355 620.211Z" fill="#00AD57"/>
<path d="M711.355 620.211L686.584 641.46C686.584 641.46 677.743 640.07 679.814 630.353C679.936 629.791 711.355 620.211 711.355 620.211Z" stroke="#28A49D" stroke-width="0.886623" stroke-miterlimit="10"/>
<path d="M724.274 620.787L728.598 653.105C728.598 653.105 722.61 659.746 715.584 652.711C715.177 652.302 724.274 620.787 724.274 620.787Z" fill="#00AD57"/>
<path d="M724.274 620.787L728.598 653.105C728.598 653.105 722.61 659.746 715.584 652.711C715.177 652.302 724.274 620.787 724.274 620.787Z" stroke="#28A49D" stroke-width="0.886623" stroke-miterlimit="10"/>
<path d="M564.049 452.047H559.158L557.122 464.484H551.076L553.112 452.047H546.367V446.497H554.023L555.36 438.489H548.646V432.938H556.272L558.368 420.32H564.383L562.317 432.938H567.209L569.305 420.32H575.351L573.254 432.938H580.272V438.489H572.343L571.006 446.497H577.964V452.047H570.095L568.059 464.484H562.013L564.049 452.047ZM560.069 446.497H564.96L566.296 438.489H561.405L560.069 446.497Z" fill="#00AD57" fill-opacity="0.2"/>
<path d="M462.403 628.334C459.843 628.305 457.397 627.276 455.586 625.469C453.776 623.662 452.747 621.219 452.717 618.664V582.132H339.72C337.161 582.103 334.714 581.075 332.904 579.268C331.095 577.461 330.065 575.018 330.035 572.463V534.499C330.035 528.292 331.59 523.159 334.699 519.098L441.955 384.076C444.107 381.451 446.08 379.719 447.874 378.882C449.667 378.049 452.118 377.631 455.228 377.628H509.395C511.954 377.658 514.4 378.687 516.21 380.494C518.019 382.301 519.049 384.743 519.079 387.299V524.828H549.929C552.489 524.859 554.935 525.887 556.744 527.694C558.554 529.501 559.585 531.943 559.615 534.499V572.463C559.585 575.018 558.555 577.461 556.745 579.268C554.935 581.074 552.489 582.103 549.929 582.132H519.079V618.664C519.049 621.219 518.02 623.661 516.21 625.469C514.4 627.276 511.954 628.304 509.395 628.334H462.403ZM454.51 524.828V458.929L402.137 524.828H454.51Z" fill="#00AD57" fill-opacity="0.2"/>
<path d="M736.018 264.929C753.953 264.929 769.378 267.556 782.292 272.809C795.206 278.064 805.908 285.108 814.398 293.939C822.89 302.784 829.374 313.35 833.41 324.92C837.618 336.863 840.094 349.345 840.763 361.988C841.24 372.258 841.48 383.002 841.481 394.223C841.481 405.448 841.242 415.954 840.763 425.74C840.094 438.383 837.618 450.865 833.41 462.808C829.376 474.379 822.891 484.946 814.398 493.789C805.906 502.625 795.204 509.669 782.292 514.919C769.378 520.168 753.954 522.795 736.018 522.798C718.082 522.798 702.657 520.172 689.743 514.919C676.83 509.67 666.128 502.626 657.638 493.789C649.141 484.949 642.656 474.381 638.626 462.808C634.415 450.866 631.939 438.383 631.272 425.74C630.79 415.952 630.551 405.446 630.555 394.223C630.555 383.002 630.794 372.257 631.272 361.988C631.939 349.345 634.415 336.862 638.626 324.92C642.657 313.348 649.142 302.781 657.638 293.939C666.124 285.109 676.825 278.066 689.743 272.809C702.657 267.56 718.082 264.933 736.018 264.929ZM774.401 423.948C775.354 403.658 775.354 383.601 774.401 363.78C773.986 358.22 773.086 352.708 771.71 347.305C770.527 342.567 768.391 338.119 765.432 334.232C762.394 330.402 758.449 327.387 753.953 325.458C749.168 323.308 743.189 322.233 736.018 322.234C728.844 322.234 722.865 323.309 718.082 325.458C713.585 327.386 709.641 330.401 706.603 334.232C703.633 338.137 701.44 342.575 700.146 347.305C698.654 352.677 697.811 358.208 697.635 363.78C696.436 383.818 696.436 403.91 697.635 423.948C697.812 429.508 698.594 435.032 699.966 440.424C701.156 445.192 703.358 449.651 706.423 453.496C709.553 457.308 713.551 460.316 718.082 462.272C722.863 464.42 728.842 465.494 736.018 465.494C743.192 465.494 749.171 464.42 753.953 462.272C758.483 460.314 762.48 457.306 765.611 453.496C768.673 449.648 770.874 445.191 772.069 440.424C773.436 435.031 774.218 429.508 774.401 423.948Z" fill="#00AD57" fill-opacity="0.2"/>
<path d="M1014.92 350.085C1012.36 350.055 1009.92 349.026 1008.11 347.22C1006.3 345.413 1005.27 342.97 1005.24 340.415V303.883H892.239C889.68 303.854 887.234 302.826 885.424 301.019C883.614 299.212 882.584 296.769 882.555 294.214V256.249C882.555 250.044 884.109 244.91 887.218 240.849L994.474 105.827C996.626 103.202 998.599 101.471 1000.39 100.633C1002.19 99.7996 1004.64 99.3818 1007.75 99.3796H1061.91C1064.47 99.4094 1066.92 100.438 1068.73 102.245C1070.54 104.052 1071.57 106.494 1071.6 109.05V246.58H1102.45C1105.01 246.61 1107.45 247.638 1109.26 249.445C1111.07 251.252 1112.1 253.694 1112.13 256.249V294.214C1112.1 296.769 1111.07 299.212 1109.26 301.019C1107.45 302.825 1105.01 303.854 1102.45 303.883H1071.6V340.415C1071.57 342.97 1070.54 345.413 1068.73 347.22C1066.92 349.027 1064.47 350.055 1061.91 350.085H1014.92ZM1007.03 246.58V180.68L954.657 246.58H1007.03Z" fill="#00AD57" fill-opacity="0.2"/>
<path d="M456.07 601.442C453.51 601.413 451.064 600.385 449.254 598.578C447.444 596.771 446.414 594.328 446.384 591.773V555.241H333.388C330.828 555.212 328.382 554.183 326.572 552.376C324.762 550.569 323.732 548.127 323.703 545.571V507.607C323.703 501.402 325.257 496.268 328.366 492.207L435.622 357.184C437.775 354.559 439.748 352.828 441.541 351.991C443.335 351.157 445.786 350.739 448.895 350.737H503.062C505.621 350.766 508.068 351.795 509.878 353.602C511.687 355.409 512.717 357.852 512.747 360.407V497.937H543.597C546.157 497.966 548.603 498.995 550.413 500.802C552.223 502.609 553.253 505.052 553.282 507.607V545.571C553.253 548.127 552.223 550.569 550.413 552.376C548.603 554.183 546.157 555.211 543.597 555.241H512.747V591.773C512.717 594.328 511.687 596.771 509.877 598.578C508.067 600.385 505.621 601.413 503.062 601.442H456.07ZM448.177 497.937V432.037L395.805 497.937H448.177Z" stroke="#28A49D" stroke-width="0.886623" stroke-linecap="round" stroke-linejoin="round"/>
<path d="M704.295 277.972C722.23 277.972 737.655 280.598 750.569 285.851C763.483 291.106 774.185 298.15 782.675 306.982C791.167 315.826 797.652 326.392 801.688 337.963C805.895 349.906 808.371 362.388 809.04 375.031C809.517 385.3 809.756 396.044 809.758 407.265C809.758 418.49 809.519 428.996 809.04 438.783C808.371 451.425 805.895 463.907 801.688 475.85C797.653 487.421 791.169 497.988 782.675 506.831C774.183 515.667 763.481 522.711 750.569 527.962C737.656 533.211 722.231 535.837 704.295 535.841C686.359 535.841 670.934 533.215 658.02 527.962C645.106 522.713 634.404 515.669 625.915 506.831C617.418 497.991 610.933 487.423 606.903 475.85C602.692 463.908 600.216 451.425 599.55 438.783C599.067 428.994 598.828 418.488 598.832 407.265C598.832 396.044 599.071 385.3 599.55 375.031C600.216 362.388 602.692 349.905 606.903 337.963C610.934 326.39 617.419 315.823 625.915 306.982C634.401 298.151 645.102 291.107 658.02 285.851C670.934 280.602 686.359 277.976 704.295 277.972ZM742.678 436.99C743.63 416.7 743.63 396.643 742.678 376.822C742.263 371.262 741.363 365.75 739.987 360.347C738.804 355.61 736.668 351.162 733.71 347.274C730.671 343.445 726.726 340.429 722.23 338.5C717.443 336.35 711.465 335.275 704.295 335.276C697.12 335.276 691.141 336.351 686.359 338.5C681.862 340.428 677.917 343.444 674.88 347.274C671.909 351.179 669.717 355.617 668.423 360.347C666.932 365.719 666.088 371.25 665.911 376.822C664.712 396.86 664.712 416.952 665.911 436.99C666.089 442.55 666.871 448.074 668.243 453.466C669.433 458.235 671.635 462.693 674.7 466.538C677.83 470.349 681.828 473.358 686.359 475.313C691.14 477.463 697.119 478.537 704.295 478.537C711.469 478.537 717.448 477.462 722.23 475.313C726.76 473.356 730.757 470.348 733.889 466.538C736.95 462.69 739.152 458.233 740.346 453.466C741.713 448.073 742.495 442.55 742.678 436.99V436.99Z" stroke="#28A49D" stroke-width="0.886623" stroke-linecap="round" stroke-linejoin="round"/>
<path d="M985.386 363.127C982.827 363.098 980.38 362.069 978.57 360.262C976.76 358.455 975.73 356.012 975.701 353.457V316.925H862.704C860.144 316.896 857.698 315.868 855.888 314.061C854.078 312.254 853.049 309.812 853.02 307.256V269.292C853.02 263.086 854.574 257.952 857.682 253.891L964.939 118.869C967.091 116.244 969.064 114.513 970.858 113.675C972.651 112.842 975.102 112.424 978.211 112.421H1032.38C1034.94 112.451 1037.38 113.48 1039.19 115.287C1041 117.094 1042.03 119.536 1042.06 122.091V259.621H1072.91C1075.47 259.651 1077.92 260.68 1079.73 262.487C1081.54 264.294 1082.57 266.736 1082.6 269.292V307.256C1082.57 309.812 1081.54 312.254 1079.73 314.061C1077.92 315.867 1075.47 316.896 1072.91 316.925H1042.06V353.457C1042.03 356.012 1041 358.455 1039.19 360.262C1037.38 362.069 1034.94 363.097 1032.38 363.127H985.386ZM977.493 259.621V193.722L925.121 259.621H977.493Z" stroke="#28A49D" stroke-width="0.886623" stroke-linecap="round" stroke-linejoin="round"/>
<path d="M331.152 617.082H1086.91" stroke="#28A49D" stroke-width="0.886623" stroke-linecap="round" stroke-linejoin="round"/>
<path d="M470.754 594.143L464.223 613.938L449.418 613.534L454.31 597.054" fill="white"/>
<path d="M470.754 594.143L464.223 613.938L449.418 613.534L454.31 597.054" stroke="#28A49D" stroke-width="0.886623" stroke-linecap="round" stroke-linejoin="round"/>
<path d="M526.618 294.82L517.623 295.569C519.809 313.917 512.004 327.469 501.77 337.155L511.688 352.743C529.493 329.243 526.618 294.82 526.618 294.82Z" fill="white" stroke="#28A49D" stroke-width="0.886623" stroke-linecap="round" stroke-linejoin="round"/>
<path d="M464.789 357.733L473.106 373.683C491.552 371.635 503.701 363.288 511.689 352.744L501.771 337.156C486.12 351.967 464.789 357.733 464.789 357.733Z" fill="#00AD57" fill-opacity="0.2" stroke="#28A49D" stroke-width="0.886623" stroke-linecap="round" stroke-linejoin="round"/>
<path d="M526.491 298.838L518.153 298.695C517.801 298.48 517.479 298.221 517.194 297.925C516.757 297.459 517.667 295.793 517.667 295.793C517.667 295.793 514.581 290.969 513.877 286.851C513.173 282.734 509.907 278.685 511.878 278.632C513.849 278.578 513.944 282.121 514.921 281.701C515.408 281.491 515.57 278.248 515.014 275.085C514.461 271.925 513.19 268.845 514.579 269.103C517.354 269.619 518.858 279.753 518.858 279.753C518.858 279.753 519.062 276.486 519.048 273.068C519.034 269.401 518.86 265.566 520.599 265.591C522.101 265.612 522.074 268.983 522.478 272.34C522.767 274.549 523.183 276.74 523.723 278.902C523.723 278.902 524.463 267.819 525.679 268.967C526.894 270.115 526.015 279.967 526.721 279.964C527.428 279.959 528.299 273.065 529.301 273.628C530.304 274.192 529.244 286.04 529.244 286.04C529.244 286.04 529.625 292.987 526.951 296.211C526.951 296.211 528.141 298.334 526.491 298.838Z" fill="#00AD57"/>
<path d="M506.688 332.164L497.789 337.721L510.302 357.696L519.201 352.14L506.688 332.164Z" fill="#00AD57" fill-opacity="0.2" stroke="#28A49D" stroke-width="0.886623" stroke-linecap="round" stroke-linejoin="round"/>
<path d="M391.372 216.323C391.371 221.619 389.264 226.699 385.513 230.444C381.762 234.189 376.675 236.294 371.37 236.295H276.617C271.312 236.294 266.224 234.19 262.473 230.445C258.721 226.699 256.614 221.62 256.613 216.323C256.614 211.026 258.721 205.946 262.473 202.201C266.224 198.456 271.312 196.351 276.617 196.351H371.37C376.675 196.352 381.763 198.456 385.513 202.202C389.264 205.947 391.371 211.027 391.372 216.323Z" fill="white" stroke="#28A49D" stroke-width="0.886623" stroke-linecap="round" stroke-linejoin="round"/>
<path d="M365.297 220.387H279.536C275.445 220.385 271.475 218.999 268.274 216.456C265.072 213.912 262.829 210.361 261.908 206.381C260.422 209.135 259.677 212.227 259.747 215.354C259.816 218.481 260.697 221.537 262.303 224.223C263.909 226.909 266.185 229.133 268.91 230.677C271.634 232.222 274.714 233.034 277.847 233.035H363.608C366.334 233.042 369.026 232.433 371.482 231.254C373.939 230.074 376.096 228.354 377.792 226.224C379.488 224.093 380.678 221.606 381.274 218.951C381.87 216.295 381.857 213.539 381.234 210.89C379.684 213.762 377.383 216.161 374.578 217.833C371.772 219.505 368.565 220.388 365.297 220.387Z" fill="#00AD57" fill-opacity="0.2"/>
<path d="M433.488 223.679C433.488 228.58 432.522 233.433 430.644 237.96C428.766 242.488 426.013 246.602 422.543 250.068C419.072 253.533 414.951 256.282 410.416 258.157C405.881 260.032 401.021 260.997 396.112 260.997C391.204 260.997 386.344 260.032 381.809 258.157C377.274 256.282 373.153 253.533 369.683 250.068C366.212 246.602 363.459 242.488 361.581 237.96C359.703 233.432 358.737 228.58 358.738 223.679V208.965C358.738 204.064 359.704 199.211 361.582 194.684C363.46 190.156 366.213 186.042 369.683 182.577C373.154 179.111 377.274 176.363 381.809 174.487C386.344 172.612 391.204 171.647 396.112 171.647C401.021 171.647 405.881 172.612 410.416 174.487C414.951 176.363 419.071 179.111 422.542 182.577C426.013 186.042 428.766 190.156 430.644 194.684C432.522 199.211 433.488 204.064 433.488 208.965V223.679Z" fill="white" stroke="#28A49D" stroke-width="0.886623" stroke-linecap="round" stroke-linejoin="round"/>
<path d="M407.307 240.968C402.962 240.969 398.659 240.114 394.644 238.454C390.629 236.794 386.982 234.361 383.909 231.293C380.836 228.225 378.399 224.583 376.737 220.574C375.074 216.566 374.219 212.27 374.219 207.931V194.904C374.216 190.622 375.049 186.38 376.671 182.416C372.179 185.439 368.499 189.519 365.956 194.295C363.414 199.072 362.086 204.399 362.09 209.809V222.836C362.09 230.494 364.754 237.914 369.627 243.827C374.501 249.74 381.28 253.78 388.807 255.255C396.333 256.729 404.139 255.548 410.889 251.912C417.639 248.277 422.915 242.412 425.814 235.323C420.35 239.012 413.903 240.979 407.307 240.968Z" fill="#00AD57" fill-opacity="0.2"/>
<path d="M555.612 244.703C555.613 250.225 554.524 255.693 552.407 260.794C550.291 265.896 547.189 270.531 543.278 274.435C539.367 278.34 534.725 281.437 529.615 283.549C524.505 285.662 519.029 286.749 513.498 286.748H438.749C433.218 286.749 427.742 285.661 422.633 283.549C417.523 281.436 412.881 278.339 408.97 274.434C405.06 270.53 401.958 265.895 399.842 260.794C397.725 255.692 396.636 250.225 396.637 244.703V187.94C396.637 182.418 397.726 176.951 399.842 171.85C401.958 166.748 405.06 162.113 408.971 158.209C412.881 154.305 417.524 151.208 422.633 149.095C427.742 146.982 433.218 145.895 438.749 145.895H513.498C519.029 145.894 524.505 146.981 529.615 149.094C534.724 151.207 539.367 154.304 543.278 158.208C547.189 162.113 550.291 166.748 552.407 171.849C554.523 176.95 555.613 182.418 555.612 187.94V244.703Z" fill="white" stroke="#28A49D" stroke-width="0.886623" stroke-linecap="round" stroke-linejoin="round"/>
<path d="M527.658 261.907H458.181C453.041 261.908 447.951 260.897 443.202 258.933C438.453 256.969 434.138 254.091 430.503 250.462C426.868 246.833 423.985 242.525 422.018 237.783C420.051 233.042 419.039 227.96 419.039 222.828V170.068C419.037 165.162 419.962 160.3 421.767 155.738C415.331 159.006 409.926 163.99 406.151 170.136C402.376 176.283 400.378 183.352 400.379 190.562V243.322C400.379 248.454 401.391 253.536 403.358 258.277C405.325 263.019 408.208 267.327 411.842 270.956C415.477 274.585 419.792 277.463 424.541 279.427C429.29 281.391 434.38 282.402 439.52 282.401H508.997C516.853 282.401 524.528 280.041 531.022 275.627C537.517 271.213 542.531 264.951 545.412 257.653C539.915 260.455 533.83 261.913 527.658 261.907Z" fill="#00AD57" fill-opacity="0.2"/>
<path d="M562.122 118.038C556.13 117.992 550.181 119.043 544.568 121.137C544.491 121.135 544.414 121.128 544.337 121.128C540.909 121.128 537.625 123.254 534.589 127.14C531.875 129.678 530.083 132.614 529.503 135.775C521.602 152.817 516.348 183.061 516.348 217.538C516.348 270.785 528.879 313.949 544.337 313.949C545.831 313.934 547.299 313.55 548.609 312.833C553.014 314.023 557.559 314.619 562.122 314.604C580.256 314.604 594.958 305.661 594.958 294.633V138.012C594.958 126.981 580.256 118.038 562.122 118.038Z" fill="white" stroke="#28A49D" stroke-width="0.886623" stroke-linecap="round" stroke-linejoin="round"/>
<path d="M497.006 242.277C497.006 242.928 496.747 243.552 496.286 244.013C495.825 244.473 495.2 244.732 494.547 244.732C493.897 244.73 493.273 244.47 492.814 244.01C492.355 243.55 492.097 242.927 492.098 242.277V181.31C492.099 180.662 492.358 180.041 492.817 179.582C493.276 179.124 493.898 178.866 494.547 178.864C495.198 178.864 495.823 179.121 496.283 179.58C496.744 180.038 497.004 180.661 497.006 181.31V242.277Z" fill="#00AD57" fill-opacity="0.2"/>
<path d="M479.28 242.277C479.28 242.928 479.021 243.552 478.56 244.013C478.099 244.473 477.474 244.732 476.821 244.732C476.171 244.73 475.547 244.471 475.088 244.01C474.629 243.55 474.371 242.927 474.371 242.277V181.31C474.373 180.662 474.631 180.041 475.091 179.582C475.55 179.124 476.172 178.866 476.821 178.864C477.472 178.864 478.096 179.121 478.557 179.58C479.018 180.038 479.278 180.661 479.28 181.31V242.277Z" fill="#00AD57" fill-opacity="0.2"/>
<path d="M609.651 217.539C609.651 270.785 597.12 313.949 581.661 313.949C566.202 313.949 553.672 270.785 553.672 217.539C553.672 164.292 566.202 121.128 581.661 121.128C597.119 121.128 609.651 164.292 609.651 217.539Z" fill="#00AD57" stroke="#28A49D" stroke-width="0.886623" stroke-miterlimit="10"/>
<path d="M575.14 232.817C575.14 233.805 574.747 234.753 574.047 235.451C573.347 236.15 572.398 236.543 571.408 236.543C570.918 236.543 570.432 236.446 569.98 236.259C569.527 236.072 569.115 235.797 568.769 235.451C568.422 235.105 568.147 234.695 567.96 234.243C567.772 233.79 567.676 233.306 567.676 232.817V200.213C567.676 199.723 567.772 199.239 567.96 198.787C568.147 198.334 568.422 197.924 568.769 197.578C569.115 197.232 569.527 196.957 569.98 196.77C570.432 196.583 570.918 196.486 571.408 196.486C572.398 196.486 573.347 196.879 574.047 197.578C574.747 198.277 575.14 199.224 575.14 200.213V232.817Z" fill="#007F40"/>
<path d="M596.132 220.241C596.132 221.229 595.739 222.177 595.039 222.876C594.339 223.575 593.39 223.967 592.4 223.967C591.41 223.967 590.461 223.574 589.761 222.876C589.061 222.177 588.668 221.229 588.668 220.241V187.637C588.668 186.648 589.061 185.701 589.761 185.002C590.461 184.303 591.41 183.911 592.4 183.91C593.39 183.91 594.339 184.303 595.039 185.002C595.739 185.701 596.132 186.648 596.132 187.637V220.241Z" fill="#007F40"/>
<path d="M518.109 585.526L515.193 602.41L499.098 604.972L502.715 588.437" fill="white"/>
<path d="M518.109 585.526L515.193 602.411L499.098 604.972L502.715 588.437" stroke="#28A49D" stroke-width="0.886623" stroke-linecap="round" stroke-linejoin="round"/>
<path d="M444.643 349.494C444.643 349.494 420.376 353.128 422.318 376.631C422.976 384.6 436.635 453.439 436.635 453.439L500.341 447.384C500.341 447.384 483.23 359.67 472.31 352.401C461.389 345.132 444.643 349.494 444.643 349.494Z" fill="#00AD57"/>
<path d="M436.637 453.439C436.637 453.439 439.712 472.889 446.587 491.237C456.945 518.884 465.82 532.622 463.332 553.116C459.605 583.816 447.898 601.13 447.898 601.13L474.839 605.438C474.839 605.438 491.634 549.079 489.146 541.005C484.778 503.207 480.748 444.746 480.748 444.746L436.637 453.439Z" fill="#00AD57"/>
<path d="M495.973 437.811C495.973 437.811 528.122 484.643 529.578 517.717C530.765 544.673 520.091 593.211 520.091 593.211L497.588 592.502C497.588 592.502 505.63 530.758 500.654 515.854C486.094 489.686 464.266 457.787 464.266 457.787L495.973 437.811Z" fill="#00AD57"/>
<path d="M438.091 359.488C438.091 359.488 454.471 354.581 460.66 371.3C466.848 388.019 461.376 399.775 451.429 401.568C430.673 405.31 415.884 362.033 438.091 359.488Z" fill="#00AD57" fill-opacity="0.2"/>
<path d="M477.954 374.219C478.511 375.954 471.22 380.386 471.22 380.386C470.09 377.454 468.724 374.618 467.134 371.907C465.835 369.779 464.355 367.768 462.71 365.894C459.935 363.304 456.295 359.67 452.217 357.87C450.736 357.184 449.195 356.637 447.613 356.234C444.353 355.4 444.145 352.106 447.467 351.538C449.111 351.041 450.824 350.814 452.54 350.864C454.276 350.915 455.999 351.175 457.672 351.637C459.426 351.992 461.134 352.548 462.761 353.294C464.357 354.044 465.884 354.933 467.323 355.951C468.884 356.908 474.84 364.515 477.954 374.219Z" fill="#00AD57" fill-opacity="0.2"/>
<path d="M445.243 320.282L442.762 336.291L431.529 325.993L427.539 318.042L432.027 313.81C432.027 313.81 448.982 300.118 451.726 297.005C454.468 293.894 463.442 311.301 455.712 318.52" fill="#00AD57"/>
<path d="M440.883 333.502L442.279 353.128C442.279 353.128 449.286 356.672 453.291 356.126C455.658 355.813 457.815 354.607 459.319 352.755L452.835 333.623L440.883 333.502Z" fill="white" stroke="#28A49D" stroke-width="0.886623" stroke-linecap="round" stroke-linejoin="round"/>
<path d="M454.196 314.793L442.183 319.529C442.183 319.529 443.435 324.989 443.175 325.623C443.172 325.624 439.742 327.693 439.74 327.695C438.071 328.85 437.911 331.497 439.379 333.613C440.847 335.727 443.388 336.505 445.056 335.349C445.435 335.082 445.747 334.73 445.966 334.321C449.422 337.814 451.909 339.411 456.478 339.411C465.143 339.411 454.196 314.793 454.196 314.793Z" fill="white" stroke="#28A49D" stroke-width="0.591082" stroke-linecap="round" stroke-linejoin="round"/>
<path d="M486.144 294.299H479.228C480.032 309.853 471.876 324.229 462.523 335.582L474.788 345.759C486.585 320.853 486.144 294.299 486.144 294.299Z" fill="white" stroke="#28A49D" stroke-width="0.886623" stroke-linecap="round" stroke-linejoin="round"/>
<path d="M435.842 360.068C434.203 362.003 432.781 364.112 431.604 366.357C429.353 370.585 429.353 376.413 432.994 378.593C444.643 386.59 455.564 373.53 462.608 365.038C464.064 363.271 465.423 361.489 466.7 359.607C467.977 357.726 469.174 355.888 470.294 353.93C471.119 352.577 471.898 351.409 472.636 350.031C473.397 348.617 474.108 347.191 474.785 345.76L462.521 335.583C462.35 335.788 439.546 356.036 435.842 360.068Z" fill="#00AD57" fill-opacity="0.2" stroke="#28A49D" stroke-width="0.886623" stroke-linecap="round" stroke-linejoin="round"/>
<path d="M464.527 327.777L457.812 335.832L475.951 350.903L482.665 342.848L464.527 327.777Z" fill="#00AD57" fill-opacity="0.2" stroke="#28A49D" stroke-width="0.886623" stroke-linecap="round" stroke-linejoin="round"/>
<path d="M493.604 430.656C493.604 430.656 454.714 441.384 433.812 438.81L435.339 457.477C435.339 457.477 475.727 447.562 494.634 437.69C494.969 437.515 494.651 436.629 494.651 436.629L493.604 430.656Z" fill="white" stroke="#28A49D" stroke-width="0.886623" stroke-linecap="round" stroke-linejoin="round"/>
<path d="M511.634 614.567L510.178 612.751L495.813 611.785L494.586 615.718C494.586 615.718 536.266 620.444 536.994 617.353C537.227 616.367 537.458 615.789 537.382 615.291L511.634 614.567Z" fill="#00AD57" fill-opacity="0.2" stroke="#28A49D" stroke-width="0.886623" stroke-linecap="round" stroke-linejoin="round"/>
<path d="M511.634 614.567L537.381 615.291C537.22 614.233 539.027 613.092 533.081 609.63C529.855 607.753 523.046 607.645 520.613 605.815C518.069 603.871 515.926 601.454 514.303 598.697C514.303 598.697 508.782 605.421 505.688 604.149C502.594 602.876 498.954 601.726 498.954 601.726L495.812 611.785L510.178 612.751L511.634 614.567Z" fill="#00AD57" fill-opacity="0.2" stroke="#28A49D" stroke-width="0.886623" stroke-linecap="round" stroke-linejoin="round"/>
<path d="M461.28 625.295L459.895 623.423L445.579 621.902L444.199 625.784C444.199 625.784 485.664 632.122 486.512 629.062C486.783 628.084 487.037 627.516 486.98 627.017L461.28 625.295Z" fill="#00AD57" fill-opacity="0.2" stroke="#28A49D" stroke-width="0.886623" stroke-linecap="round" stroke-linejoin="round"/>
<path d="M461.279 625.295L486.979 627.016C486.859 625.952 488.709 624.883 482.903 621.193C479.752 619.191 472.951 618.82 470.592 616.896C468.125 614.856 466.078 612.357 464.564 609.539C464.564 609.539 458.785 616.044 455.743 614.653C452.701 613.261 449.108 611.972 449.108 611.972L445.578 621.902L459.894 623.423L461.279 625.295Z" fill="#00AD57" fill-opacity="0.2" stroke="#28A49D" stroke-width="0.886623" stroke-linecap="round" stroke-linejoin="round"/>
<path d="M487.19 297.429L478.717 297.052C478.366 296.824 478.045 296.552 477.763 296.243C477.332 295.758 478.303 294.088 478.303 294.088C478.303 294.088 475.298 289.099 474.696 284.892C474.095 280.685 470.884 276.479 472.89 276.479C474.897 276.479 474.897 280.085 475.901 279.684C476.402 279.484 476.656 276.191 476.179 272.96C475.703 269.731 474.496 266.564 475.901 266.865C478.709 267.465 479.958 277.811 479.958 277.811C479.958 277.811 480.255 274.495 480.335 271.02C480.424 267.291 480.352 263.387 482.119 263.46C483.645 263.523 483.525 266.949 483.844 270.374C484.077 272.628 484.438 274.867 484.927 277.08C484.927 277.08 485.988 265.831 487.19 267.032C488.395 268.233 487.228 278.227 487.947 278.242C488.665 278.257 489.742 271.271 490.746 271.873C491.749 272.472 490.345 284.49 490.345 284.49C490.345 284.49 490.539 291.566 487.731 294.77C487.731 294.77 488.882 296.962 487.19 297.429Z" fill="#00AD57"/>
<path d="M475.959 390.823C476.853 393.144 476.798 395.324 475.836 395.694C474.874 396.063 473.37 394.481 472.475 392.16C471.582 389.839 471.637 387.657 472.6 387.288C473.56 386.92 475.065 388.501 475.959 390.823Z" fill="white"/>
<path d="M483.889 386.011C484.781 388.332 484.727 390.512 483.765 390.882C482.803 391.251 481.299 389.669 480.405 387.348C479.512 385.027 479.567 382.845 480.529 382.476C481.49 382.108 482.994 383.689 483.889 386.011Z" fill="white"/>
<path d="M433.162 436.672H448.712C449.949 436.672 451.136 437.163 452.011 438.036C452.886 438.91 453.377 440.095 453.377 441.33V472.691C453.377 473.927 452.886 475.111 452.011 475.985C451.136 476.858 449.95 477.349 448.712 477.349H433.161C431.924 477.349 430.737 476.858 429.862 475.985C428.988 475.111 428.496 473.927 428.496 472.691V441.33C428.496 440.095 428.988 438.91 429.863 438.036C430.738 437.163 431.924 436.672 433.162 436.672Z" fill="#DCF6F4" stroke="#28A49D" stroke-width="0.886623" stroke-linecap="round" stroke-linejoin="round"/>
<path d="M1087.38 504.264C1087.28 502.86 1087.17 501.537 1087.08 500.285C1086.98 499.034 1086.97 497.858 1086.91 496.774C1086.86 495.69 1086.8 494.69 1086.81 493.788C1086.79 492.602 1086.77 491.606 1086.78 490.769C1088.84 488.74 1103.68 473.02 1091.48 450.684C1091.48 450.684 1068.95 466.966 1086.37 490.76C1086.24 491.581 1086.1 492.574 1085.97 493.743C1085.74 495.549 1085.57 497.752 1085.4 500.287C1085.34 501.552 1085.29 502.901 1085.23 504.322C1085.15 505.749 1085.37 507.237 1085.43 508.796C1085.52 510.01 1085.59 511.278 1085.68 512.572C1084.84 511.476 1083.74 510.035 1082.63 508.583C1082.08 507.856 1081.52 507.122 1081 506.445C1080.79 506.198 1080.6 505.958 1080.41 505.723C1083.78 474.776 1061.34 470.408 1061.34 470.408C1061.89 503.04 1075.12 505.869 1079.21 505.962C1079.5 506.33 1079.82 506.716 1080.16 507.128C1080.68 507.807 1081.24 508.532 1081.79 509.252C1082.89 510.701 1084 512.149 1084.82 513.238C1084.95 513.364 1085 513.527 1085.13 513.619C1085.26 513.72 1085.38 513.811 1085.5 513.902C1085.62 513.992 1085.7 514.056 1085.81 514.134C1085.97 515.657 1086.14 517.215 1086.31 518.823C1086.41 519.712 1086.49 520.613 1086.62 521.522C1086.76 522.424 1086.9 523.341 1087.05 524.267C1087.34 526.12 1087.64 528.014 1087.95 529.936C1088.32 531.873 1088.68 533.774 1089.12 535.742C1089.33 536.672 1089.55 537.613 1089.77 538.551C1089.64 538.302 1089.51 538.06 1089.36 537.827C1089.09 537.387 1088.82 536.943 1088.55 536.495C1088.02 535.605 1087.48 534.708 1086.97 533.87C1086.42 533.058 1085.91 532.302 1085.47 531.65C1085.37 531.491 1085.27 531.339 1085.15 531.194C1085.02 531.067 1084.88 530.955 1084.77 530.839C1084.65 530.739 1084.56 530.673 1084.46 530.587C1083.8 525.778 1079.73 506.793 1056.31 502.499C1056.31 502.499 1054.81 530.186 1084.22 531.677C1084.24 531.727 1084.26 531.771 1084.28 531.824C1084.37 531.983 1084.47 532.135 1084.59 532.279C1085.02 532.917 1085.52 533.66 1086.07 534.455C1086.56 535.281 1087.09 536.159 1087.62 537.048C1087.89 537.487 1088.15 537.927 1088.42 538.361C1088.67 538.781 1088.91 539.215 1089.12 539.661C1089.55 540.529 1089.94 541.334 1090.29 542.022C1090.36 542.194 1090.44 542.359 1090.54 542.512C1090.61 542.597 1090.68 542.673 1090.74 542.755C1091.6 546.357 1092.47 549.986 1093.11 553.645C1093.51 555.654 1093.75 557.682 1094.02 559.691C1094.15 560.699 1094.2 561.715 1094.29 562.715C1094.37 563.724 1094.48 564.729 1094.47 565.731C1094.48 565.959 1094.48 566.178 1094.48 566.409C1094.42 566.272 1094.35 566.134 1094.27 565.996C1093.95 565.362 1093.59 564.747 1093.2 564.151C1092.83 563.504 1092.35 562.909 1091.91 562.263C1091.42 561.66 1090.93 561.036 1090.38 560.457C1089.86 559.953 1089.36 559.404 1088.79 558.947C1088.93 558.9 1089.06 558.871 1089.2 558.827C1089.2 558.827 1081.55 535.964 1056.75 540.229C1056.75 540.229 1062.58 566.378 1087.55 559.315C1087.68 559.429 1087.82 559.535 1087.95 559.648C1088.53 560.13 1089.08 560.647 1089.59 561.195C1090.11 561.745 1090.58 562.343 1091.05 562.919C1091.47 563.534 1091.93 564.105 1092.28 564.728C1092.67 565.326 1093.02 565.921 1093.32 566.501C1093.64 567.074 1093.88 567.637 1094.13 568.152C1094.27 568.406 1094.32 568.681 1094.46 568.903C1094.48 568.935 1094.5 568.969 1094.52 569.001C1094.52 569.904 1094.52 570.801 1094.46 571.694C1094.41 572.675 1094.38 573.649 1094.33 574.618C1094.25 575.588 1094.13 576.55 1094.04 577.499C1093.94 578.453 1093.84 579.394 1093.74 580.33C1093.6 581.263 1093.45 582.184 1093.3 583.093C1092.99 584.916 1092.74 586.703 1092.33 588.415C1091.94 590.133 1091.58 591.805 1091.22 593.428C1091.12 593.806 1091.02 594.178 1090.91 594.551C1090.82 594.188 1090.72 593.822 1090.6 593.461C1090.13 591.998 1089.46 590.611 1088.6 589.339C1088.5 589.222 1088.46 589.063 1088.34 588.975C1088.22 588.877 1088.11 588.796 1088.01 588.716C1087.86 588.611 1087.75 588.538 1087.62 588.457C1087.4 585.921 1085.07 567.341 1064.49 565.228C1064.49 565.228 1063.17 589.577 1087.18 588.758C1087.23 588.901 1087.28 589.043 1087.34 589.216C1087.38 589.333 1087.42 589.464 1087.47 589.597C1087.51 589.724 1087.64 589.813 1087.7 589.944C1088.51 591.131 1089.14 592.426 1089.58 593.791C1089.82 594.513 1089.99 595.255 1090.09 596.009C1090.15 596.353 1090.18 596.7 1090.2 597.048C1090.2 597.1 1090.2 597.143 1090.2 597.193C1090.12 597.485 1090.04 597.776 1089.97 598.062C1089.76 598.8 1089.56 599.532 1089.36 600.244C1089.15 600.945 1088.91 601.626 1088.76 602.312C1088.42 603.679 1088.09 604.972 1087.79 606.191C1087.22 608.642 1086.58 610.739 1086.08 612.474C1085.08 615.952 1084.54 617.96 1084.54 617.96C1084.54 617.96 1085.39 616.076 1086.84 612.748C1087.56 611.077 1088.45 609.062 1089.33 606.686C1089.65 605.876 1089.98 605.015 1090.33 604.13C1090.41 604.092 1090.47 604.061 1090.56 604.018C1090.68 603.96 1090.81 603.895 1090.95 603.826C1091.09 603.767 1091.17 603.618 1091.3 603.522C1091.54 603.28 1091.81 603.059 1092.09 602.862C1092.39 602.657 1092.71 602.439 1093.04 602.216C1093.38 601.992 1093.71 601.741 1094.07 601.523C1094.44 601.342 1094.83 601.144 1095.21 600.949C1095.58 600.739 1095.96 600.561 1096.36 600.415C1096.75 600.262 1097.15 600.119 1097.51 599.982C1097.87 599.848 1098.24 599.738 1098.62 599.654C1098.97 599.57 1099.3 599.452 1099.61 599.408C1099.77 599.396 1099.92 599.37 1100.07 599.33C1100.14 599.293 1100.2 599.265 1100.27 599.232C1104.51 600.356 1124.14 604.243 1137.16 583.806C1137.16 583.806 1112.28 572.141 1099.77 598.28C1099.66 598.299 1099.54 598.338 1099.41 598.349C1099.07 598.401 1098.72 598.518 1098.34 598.607C1097.95 598.698 1097.56 598.815 1097.17 598.955C1096.78 599.102 1096.36 599.256 1095.95 599.417C1095.53 599.576 1095.12 599.763 1094.73 599.979C1094.32 600.183 1093.93 600.39 1093.53 600.596C1093.14 600.819 1092.79 601.08 1092.44 601.313C1092.09 601.55 1091.75 601.782 1091.43 602.003C1091.28 602.098 1091.14 602.208 1091.01 602.332C1091.41 601.17 1091.68 599.912 1092.05 598.638C1092.46 597.132 1092.88 595.567 1093.33 593.944C1093.68 592.295 1094.06 590.598 1094.44 588.855C1094.87 587.115 1095.13 585.289 1095.44 583.43C1095.58 582.505 1095.74 581.565 1095.89 580.618C1095.94 580.128 1095.99 579.628 1096.05 579.132C1096.1 579.111 1096.15 579.088 1096.21 579.069C1096.32 579.023 1096.35 578.907 1096.45 578.841C1097.08 578.21 1097.92 577.37 1098.76 576.531C1099.6 575.69 1100.44 574.847 1101.07 574.212C1101.12 574.152 1101.19 574.111 1101.24 574.06C1106.63 573.278 1124.83 568.976 1129.18 546.218C1129.18 546.218 1101.36 544.509 1099.74 574.024C1099.21 574.554 1098.61 575.164 1098 575.763C1097.37 576.388 1096.75 577.011 1096.21 577.55C1096.3 576.634 1096.41 575.713 1096.49 574.773C1096.53 573.778 1096.57 572.775 1096.62 571.771C1096.76 569.754 1096.67 567.713 1096.63 565.646C1096.64 564.619 1096.52 563.591 1096.45 562.554C1096.35 561.523 1096.31 560.477 1096.17 559.443C1095.96 557.907 1095.75 556.363 1095.5 554.828C1095.53 554.66 1095.55 554.489 1095.56 554.319C1095.67 553.354 1095.72 552.227 1095.93 551.016C1096.13 549.809 1096.31 548.519 1096.56 547.235C1097.03 544.668 1097.61 542.116 1098.05 540.201C1098.11 539.976 1098.16 539.748 1098.2 539.517C1098.21 539.393 1098.22 539.273 1098.22 539.154C1100.92 537.815 1120.66 527.083 1111.98 502.938C1111.98 502.938 1084.64 519.761 1097.45 538.608C1097.44 538.631 1097.43 538.654 1097.42 538.676C1097.33 538.862 1097.25 539.058 1097.15 539.269C1097.07 539.479 1097.07 539.721 1096.99 539.959C1096.54 541.882 1095.97 544.445 1095.5 547.039C1095.23 548.329 1095.05 549.642 1094.86 550.865C1094.85 550.953 1094.84 551.039 1094.83 551.127C1094.16 547.749 1093.36 544.432 1092.59 541.16C1092.11 539.186 1091.68 537.228 1091.24 535.306C1090.81 533.383 1090.44 531.407 1090.07 529.547C1089.77 527.651 1089.48 525.778 1089.19 523.949C1089.04 523.035 1088.9 522.129 1088.76 521.235C1088.63 520.339 1088.56 519.449 1088.46 518.573C1088.29 517 1088.13 515.477 1087.97 513.986C1088.02 513.555 1088.11 513.128 1088.22 512.708C1088.34 512.159 1088.49 511.616 1088.66 511.083C1088.83 510.541 1089.02 510.01 1089.24 509.49C1089.43 508.97 1089.69 508.484 1089.91 507.999C1090.35 507.133 1090.84 506.296 1091.38 505.492C1091.48 505.307 1091.63 505.169 1091.72 504.99C1091.8 504.809 1091.88 504.633 1091.95 504.476C1091.95 504.464 1091.96 504.457 1091.96 504.443C1096.26 503.112 1110.04 497.437 1106.38 480.375C1106.38 480.375 1086.63 485.007 1090.68 504.574C1090.62 504.682 1090.56 504.786 1090.48 504.883C1089.91 505.727 1089.4 506.605 1088.94 507.513C1088.71 508.026 1088.44 508.531 1088.24 509.081C1088.04 509.56 1087.87 510.051 1087.71 510.552C1087.67 509.916 1087.64 509.289 1087.59 508.675C1087.47 507.137 1087.47 505.665 1087.38 504.264Z" fill="#00AD57"/>
<path d="M311.373 403.005C311.373 403.671 311.175 404.322 310.805 404.875C310.434 405.429 309.907 405.861 309.291 406.116C308.675 406.37 307.997 406.437 307.343 406.307C306.689 406.177 306.088 405.857 305.617 405.386C305.145 404.915 304.824 404.315 304.694 403.662C304.564 403.009 304.63 402.332 304.886 401.717C305.141 401.102 305.573 400.576 306.128 400.206C306.682 399.836 307.334 399.639 308.001 399.639C308.895 399.639 309.753 399.993 310.385 400.625C311.017 401.256 311.373 402.112 311.373 403.005Z" fill="#00AD57" fill-opacity="0.2"/>
<path d="M330.552 403.005C330.552 403.671 330.355 404.322 329.984 404.875C329.614 405.429 329.087 405.861 328.471 406.116C327.855 406.37 327.177 406.437 326.523 406.307C325.869 406.177 325.268 405.857 324.796 405.386C324.325 404.915 324.003 404.315 323.873 403.662C323.743 403.009 323.81 402.332 324.065 401.717C324.321 401.102 324.753 400.576 325.307 400.206C325.862 399.836 326.514 399.639 327.181 399.639C328.075 399.639 328.933 399.993 329.565 400.625C330.197 401.256 330.552 402.112 330.552 403.005Z" fill="#00AD57" fill-opacity="0.2"/>
<path d="M349.736 403.005C349.736 403.671 349.538 404.322 349.168 404.876C348.797 405.429 348.27 405.861 347.654 406.116C347.038 406.37 346.36 406.437 345.706 406.307C345.052 406.177 344.451 405.856 343.979 405.385C343.508 404.914 343.187 404.314 343.057 403.661C342.927 403.008 342.994 402.331 343.249 401.716C343.505 401.1 343.937 400.575 344.492 400.205C345.047 399.835 345.699 399.638 346.366 399.639C346.809 399.639 347.247 399.726 347.656 399.895C348.065 400.064 348.436 400.312 348.749 400.625C349.062 400.938 349.31 401.309 349.48 401.717C349.649 402.125 349.736 402.563 349.736 403.005Z" fill="#00AD57" fill-opacity="0.2"/>
<path d="M368.919 403.005C368.919 403.671 368.722 404.322 368.351 404.875C367.981 405.429 367.454 405.86 366.838 406.115C366.222 406.37 365.544 406.437 364.89 406.307C364.236 406.177 363.635 405.856 363.163 405.386C362.692 404.915 362.371 404.315 362.241 403.662C362.11 403.009 362.177 402.332 362.432 401.717C362.688 401.102 363.12 400.576 363.674 400.206C364.229 399.836 364.881 399.639 365.548 399.639C365.991 399.639 366.429 399.726 366.838 399.895C367.247 400.064 367.619 400.312 367.932 400.624C368.245 400.937 368.494 401.308 368.663 401.717C368.832 402.125 368.919 402.563 368.919 403.005Z" fill="#00AD57" fill-opacity="0.2"/>
<path d="M388.107 403.005C388.107 403.671 387.909 404.322 387.539 404.875C387.168 405.429 386.642 405.861 386.025 406.115C385.409 406.37 384.731 406.437 384.077 406.307C383.423 406.177 382.822 405.856 382.351 405.385C381.879 404.915 381.558 404.315 381.428 403.662C381.298 403.009 381.365 402.332 381.62 401.717C381.875 401.102 382.308 400.576 382.862 400.206C383.417 399.836 384.068 399.639 384.735 399.639C385.63 399.639 386.487 399.993 387.119 400.625C387.752 401.256 388.107 402.112 388.107 403.005Z" fill="#00AD57" fill-opacity="0.2"/>
<path d="M407.287 403.005C407.287 403.671 407.089 404.322 406.718 404.876C406.348 405.429 405.821 405.861 405.205 406.116C404.589 406.37 403.911 406.437 403.256 406.307C402.602 406.177 402.001 405.856 401.53 405.385C401.058 404.914 400.737 404.314 400.608 403.661C400.478 403.008 400.545 402.331 400.8 401.716C401.056 401.1 401.488 400.575 402.043 400.205C402.598 399.835 403.25 399.638 403.917 399.639C404.811 399.639 405.668 399.994 406.3 400.625C406.932 401.257 407.287 402.113 407.287 403.005Z" fill="#00AD57" fill-opacity="0.2"/>
<path d="M311.373 423.953C311.373 424.619 311.176 425.27 310.805 425.824C310.435 426.378 309.908 426.81 309.292 427.065C308.676 427.32 307.998 427.387 307.344 427.257C306.69 427.127 306.089 426.807 305.617 426.336C305.145 425.865 304.824 425.265 304.694 424.612C304.564 423.959 304.63 423.282 304.885 422.667C305.141 422.052 305.573 421.526 306.127 421.156C306.682 420.786 307.334 420.588 308.001 420.588C308.895 420.589 309.752 420.944 310.384 421.575C311.016 422.205 311.372 423.061 311.373 423.953Z" fill="#00AD57" fill-opacity="0.2"/>
<path d="M330.552 423.953C330.553 424.619 330.355 425.27 329.985 425.824C329.615 426.378 329.088 426.81 328.472 427.065C327.856 427.32 327.178 427.387 326.524 427.257C325.869 427.127 325.268 426.807 324.797 426.336C324.325 425.865 324.004 425.265 323.873 424.612C323.743 423.959 323.81 423.282 324.065 422.667C324.32 422.052 324.753 421.526 325.307 421.156C325.862 420.786 326.514 420.588 327.181 420.588C328.075 420.589 328.932 420.944 329.564 421.574C330.196 422.205 330.551 423.061 330.552 423.953Z" fill="#00AD57" fill-opacity="0.2"/>
<path d="M349.736 423.953C349.736 424.619 349.539 425.27 349.168 425.824C348.798 426.378 348.271 426.81 347.655 427.065C347.039 427.32 346.361 427.387 345.707 427.257C345.052 427.127 344.451 426.806 343.98 426.335C343.508 425.864 343.187 425.264 343.057 424.611C342.927 423.958 342.994 423.281 343.249 422.666C343.505 422.05 343.937 421.525 344.492 421.155C345.047 420.785 345.699 420.588 346.366 420.588C347.26 420.589 348.116 420.944 348.748 421.575C349.38 422.206 349.735 423.061 349.736 423.953Z" fill="#00AD57" fill-opacity="0.2"/>
<path d="M368.919 423.953C368.92 424.619 368.722 425.27 368.352 425.824C367.982 426.378 367.455 426.81 366.839 427.065C366.223 427.32 365.545 427.387 364.891 427.257C364.237 427.127 363.636 426.807 363.164 426.336C362.692 425.865 362.371 425.265 362.241 424.612C362.11 423.959 362.177 423.282 362.432 422.667C362.688 422.052 363.12 421.526 363.674 421.156C364.229 420.786 364.881 420.588 365.548 420.588C366.442 420.589 367.299 420.943 367.931 421.574C368.563 422.205 368.919 423.061 368.919 423.953Z" fill="#00AD57" fill-opacity="0.2"/>
<path d="M388.107 423.953C388.107 424.619 387.91 425.27 387.539 425.824C387.169 426.378 386.643 426.81 386.026 427.065C385.41 427.32 384.732 427.387 384.078 427.257C383.424 427.127 382.823 426.807 382.351 426.336C381.88 425.865 381.558 425.265 381.428 424.612C381.298 423.959 381.365 423.282 381.62 422.667C381.875 422.051 382.307 421.526 382.862 421.156C383.416 420.786 384.068 420.588 384.735 420.588C385.629 420.589 386.486 420.944 387.118 421.575C387.75 422.205 388.106 423.061 388.107 423.953Z" fill="#00AD57" fill-opacity="0.2"/>
<path d="M407.287 423.953C407.287 424.619 407.09 425.27 406.719 425.824C406.349 426.378 405.822 426.81 405.206 427.065C404.59 427.32 403.912 427.387 403.257 427.257C402.603 427.127 402.002 426.806 401.53 426.335C401.059 425.864 400.738 425.264 400.608 424.611C400.478 423.958 400.545 423.281 400.8 422.666C401.055 422.05 401.488 421.525 402.043 421.155C402.598 420.785 403.25 420.588 403.917 420.588C404.81 420.589 405.667 420.944 406.299 421.575C406.931 422.206 407.286 423.061 407.287 423.953Z" fill="#00AD57" fill-opacity="0.2"/>
<path d="M311.373 444.904C311.372 445.569 311.175 446.22 310.804 446.774C310.433 447.327 309.906 447.759 309.29 448.013C308.674 448.268 307.996 448.334 307.342 448.204C306.688 448.074 306.087 447.753 305.616 447.282C305.145 446.812 304.824 446.212 304.694 445.559C304.564 444.906 304.63 444.229 304.886 443.614C305.141 442.999 305.573 442.473 306.128 442.103C306.682 441.733 307.334 441.536 308.001 441.536C308.444 441.536 308.883 441.623 309.292 441.792C309.701 441.962 310.073 442.21 310.386 442.522C310.699 442.835 310.947 443.206 311.116 443.615C311.286 444.024 311.373 444.461 311.373 444.904Z" fill="#00AD57" fill-opacity="0.2"/>
<path d="M330.552 444.904C330.552 445.569 330.354 446.22 329.984 446.774C329.613 447.327 329.086 447.759 328.47 448.013C327.854 448.268 327.176 448.334 326.522 448.204C325.868 448.074 325.267 447.753 324.796 447.282C324.324 446.812 324.003 446.212 323.873 445.559C323.743 444.906 323.81 444.229 324.065 443.614C324.321 442.999 324.753 442.473 325.307 442.103C325.862 441.733 326.514 441.536 327.181 441.536C327.624 441.536 328.062 441.623 328.471 441.792C328.881 441.961 329.252 442.21 329.565 442.522C329.879 442.835 330.127 443.206 330.296 443.615C330.466 444.024 330.553 444.461 330.552 444.904Z" fill="#00AD57" fill-opacity="0.2"/>
<path d="M349.736 444.904C349.736 445.57 349.538 446.22 349.167 446.774C348.796 447.327 348.269 447.759 347.653 448.013C347.037 448.268 346.359 448.334 345.705 448.204C345.051 448.074 344.45 447.753 343.979 447.282C343.507 446.811 343.186 446.211 343.057 445.558C342.927 444.904 342.994 444.228 343.25 443.613C343.505 442.997 343.938 442.472 344.492 442.102C345.047 441.733 345.699 441.536 346.366 441.536C346.809 441.536 347.247 441.623 347.656 441.792C348.065 441.962 348.437 442.21 348.75 442.523C349.063 442.835 349.311 443.207 349.48 443.615C349.649 444.024 349.736 444.462 349.736 444.904Z" fill="#00AD57" fill-opacity="0.2"/>
<path d="M368.919 444.904C368.919 445.569 368.721 446.22 368.351 446.774C367.98 447.327 367.453 447.758 366.837 448.013C366.221 448.268 365.543 448.334 364.889 448.204C364.235 448.074 363.634 447.753 363.163 447.282C362.691 446.811 362.37 446.212 362.24 445.559C362.11 444.906 362.177 444.229 362.433 443.614C362.688 442.999 363.12 442.473 363.675 442.103C364.229 441.733 364.881 441.536 365.548 441.536C365.991 441.536 366.429 441.623 366.839 441.792C367.248 441.961 367.62 442.209 367.933 442.522C368.246 442.835 368.494 443.206 368.663 443.615C368.833 444.023 368.92 444.461 368.919 444.904Z" fill="#00AD57" fill-opacity="0.2"/>
<path d="M388.107 444.904C388.107 445.569 387.909 446.22 387.538 446.774C387.167 447.327 386.641 447.758 386.024 448.013C385.408 448.268 384.73 448.334 384.076 448.204C383.422 448.074 382.822 447.753 382.35 447.282C381.879 446.811 381.558 446.211 381.428 445.558C381.298 444.905 381.365 444.229 381.62 443.614C381.875 442.998 382.308 442.473 382.862 442.103C383.417 441.733 384.069 441.536 384.735 441.536C385.178 441.536 385.617 441.623 386.026 441.792C386.435 441.962 386.807 442.21 387.12 442.522C387.433 442.835 387.681 443.206 387.851 443.615C388.02 444.024 388.107 444.461 388.107 444.904Z" fill="#00AD57" fill-opacity="0.2"/>
<path d="M407.287 444.904C407.287 445.57 407.089 446.22 406.718 446.774C406.347 447.327 405.82 447.759 405.204 448.013C404.588 448.268 403.91 448.334 403.256 448.204C402.602 448.074 402.001 447.753 401.529 447.282C401.058 446.811 400.737 446.211 400.607 445.558C400.478 444.904 400.545 444.228 400.8 443.612C401.056 442.997 401.488 442.472 402.043 442.102C402.598 441.733 403.25 441.536 403.917 441.536C404.36 441.536 404.798 441.623 405.207 441.793C405.616 441.962 405.987 442.21 406.3 442.523C406.613 442.836 406.862 443.207 407.031 443.615C407.2 444.024 407.287 444.462 407.287 444.904Z" fill="#00AD57" fill-opacity="0.2"/>
<path d="M311.373 465.852C311.373 466.518 311.175 467.169 310.805 467.723C310.434 468.277 309.908 468.708 309.292 468.963C308.675 469.218 307.997 469.285 307.343 469.155C306.689 469.025 306.088 468.704 305.617 468.234C305.145 467.763 304.824 467.163 304.694 466.51C304.564 465.857 304.63 465.18 304.886 464.565C305.141 463.949 305.573 463.424 306.128 463.054C306.682 462.684 307.334 462.486 308.001 462.486C308.444 462.486 308.882 462.573 309.291 462.742C309.7 462.911 310.072 463.159 310.385 463.472C310.698 463.785 310.947 464.156 311.116 464.564C311.286 464.972 311.373 465.41 311.373 465.852Z" fill="#00AD57" fill-opacity="0.2"/>
<path d="M330.552 465.852C330.553 466.518 330.355 467.169 329.984 467.723C329.614 468.277 329.087 468.708 328.471 468.963C327.855 469.218 327.177 469.285 326.523 469.155C325.869 469.025 325.268 468.704 324.796 468.234C324.325 467.763 324.004 467.163 323.873 466.51C323.743 465.857 323.81 465.18 324.065 464.565C324.321 463.949 324.753 463.424 325.307 463.054C325.862 462.684 326.514 462.486 327.181 462.486C327.624 462.486 328.062 462.573 328.471 462.742C328.88 462.911 329.252 463.159 329.565 463.472C329.878 463.784 330.126 464.156 330.296 464.564C330.465 464.972 330.552 465.41 330.552 465.852Z" fill="#00AD57" fill-opacity="0.2"/>
<path d="M349.736 465.852C349.736 466.518 349.538 467.169 349.168 467.723C348.797 468.277 348.271 468.708 347.655 468.963C347.038 469.218 346.36 469.285 345.706 469.155C345.052 469.025 344.451 468.704 343.979 468.233C343.508 467.762 343.187 467.162 343.057 466.509C342.927 465.856 342.994 465.179 343.249 464.563C343.505 463.948 343.937 463.423 344.492 463.053C345.047 462.683 345.699 462.486 346.366 462.486C346.809 462.486 347.247 462.573 347.656 462.743C348.065 462.912 348.437 463.16 348.75 463.472C349.062 463.785 349.311 464.156 349.48 464.564C349.649 464.973 349.736 465.41 349.736 465.852Z" fill="#00AD57" fill-opacity="0.2"/>
<path d="M368.919 465.852C368.919 466.518 368.722 467.169 368.351 467.723C367.981 468.276 367.454 468.708 366.838 468.963C366.222 469.218 365.544 469.285 364.89 469.155C364.236 469.025 363.635 468.704 363.164 468.233C362.692 467.763 362.371 467.163 362.241 466.51C362.11 465.857 362.177 465.18 362.432 464.565C362.688 463.949 363.12 463.424 363.674 463.054C364.229 462.684 364.881 462.486 365.548 462.486C365.991 462.486 366.429 462.573 366.838 462.742C367.247 462.911 367.619 463.159 367.932 463.472C368.245 463.784 368.494 464.155 368.663 464.564C368.833 464.972 368.92 465.41 368.919 465.852Z" fill="#00AD57" fill-opacity="0.2"/>
<path d="M388.107 465.852C388.107 466.518 387.909 467.169 387.539 467.723C387.168 468.276 386.642 468.708 386.026 468.963C385.41 469.218 384.732 469.285 384.078 469.155C383.423 469.025 382.823 468.704 382.351 468.233C381.879 467.763 381.558 467.163 381.428 466.51C381.298 465.857 381.365 465.18 381.62 464.564C381.875 463.949 382.307 463.424 382.862 463.054C383.417 462.684 384.068 462.486 384.735 462.486C385.178 462.486 385.617 462.573 386.026 462.742C386.435 462.912 386.806 463.159 387.119 463.472C387.433 463.785 387.681 464.156 387.85 464.564C388.02 464.972 388.107 465.41 388.107 465.852Z" fill="#00AD57" fill-opacity="0.2"/>
<path d="M407.287 465.852C407.287 466.518 407.089 467.169 406.719 467.723C406.348 468.277 405.821 468.708 405.205 468.963C404.589 469.218 403.911 469.285 403.257 469.155C402.603 469.025 402.002 468.704 401.53 468.233C401.059 467.762 400.738 467.162 400.608 466.509C400.478 465.856 400.545 465.179 400.8 464.563C401.056 463.948 401.488 463.423 402.043 463.053C402.598 462.683 403.25 462.486 403.917 462.486C404.811 462.487 405.668 462.841 406.3 463.472C406.932 464.104 407.287 464.96 407.287 465.852Z" fill="#00AD57" fill-opacity="0.2"/>
<path d="M808.213 224.34C808.213 224.831 808.068 225.31 807.795 225.717C807.523 226.125 807.135 226.442 806.682 226.63C806.228 226.818 805.729 226.867 805.248 226.771C804.766 226.676 804.324 226.44 803.977 226.093C803.63 225.746 803.393 225.305 803.298 224.824C803.202 224.344 803.251 223.845 803.439 223.393C803.627 222.94 803.945 222.553 804.353 222.281C804.761 222.008 805.241 221.863 805.732 221.863C806.39 221.863 807.021 222.125 807.486 222.589C807.952 223.054 808.213 223.684 808.213 224.34Z" fill="#00AD57"/>
<path d="M822.334 224.34C822.334 224.831 822.188 225.31 821.916 225.717C821.643 226.124 821.256 226.442 820.802 226.63C820.349 226.817 819.85 226.866 819.368 226.771C818.887 226.675 818.445 226.439 818.098 226.093C817.751 225.746 817.515 225.305 817.419 224.824C817.323 224.343 817.372 223.845 817.56 223.393C817.748 222.94 818.066 222.553 818.474 222.281C818.882 222.008 819.362 221.863 819.853 221.863C820.511 221.863 821.142 222.124 821.607 222.589C822.072 223.054 822.334 223.684 822.334 224.34Z" fill="#00AD57"/>
<path d="M836.448 224.34C836.448 224.831 836.303 225.31 836.03 225.718C835.757 226.125 835.37 226.443 834.916 226.631C834.463 226.818 833.963 226.867 833.482 226.772C833 226.676 832.558 226.44 832.211 226.093C831.864 225.746 831.628 225.305 831.532 224.824C831.436 224.343 831.486 223.845 831.674 223.392C831.862 222.939 832.18 222.552 832.589 222.28C832.997 222.008 833.477 221.863 833.968 221.863C834.626 221.863 835.257 222.125 835.722 222.589C836.187 223.054 836.448 223.684 836.448 224.34Z" fill="#00AD57"/>
<path d="M850.569 224.34C850.569 224.831 850.423 225.31 850.151 225.717C849.878 226.125 849.49 226.442 849.037 226.63C848.583 226.818 848.084 226.867 847.603 226.771C847.121 226.675 846.679 226.439 846.332 226.093C845.985 225.746 845.749 225.305 845.653 224.824C845.557 224.343 845.607 223.845 845.795 223.392C845.983 222.94 846.301 222.553 846.709 222.28C847.117 222.008 847.597 221.863 848.088 221.863C848.414 221.863 848.736 221.927 849.037 222.052C849.338 222.176 849.612 222.359 849.842 222.589C850.073 222.819 850.255 223.092 850.38 223.393C850.505 223.693 850.569 224.015 850.569 224.34Z" fill="#00AD57"/>
<path d="M864.69 224.34C864.69 224.831 864.545 225.31 864.272 225.717C863.999 226.125 863.612 226.442 863.158 226.63C862.705 226.818 862.206 226.867 861.725 226.771C861.243 226.676 860.801 226.44 860.454 226.093C860.107 225.747 859.87 225.305 859.774 224.825C859.678 224.344 859.728 223.846 859.915 223.393C860.103 222.94 860.421 222.553 860.829 222.281C861.237 222.009 861.717 221.863 862.208 221.863C862.866 221.863 863.497 222.124 863.962 222.589C864.428 223.053 864.69 223.683 864.69 224.34Z" fill="#00AD57"/>
<path d="M878.804 224.34C878.804 224.831 878.659 225.31 878.386 225.718C878.113 226.125 877.726 226.443 877.272 226.631C876.819 226.819 876.319 226.868 875.838 226.772C875.356 226.676 874.914 226.44 874.567 226.094C874.219 225.747 873.983 225.305 873.887 224.824C873.792 224.344 873.841 223.845 874.029 223.392C874.217 222.939 874.536 222.552 874.944 222.28C875.352 222.008 875.832 221.863 876.323 221.863C876.981 221.864 877.612 222.125 878.077 222.589C878.542 223.054 878.804 223.684 878.804 224.34Z" fill="#00AD57"/>
<path d="M808.213 239.757C808.214 240.247 808.068 240.727 807.796 241.134C807.523 241.542 807.136 241.86 806.682 242.048C806.229 242.235 805.73 242.284 805.248 242.189C804.767 242.094 804.324 241.858 803.977 241.511C803.63 241.165 803.394 240.723 803.298 240.242C803.202 239.762 803.251 239.263 803.439 238.811C803.627 238.358 803.945 237.971 804.353 237.698C804.761 237.426 805.241 237.281 805.732 237.281C806.39 237.281 807.021 237.542 807.486 238.007C807.951 238.471 808.213 239.101 808.213 239.757Z" fill="#00AD57"/>
<path d="M822.334 239.757C822.334 240.247 822.189 240.727 821.916 241.134C821.644 241.542 821.256 241.859 820.803 242.047C820.35 242.235 819.85 242.284 819.369 242.189C818.888 242.093 818.445 241.857 818.098 241.511C817.751 241.164 817.515 240.723 817.419 240.242C817.323 239.762 817.372 239.263 817.56 238.811C817.748 238.358 818.066 237.971 818.474 237.699C818.882 237.426 819.362 237.281 819.853 237.281C820.511 237.281 821.141 237.542 821.607 238.007C822.072 238.471 822.333 239.101 822.334 239.757Z" fill="#00AD57"/>
<path d="M836.448 239.757C836.449 240.248 836.303 240.727 836.031 241.135C835.758 241.542 835.37 241.86 834.917 242.048C834.463 242.236 833.964 242.285 833.482 242.189C833.001 242.094 832.559 241.858 832.211 241.511C831.864 241.165 831.628 240.723 831.532 240.242C831.436 239.761 831.486 239.263 831.674 238.81C831.862 238.357 832.18 237.97 832.588 237.698C832.997 237.426 833.477 237.281 833.968 237.281C834.626 237.281 835.256 237.542 835.721 238.007C836.186 238.471 836.448 239.101 836.448 239.757Z" fill="#00AD57"/>
<path d="M850.569 239.757C850.569 240.247 850.424 240.727 850.151 241.134C849.879 241.542 849.491 241.86 849.038 242.048C848.584 242.235 848.085 242.284 847.604 242.189C847.122 242.093 846.68 241.857 846.333 241.511C845.985 241.164 845.749 240.723 845.653 240.242C845.557 239.761 845.607 239.263 845.795 238.81C845.982 238.357 846.301 237.97 846.709 237.698C847.117 237.426 847.597 237.281 848.088 237.281C848.746 237.281 849.377 237.542 849.842 238.006C850.307 238.471 850.569 239.101 850.569 239.757Z" fill="#00AD57"/>
<path d="M864.69 239.757C864.69 240.247 864.545 240.727 864.272 241.134C864 241.542 863.612 241.86 863.159 242.047C862.706 242.235 862.207 242.284 861.725 242.189C861.244 242.094 860.801 241.858 860.454 241.511C860.107 241.165 859.87 240.724 859.774 240.243C859.678 239.762 859.727 239.264 859.915 238.811C860.103 238.358 860.421 237.971 860.829 237.699C861.237 237.427 861.717 237.281 862.208 237.281C862.866 237.281 863.497 237.542 863.962 238.006C864.427 238.471 864.689 239.1 864.69 239.757Z" fill="#00AD57"/>
<path d="M878.804 239.757C878.804 240.248 878.659 240.727 878.387 241.135C878.114 241.543 877.726 241.861 877.273 242.048C876.819 242.236 876.32 242.285 875.838 242.19C875.357 242.094 874.914 241.858 874.567 241.512C874.22 241.165 873.983 240.723 873.887 240.242C873.792 239.762 873.841 239.263 874.029 238.81C874.217 238.357 874.535 237.97 874.944 237.698C875.352 237.426 875.832 237.281 876.323 237.281C876.981 237.282 877.612 237.543 878.077 238.007C878.542 238.471 878.803 239.101 878.804 239.757Z" fill="#00AD57"/>
<path d="M808.213 255.176C808.213 255.666 808.068 256.145 807.795 256.552C807.522 256.96 807.135 257.277 806.681 257.465C806.228 257.652 805.729 257.701 805.247 257.606C804.766 257.51 804.324 257.274 803.977 256.927C803.63 256.581 803.393 256.139 803.298 255.658C803.202 255.178 803.251 254.68 803.439 254.227C803.627 253.774 803.945 253.387 804.353 253.115C804.761 252.843 805.241 252.698 805.732 252.698C806.39 252.698 807.021 252.959 807.487 253.424C807.952 253.888 808.213 254.519 808.213 255.176Z" fill="#00AD57"/>
<path d="M822.334 255.176C822.334 255.666 822.188 256.145 821.916 256.552C821.643 256.959 821.255 257.277 820.802 257.464C820.348 257.652 819.849 257.701 819.368 257.605C818.887 257.509 818.445 257.273 818.098 256.927C817.751 256.58 817.514 256.139 817.419 255.658C817.323 255.178 817.372 254.68 817.56 254.227C817.748 253.774 818.066 253.387 818.474 253.115C818.882 252.843 819.362 252.698 819.853 252.698C820.511 252.698 821.142 252.959 821.607 253.424C822.073 253.888 822.334 254.519 822.334 255.176Z" fill="#00AD57"/>
<path d="M836.448 255.176C836.448 255.666 836.303 256.145 836.03 256.553C835.757 256.96 835.369 257.278 834.916 257.465C834.462 257.653 833.963 257.702 833.481 257.606C833 257.51 832.558 257.274 832.211 256.927C831.864 256.581 831.627 256.139 831.532 255.658C831.436 255.177 831.486 254.679 831.674 254.226C831.862 253.774 832.18 253.387 832.589 253.115C832.997 252.842 833.477 252.697 833.968 252.698C834.294 252.698 834.616 252.762 834.917 252.887C835.218 253.011 835.492 253.194 835.722 253.424C835.952 253.654 836.135 253.927 836.26 254.228C836.384 254.528 836.448 254.85 836.448 255.176Z" fill="#00AD57"/>
<path d="M850.569 255.176C850.569 255.666 850.423 256.145 850.15 256.552C849.878 256.96 849.49 257.277 849.036 257.465C848.583 257.652 848.084 257.701 847.603 257.606C847.121 257.51 846.679 257.274 846.332 256.927C845.985 256.58 845.749 256.139 845.653 255.658C845.557 255.178 845.607 254.679 845.795 254.227C845.983 253.774 846.301 253.387 846.709 253.115C847.117 252.843 847.597 252.698 848.088 252.698C848.414 252.698 848.737 252.762 849.038 252.886C849.339 253.011 849.612 253.193 849.843 253.424C850.073 253.654 850.256 253.927 850.38 254.227C850.505 254.528 850.569 254.85 850.569 255.176Z" fill="#00AD57"/>
<path d="M864.69 255.176C864.69 255.666 864.544 256.145 864.272 256.552C863.999 256.96 863.611 257.277 863.158 257.465C862.704 257.652 862.205 257.701 861.724 257.606C861.243 257.51 860.801 257.274 860.454 256.928C860.106 256.581 859.87 256.14 859.774 255.659C859.678 255.178 859.728 254.68 859.915 254.228C860.103 253.775 860.421 253.388 860.829 253.116C861.237 252.843 861.717 252.698 862.208 252.698C862.866 252.698 863.497 252.959 863.963 253.424C864.428 253.888 864.69 254.518 864.69 255.176Z" fill="#00AD57"/>
<path d="M878.804 255.176C878.804 255.666 878.659 256.145 878.386 256.553C878.113 256.96 877.725 257.278 877.272 257.466C876.818 257.653 876.319 257.702 875.837 257.606C875.356 257.511 874.914 257.275 874.566 256.928C874.219 256.581 873.983 256.139 873.887 255.659C873.792 255.178 873.841 254.679 874.029 254.227C874.217 253.774 874.536 253.387 874.944 253.115C875.352 252.843 875.832 252.697 876.323 252.698C876.981 252.698 877.612 252.959 878.077 253.424C878.543 253.889 878.804 254.519 878.804 255.176Z" fill="#00AD57"/>
<path d="M808.213 270.593C808.213 271.083 808.068 271.562 807.795 271.97C807.522 272.377 807.135 272.695 806.681 272.882C806.228 273.07 805.729 273.119 805.247 273.023C804.766 272.928 804.324 272.692 803.977 272.345C803.63 271.999 803.393 271.557 803.298 271.076C803.202 270.596 803.251 270.097 803.439 269.645C803.627 269.192 803.945 268.805 804.353 268.533C804.761 268.261 805.241 268.115 805.732 268.115C806.058 268.115 806.381 268.179 806.682 268.304C806.983 268.428 807.257 268.611 807.487 268.841C807.717 269.071 807.9 269.344 808.025 269.645C808.149 269.945 808.213 270.268 808.213 270.593Z" fill="#00AD57"/>
<path d="M822.334 270.593C822.334 271.083 822.188 271.562 821.916 271.969C821.643 272.377 821.256 272.694 820.802 272.882C820.349 273.069 819.85 273.118 819.368 273.023C818.887 272.927 818.445 272.691 818.098 272.345C817.751 271.998 817.514 271.557 817.419 271.076C817.323 270.596 817.372 270.097 817.56 269.645C817.748 269.192 818.066 268.805 818.474 268.533C818.882 268.261 819.362 268.115 819.853 268.115C820.179 268.115 820.501 268.179 820.802 268.304C821.104 268.428 821.377 268.611 821.608 268.841C821.838 269.071 822.021 269.344 822.145 269.645C822.27 269.945 822.334 270.268 822.334 270.593Z" fill="#00AD57"/>
<path d="M836.448 270.593C836.448 271.083 836.303 271.562 836.03 271.97C835.757 272.378 835.37 272.695 834.916 272.883C834.462 273.07 833.963 273.119 833.482 273.024C833 272.928 832.558 272.692 832.211 272.345C831.864 271.999 831.628 271.557 831.532 271.076C831.436 270.595 831.486 270.097 831.674 269.644C831.862 269.191 832.18 268.804 832.589 268.532C832.997 268.26 833.477 268.115 833.968 268.115C834.294 268.115 834.616 268.179 834.917 268.304C835.219 268.428 835.492 268.611 835.722 268.841C835.953 269.071 836.135 269.344 836.26 269.645C836.384 269.945 836.448 270.268 836.448 270.593Z" fill="#00AD57"/>
<path d="M850.569 270.593C850.569 271.083 850.423 271.562 850.151 271.97C849.878 272.377 849.49 272.695 849.037 272.882C848.583 273.07 848.084 273.119 847.603 273.023C847.121 272.928 846.679 272.692 846.332 272.345C845.985 271.998 845.749 271.557 845.653 271.076C845.557 270.595 845.607 270.097 845.795 269.644C845.983 269.192 846.301 268.805 846.709 268.533C847.117 268.26 847.597 268.115 848.088 268.115C848.414 268.115 848.737 268.179 849.038 268.304C849.339 268.428 849.612 268.611 849.843 268.841C850.073 269.071 850.256 269.344 850.38 269.645C850.505 269.945 850.569 270.268 850.569 270.593Z" fill="#00AD57"/>
<path d="M864.69 270.593C864.69 271.083 864.544 271.562 864.272 271.97C863.999 272.377 863.612 272.695 863.158 272.882C862.705 273.07 862.206 273.119 861.724 273.023C861.243 272.928 860.801 272.692 860.454 272.345C860.107 271.999 859.87 271.558 859.774 271.077C859.679 270.596 859.728 270.098 859.915 269.645C860.103 269.193 860.421 268.806 860.829 268.533C861.237 268.261 861.717 268.116 862.208 268.115C862.534 268.115 862.856 268.179 863.158 268.304C863.459 268.428 863.732 268.611 863.963 268.841C864.193 269.071 864.376 269.344 864.501 269.645C864.626 269.945 864.69 270.268 864.69 270.593Z" fill="#00AD57"/>
<path d="M878.804 270.593C878.804 271.083 878.659 271.562 878.386 271.97C878.113 272.378 877.726 272.696 877.272 272.883C876.818 273.071 876.319 273.12 875.838 273.024C875.356 272.929 874.914 272.692 874.567 272.346C874.219 271.999 873.983 271.557 873.887 271.077C873.792 270.596 873.841 270.097 874.029 269.644C874.217 269.192 874.536 268.805 874.944 268.532C875.352 268.26 875.832 268.115 876.323 268.115C876.981 268.116 877.612 268.377 878.078 268.841C878.543 269.306 878.804 269.936 878.804 270.593Z" fill="#00AD57"/>
<path d="M595.781 603.353C595.781 603.353 576.902 508.772 594.094 515.167C611.288 521.563 613.647 594.602 605.894 605.036" fill="#00AD57"/>
<path d="M595.781 603.353C595.781 603.353 576.902 508.772 594.094 515.167C611.288 521.563 613.647 594.602 605.894 605.036" stroke="#28A49D" stroke-width="0.886623" stroke-miterlimit="10"/>
<path d="M593.95 606.835C593.95 606.835 590.589 568.214 572.089 570.228C553.589 572.245 580.499 603.811 585.206 606.835" fill="#00AD57" fill-opacity="0.2"/>
<path d="M593.95 606.835C593.95 606.835 590.589 568.214 572.089 570.228C553.589 572.245 580.499 603.811 585.206 606.835" stroke="#28A49D" stroke-width="0.886623" stroke-linecap="round" stroke-linejoin="round"/>
<path d="M572.422 554.445C572.422 554.445 567.378 569.557 580.832 566.871C594.288 564.183 590.377 563.678 590.377 563.678" fill="#00AD57" fill-opacity="0.2"/>
<path d="M572.422 554.445C572.422 554.445 567.378 569.557 580.832 566.871C594.288 564.183 590.377 563.678 590.377 563.678" stroke="#28A49D" stroke-width="0.886623" stroke-miterlimit="10"/>
<path d="M597.985 606.498C597.985 606.498 593.611 548.736 587.221 546.385C580.83 544.035 570.067 549.072 572.42 554.445C574.777 559.818 590.586 606.835 590.586 606.835" fill="#DCF6F4"/>
<path d="M597.985 606.498C597.985 606.498 593.611 548.736 587.221 546.385C580.83 544.035 570.067 549.072 572.42 554.445C574.777 559.818 590.586 606.835 590.586 606.835" stroke="#28A49D" stroke-width="0.886623" stroke-linecap="round" stroke-linejoin="round"/>
<path d="M636.234 543.105C636.234 543.105 640.616 561.28 632.189 567.339C623.761 573.395 617.357 562.29 617.357 562.29L616.008 542.432" fill="#00AD57" fill-opacity="0.2"/>
<path d="M636.234 543.105C636.234 543.105 640.616 561.28 632.189 567.339C623.761 573.395 617.357 562.29 617.357 562.29L616.008 542.432" stroke="#28A49D" stroke-width="0.886623" stroke-miterlimit="10"/>
<path d="M601.512 605.372C601.512 605.372 606.233 528.632 622.751 533.342C639.269 538.057 636.235 547.144 636.235 547.144C636.235 547.144 632.19 543.442 629.83 548.153C627.47 552.867 615.333 606.72 615.333 606.72" fill="#DCF6F4"/>
<path d="M601.512 605.372C601.512 605.372 606.233 528.632 622.751 533.342C639.269 538.057 636.235 547.144 636.235 547.144C636.235 547.144 632.19 543.442 629.83 548.153C627.47 552.867 615.333 606.72 615.333 606.72" stroke="#28A49D" stroke-width="0.886623" stroke-linecap="round" stroke-linejoin="round"/>
<path d="M608.949 605.522C608.949 605.522 615.698 567.347 633.949 570.978C652.199 574.609 622.617 603.691 617.66 606.29" fill="#00AD57" fill-opacity="0.2"/>
<path d="M608.949 605.522C608.949 605.522 615.698 567.347 633.949 570.978C652.199 574.609 622.617 603.691 617.66 606.29" stroke="#28A49D" stroke-width="0.886623" stroke-miterlimit="10"/>
<path d="M593.758 519.88C593.758 519.88 602.616 575.062 599.581 605.354" stroke="#28A49D" stroke-width="0.591082" stroke-linecap="round" stroke-linejoin="round"/>
<path d="M580.945 549.501C580.945 549.501 592.406 589.553 593.419 603.353" stroke="#28A49D" stroke-width="0.591082" stroke-linecap="round" stroke-linejoin="round"/>
<path d="M571.844 575.417C571.844 575.417 585.327 595.613 587.351 604.362" stroke="#28A49D" stroke-width="0.591082" stroke-linecap="round" stroke-linejoin="round"/>
<path d="M623.421 538.73C623.421 538.73 609.598 580.128 605.891 602.681" stroke="#28A49D" stroke-width="0.591082" stroke-linecap="round" stroke-linejoin="round"/>
<path d="M612.462 605.129L612.137 604.946C619.808 591.292 630.586 577.129 630.693 576.988L630.989 577.213C630.881 577.354 620.12 591.499 612.462 605.129Z" stroke="#28A49D" stroke-width="0.591082" stroke-linecap="round" stroke-linejoin="round"/>
<path d="M630.843 603.694H575.105V616.144H630.843V603.694Z" fill="#00AD57" stroke="#28A49D" stroke-width="0.886623" stroke-miterlimit="10"/>
<path d="M1071.65 422.734V415.371H1065.75C1065.27 412.954 1064.31 410.655 1062.94 408.608L1067.11 404.44L1061.9 399.233L1057.73 403.4C1055.68 402.029 1053.37 401.077 1050.95 400.597V394.706H1043.58V400.597C1041.16 401.077 1038.85 402.029 1036.8 403.4L1032.63 399.233L1027.41 404.44L1031.59 408.608C1030.22 410.656 1029.26 412.954 1028.78 415.371H1022.88V422.734H1028.78C1029.26 425.151 1030.22 427.449 1031.59 429.497L1027.41 433.665L1032.63 438.872L1036.8 434.705C1038.85 436.076 1041.16 437.029 1043.58 437.509V443.399H1050.95V437.509C1053.37 437.029 1055.68 436.076 1057.73 434.705L1061.9 438.872L1067.11 433.665L1062.94 429.497C1064.31 427.45 1065.27 425.151 1065.75 422.734H1071.65ZM1047.27 429.488C1045.2 429.488 1043.18 428.876 1041.46 427.73C1039.74 426.583 1038.4 424.954 1037.61 423.047C1036.82 421.14 1036.61 419.042 1037.01 417.018C1037.42 414.994 1038.41 413.134 1039.87 411.675C1041.33 410.215 1043.2 409.221 1045.22 408.819C1047.25 408.416 1049.35 408.622 1051.26 409.412C1053.17 410.202 1054.81 411.539 1055.95 413.255C1057.1 414.971 1057.72 416.989 1057.72 419.053C1057.72 421.82 1056.61 424.474 1054.65 426.431C1052.7 428.387 1050.04 429.487 1047.27 429.488Z" fill="#00AD57" fill-opacity="0.2"/>
<path d="M834.55 229.105V223.942H830.411C830.075 222.247 829.406 220.635 828.443 219.199L831.37 216.277L827.713 212.626L824.786 215.548C823.348 214.586 821.734 213.918 820.036 213.582V209.451H814.866V213.582C813.167 213.918 811.553 214.587 810.114 215.548L807.188 212.626L803.531 216.277L806.459 219.199C805.496 220.635 804.826 222.247 804.49 223.942H800.352V229.105H804.49C804.826 230.8 805.496 232.412 806.459 233.847L803.531 236.769L807.188 240.421L810.114 237.499C811.553 238.46 813.168 239.128 814.866 239.465V243.595H820.036V239.465C821.734 239.128 823.348 238.46 824.786 237.499L827.713 240.421L831.37 236.769L828.443 233.847C829.406 232.412 830.075 230.8 830.411 229.105H834.55ZM817.451 233.84C816.002 233.841 814.585 233.412 813.38 232.608C812.174 231.804 811.235 230.661 810.68 229.324C810.125 227.987 809.98 226.516 810.263 225.096C810.545 223.677 811.243 222.373 812.268 221.35C813.293 220.327 814.599 219.63 816.02 219.347C817.442 219.065 818.916 219.21 820.255 219.763C821.594 220.317 822.739 221.255 823.544 222.458C824.349 223.661 824.779 225.076 824.779 226.523C824.779 228.464 824.007 230.325 822.633 231.697C821.259 233.069 819.395 233.84 817.451 233.84Z" fill="#00AD57"/>
<path d="M836.138 565.369C836.138 567.095 835.798 568.804 835.137 570.398C834.476 571.992 833.506 573.441 832.284 574.661C831.062 575.881 829.611 576.849 828.014 577.509C826.417 578.169 824.706 578.508 822.977 578.508H728.224C726.496 578.508 724.784 578.169 723.188 577.509C721.591 576.848 720.14 575.881 718.918 574.661C717.697 573.44 716.727 571.992 716.066 570.398C715.406 568.803 715.066 567.095 715.066 565.369C715.066 563.644 715.405 561.935 716.066 560.341C716.727 558.746 717.696 557.298 718.918 556.077C720.14 554.857 721.591 553.889 723.188 553.229C724.784 552.569 726.496 552.229 728.224 552.229H822.977C824.706 552.229 826.417 552.568 828.014 553.229C829.611 553.889 831.062 554.857 832.284 556.077C833.506 557.297 834.476 558.746 835.137 560.34C835.798 561.935 836.138 563.644 836.138 565.369Z" fill="white" stroke="#28A49D" stroke-width="0.886623" stroke-linecap="round" stroke-linejoin="round"/>
<path d="M836.138 489.686C836.138 491.411 835.798 493.12 835.137 494.714C834.476 496.309 833.506 497.757 832.284 498.978C831.062 500.198 829.611 501.166 828.014 501.826C826.417 502.486 824.706 502.825 822.977 502.825H728.224C726.496 502.825 724.784 502.486 723.188 501.825C721.591 501.165 720.14 500.197 718.918 498.977C717.696 497.757 716.727 496.308 716.066 494.714C715.405 493.12 715.066 491.411 715.066 489.686C715.066 487.96 715.405 486.252 716.066 484.657C716.727 483.063 717.696 481.615 718.918 480.394C720.14 479.174 721.591 478.207 723.188 477.547C724.784 476.887 726.496 476.547 728.224 476.548H822.977C824.706 476.547 826.417 476.886 828.014 477.546C829.611 478.206 831.062 479.174 832.284 480.394C833.506 481.614 834.476 483.063 835.137 484.657C835.798 486.251 836.138 487.96 836.138 489.686Z" fill="white" stroke="#28A49D" stroke-width="0.886623" stroke-linecap="round" stroke-linejoin="round"/>
<path d="M778.852 493.722C778.853 494.55 778.689 495.371 778.372 496.136C778.055 496.902 777.589 497.597 777.003 498.183C776.416 498.769 775.719 499.234 774.953 499.551C774.186 499.868 773.364 500.031 772.534 500.031H727.044C726.214 500.031 725.392 499.868 724.626 499.551C723.859 499.234 723.162 498.769 722.576 498.184C721.989 497.598 721.524 496.902 721.206 496.136C720.889 495.371 720.726 494.55 720.727 493.722C720.726 492.893 720.889 492.073 721.207 491.308C721.524 490.542 721.989 489.847 722.576 489.261C723.163 488.675 723.859 488.211 724.626 487.894C725.393 487.577 726.214 487.414 727.044 487.414H772.534C773.364 487.414 774.186 487.577 774.952 487.894C775.719 488.211 776.415 488.675 777.002 489.261C777.589 489.847 778.054 490.542 778.372 491.308C778.689 492.073 778.852 492.893 778.852 493.722Z" fill="#00AD57" fill-opacity="0.2"/>
<path d="M781.028 568.557C781.029 569.385 780.866 570.206 780.548 570.971C780.231 571.737 779.766 572.432 779.179 573.018C778.592 573.604 777.895 574.069 777.129 574.386C776.362 574.703 775.54 574.866 774.711 574.866H729.22C728.39 574.866 727.568 574.703 726.802 574.386C726.035 574.069 725.338 573.604 724.752 573.018C724.165 572.433 723.7 571.737 723.382 570.971C723.065 570.206 722.902 569.385 722.902 568.557C722.902 567.729 723.065 566.908 723.382 566.143C723.7 565.377 724.165 564.682 724.752 564.096C725.338 563.51 726.035 563.046 726.802 562.729C727.568 562.412 728.39 562.249 729.22 562.25H774.711C775.54 562.249 776.362 562.412 777.129 562.729C777.895 563.046 778.592 563.51 779.179 564.096C779.765 564.682 780.231 565.377 780.548 566.143C780.866 566.908 781.029 567.729 781.028 568.557Z" fill="#00AD57" fill-opacity="0.2"/>
<path d="M1106.9 519.841C1106.9 519.841 1237.59 529.434 1306.48 487.529" stroke="#28A49D" stroke-width="1.4777" stroke-linecap="round" stroke-linejoin="round"/>
<path d="M1036.06 575.939L1043.52 591.775L1028.51 596.045L1021.59 579.976" fill="white"/>
<path d="M1036.06 575.939L1043.52 591.775L1028.51 596.045L1021.59 579.976" stroke="#28A49D" stroke-width="0.886623" stroke-linecap="round" stroke-linejoin="round"/>
<path d="M942.287 585.954L946.485 602.643L931.713 606.447L931.09 587.273" fill="white"/>
<path d="M942.287 585.954L946.485 602.643L931.713 606.447L931.09 587.273" stroke="#28A49D" stroke-width="0.886623" stroke-linecap="round" stroke-linejoin="round"/>
<path d="M957.741 387.567C957.741 387.567 977.905 399.689 983.585 416.702C989.265 433.714 995.23 508.287 1004.6 520.729C1013.97 533.17 1044.53 573.843 1044.53 573.843L1021.13 587.273C1021.13 587.273 986.141 539.548 977.905 525.725C969.669 511.904 956.037 449.523 956.037 449.523C956.037 449.523 938.43 497.789 937.578 517.637C936.726 537.486 950.918 590.999 950.918 590.999L927.359 591.697C927.359 591.697 912.586 541.384 911.165 515.368C909.746 489.355 927.921 412.799 927.921 412.799" fill="#00AD57"/>
<path d="M881.587 431.148C885.775 417.984 887.798 402.625 884.042 386.575C873.392 341.065 860.188 362.756 860.188 375.091C860.188 375.091 864.564 400.85 862.211 426.771C865.717 429.274 871.755 431.795 881.587 431.148Z" fill="#00AD57" fill-opacity="0.2" stroke="#28A49D" stroke-width="0.886623" stroke-linecap="round" stroke-linejoin="round"/>
<path d="M862.211 426.771C860.75 442.85 856.703 458.992 847.406 469.087L858.908 472.064C858.908 472.064 873.899 455.308 881.586 431.148C871.755 431.795 865.716 429.274 862.211 426.771Z" fill="white" stroke="#28A49D" stroke-width="0.886623" stroke-linecap="round" stroke-linejoin="round"/>
<path d="M857.629 374.666C857.629 374.666 861.889 349.996 887.876 353.399C913.861 356.802 957.738 387.426 957.738 387.426C957.738 387.426 942.403 418.9 929.623 419.325C916.843 419.75 857.629 394.656 857.629 376.367" fill="#00AD57"/>
<path d="M849.112 470.15L844.212 478.87L833.988 487.377L856.779 488.865L854.648 482.06L857.206 471.853" fill="#00AD57" fill-opacity="0.2"/>
<path d="M849.112 470.15L844.212 478.87L833.988 487.377L856.779 488.865L854.648 482.06L857.206 471.853" stroke="#28A49D" stroke-width="0.886623" stroke-linecap="round" stroke-linejoin="round"/>
<path d="M886.811 397.951C886.811 397.951 875.949 380.054 880.21 369.562C884.468 359.072 888.535 358.38 888.535 358.38C888.535 358.38 869.772 350.423 865.937 366.371C862.103 382.322 875.842 393.168 875.842 393.168L886.811 397.951Z" fill="#00AD57" fill-opacity="0.2"/>
<path d="M891.498 393.877C891.498 393.877 875.524 359.922 901.793 362.473C923.707 364.601 936.027 387.386 932.335 393.2C928.642 399.013 891.498 393.877 891.498 393.877Z" fill="#00AD57" fill-opacity="0.2"/>
<path d="M1030.63 608.239L1031.97 605.866L1048.38 602.054L1050.54 606.364C1050.54 606.364 1003.29 619.652 1001.87 616.221C1001.41 615.124 1001.04 614.501 1001.03 613.912L1030.63 608.239Z" fill="#00AD57" fill-opacity="0.2" stroke="#28A49D" stroke-width="0.886623" stroke-linecap="round" stroke-linejoin="round"/>
<path d="M1030.63 608.238L1001.03 613.912C1001.02 612.659 998.713 611.682 1004.93 606.565C1008.3 603.789 1016.15 602.386 1018.61 599.814C1021.18 597.092 1023.2 593.898 1024.56 590.409C1024.56 590.409 1032.2 597.138 1035.53 595.088C1038.87 593.036 1042.86 591.024 1042.86 591.024L1048.38 602.054L1031.97 605.865L1030.63 608.238Z" fill="#00AD57" fill-opacity="0.2" stroke="#28A49D" stroke-width="0.886623" stroke-linecap="round" stroke-linejoin="round"/>
<path d="M932.239 614.407L934.001 612.328L950.836 611.671L952.143 616.312C952.143 616.312 903.23 620.472 902.48 616.833C902.241 615.672 901.99 614.987 902.095 614.408L932.239 614.407Z" fill="#00AD57" fill-opacity="0.2" stroke="#28A49D" stroke-width="0.886623" stroke-linecap="round" stroke-linejoin="round"/>
<path d="M932.24 614.407L902.096 614.409C902.32 613.176 900.245 611.783 907.314 607.927C911.147 605.837 919.119 605.934 922.025 603.872C925.065 601.684 927.65 598.927 929.638 595.754C929.638 595.754 935.877 603.801 939.539 602.415C943.199 601.028 947.495 599.799 947.495 599.799L950.837 611.672L934.003 612.328L932.24 614.407Z" fill="#00AD57" fill-opacity="0.2" stroke="#28A49D" stroke-width="0.886623" stroke-linecap="round" stroke-linejoin="round"/>
<path d="M864.23 361.906L874.562 362.332C874.562 362.332 878.207 366.854 877.436 371.742C876.691 376.474 873.656 379.026 870.408 379.397C867.16 379.77 865.083 372.645 865.083 372.645" fill="white"/>
<path d="M864.23 361.906L874.562 362.332C874.562 362.332 878.207 366.854 877.436 371.742C876.691 376.474 873.656 379.026 870.408 379.397C867.16 379.77 865.083 372.645 865.083 372.645" stroke="#28A49D" stroke-width="0.886623" stroke-linecap="round" stroke-linejoin="round"/>
<path d="M845.277 372.397C845.277 372.397 858.341 398.484 864.021 391.111C869.702 383.739 867.854 362.756 867.854 362.756C867.854 362.756 856.637 361.055 845.277 372.397Z" fill="white" stroke="#28A49D" stroke-width="0.886623" stroke-linecap="round" stroke-linejoin="round"/>
<path d="M859.617 370.412L864.02 372.752C864.02 372.752 863.026 370.27 864.517 369.632C866.008 368.994 869.06 370.838 868.279 373.957L871.261 369.278L867.783 360.418" fill="#00AD57"/>
<path d="M868.279 360.489C868.279 360.489 867.57 347.658 855.003 349.359C847.685 350.349 832.78 363.042 843.856 374.099C843.856 374.099 861.747 377.784 868.279 360.489Z" fill="#00AD57"/>
<path d="M921.102 417.764C921.102 417.764 958.875 408.691 957.028 387.567L965.122 393.38C965.122 393.38 962.495 405.333 954.064 411.908C946.308 417.956 935.753 421.224 926.924 420.742L921.102 417.764Z" fill="white" stroke="#28A49D" stroke-width="0.886623" stroke-linecap="round" stroke-linejoin="round"/>
<path d="M857.269 419.669L855.031 430.939L885.187 436.908L887.425 425.638L857.269 419.669Z" fill="#00AD57" fill-opacity="0.2" stroke="#28A49D" stroke-width="0.886623" stroke-linecap="round" stroke-linejoin="round"/>
<path d="M813.16 430.729C807.528 430.686 801.935 431.674 796.659 433.643C796.587 433.642 796.514 433.633 796.441 433.633C793.219 433.633 790.133 435.632 787.28 439.285C784.727 441.67 783.043 444.43 782.497 447.402C775.072 463.42 770.133 491.85 770.133 524.257C770.133 574.307 781.912 614.88 796.441 614.88C797.807 614.88 808.631 615.497 813.16 615.497C830.205 615.497 844.025 607.09 844.025 596.724V449.504C844.025 439.136 830.205 430.729 813.16 430.729Z" fill="white" stroke="#28A49D" stroke-width="0.886623" stroke-linecap="round" stroke-linejoin="round"/>
<path d="M857.835 524.257C857.835 574.307 846.055 614.88 831.525 614.88C816.994 614.88 805.215 574.307 805.215 524.257C805.215 474.207 816.994 433.633 831.525 433.633C846.055 433.633 857.835 474.207 857.835 524.257Z" fill="#00AD57" fill-opacity="0.2" stroke="#28A49D" stroke-width="0.886623" stroke-miterlimit="10"/>
<path d="M975.465 523.405C975.465 518.108 977.573 513.028 981.325 509.283C985.077 505.537 990.165 503.433 995.47 503.433H1090.22C1095.53 503.433 1100.62 505.537 1104.37 509.283C1108.12 513.028 1110.23 518.108 1110.23 523.405C1110.23 528.702 1108.12 533.782 1104.37 537.527C1100.62 541.273 1095.53 543.377 1090.22 543.377H995.47C990.165 543.377 985.077 541.273 981.325 537.527C977.573 533.782 975.465 528.702 975.465 523.405Z" fill="white" stroke="#28A49D" stroke-width="0.886623" stroke-linecap="round" stroke-linejoin="round"/>
<path d="M1098.14 508.114C1097.82 512.456 1095.86 516.515 1092.67 519.479C1089.48 522.443 1085.28 524.091 1080.92 524.093H999.06C995.603 524.098 992.225 523.062 989.366 521.122C989.334 521.544 989.301 521.966 989.301 522.397C989.301 526.973 991.122 531.362 994.364 534.598C997.605 537.834 1002 539.651 1006.58 539.651H1088.44C1092.14 539.652 1095.74 538.468 1098.71 536.274C1101.69 534.079 1103.88 530.99 1104.96 527.46C1106.05 523.931 1105.97 520.147 1104.74 516.664C1103.51 513.182 1101.2 510.185 1098.14 508.114Z" fill="#00AD57" fill-opacity="0.2"/>
<path d="M933.352 516.047C933.351 511.146 934.318 506.294 936.196 501.766C938.074 497.238 940.827 493.124 944.298 489.659C947.768 486.193 951.889 483.444 956.424 481.569C960.959 479.694 965.819 478.729 970.728 478.729C975.636 478.728 980.496 479.693 985.031 481.569C989.566 483.444 993.687 486.193 997.157 489.658C1000.63 493.124 1003.38 497.238 1005.26 501.766C1007.14 506.294 1008.1 511.146 1008.1 516.047V530.761C1008.1 535.662 1007.14 540.515 1005.26 545.043C1003.38 549.571 1000.63 553.685 997.158 557.15C993.687 560.616 989.567 563.365 985.032 565.24C980.497 567.115 975.636 568.08 970.728 568.08C965.819 568.08 960.958 567.115 956.424 565.24C951.889 563.365 947.768 560.616 944.297 557.15C940.826 553.685 938.073 549.571 936.195 545.043C934.317 540.515 933.351 535.662 933.352 530.761V516.047Z" fill="white" stroke="#28A49D" stroke-width="0.886623" stroke-linecap="round" stroke-linejoin="round"/>
<path d="M986.28 545.1C981.849 545.1 977.461 544.229 973.368 542.537C969.274 540.844 965.554 538.363 962.421 535.234C959.288 532.106 956.803 528.392 955.108 524.305C953.413 520.218 952.541 515.837 952.541 511.413V498.131C952.535 493.646 953.43 489.205 955.172 485.071C950.024 488.02 945.746 492.273 942.772 497.402C939.798 502.531 938.233 508.352 938.234 514.278V527.561C938.235 535.339 940.932 542.877 945.866 548.896C950.8 554.915 957.668 559.044 965.304 560.582C972.941 562.12 980.875 560.973 987.761 557.335C994.646 553.697 1000.06 547.793 1003.08 540.624C997.971 543.563 992.176 545.107 986.28 545.1Z" fill="#00AD57" fill-opacity="0.2"/>
<path d="M928.088 452.976H853.338C847.388 452.972 841.505 454.231 836.079 456.671C821.925 487.13 815.394 555.133 836.083 590.136C841.507 592.575 847.389 593.834 853.338 593.83H928.088C933.618 593.83 939.095 592.743 944.204 590.631C949.314 588.518 953.956 585.421 957.867 581.517C961.777 577.613 964.88 572.978 966.996 567.877C969.112 562.775 970.202 557.308 970.201 551.786V495.021C970.201 489.499 969.112 484.032 966.996 478.931C964.879 473.829 961.777 469.194 957.867 465.29C953.956 461.386 949.314 458.289 944.204 456.176C939.095 454.063 933.618 452.976 928.088 452.976Z" fill="white" stroke="#28A49D" stroke-width="0.886623" stroke-linecap="round" stroke-linejoin="round"/>
<path d="M954.748 567.44H887.575C882.229 567.444 876.943 566.313 872.068 564.122C856.631 538.003 858.066 491.456 866.275 460.736H855.852C850.504 460.732 845.217 461.864 840.342 464.056C827.622 491.428 821.753 552.54 840.345 583.997C845.22 586.187 850.506 587.318 855.852 587.314H923.026C929.869 587.316 936.585 585.465 942.458 581.959C948.331 578.452 953.142 573.42 956.378 567.399C955.836 567.422 955.295 567.44 954.748 567.44Z" fill="#00AD57" fill-opacity="0.2"/>
<path d="M912.009 426.455C913.658 416.657 914.31 394.763 911.122 384.023C902.379 354.56 889.445 372.777 889.445 383.659C889.445 383.659 890.884 404.354 889.923 427.298C897.292 427.888 904.706 427.605 912.009 426.455Z" fill="#00AD57" fill-opacity="0.2" stroke="#28A49D" stroke-width="0.886623" stroke-linecap="round" stroke-linejoin="round"/>
<path d="M889.923 427.298C889.147 445.85 886.743 467.889 875.887 479.679L884.128 482.008C884.128 482.008 906.773 457.537 912.009 426.455C904.706 427.605 897.293 427.888 889.923 427.298Z" fill="white" stroke="#28A49D" stroke-width="0.886623" stroke-linecap="round" stroke-linejoin="round"/>
<path d="M915.847 425.184H884.746V438.226H915.847V425.184Z" fill="#00AD57" fill-opacity="0.2" stroke="#28A49D" stroke-width="0.886623" stroke-linecap="round" stroke-linejoin="round"/>
<path d="M885.766 479.354L876.828 475.885C876.361 475.96 875.905 476.096 875.473 476.288C874.806 476.593 875.047 478.763 875.047 478.763C875.047 478.763 869.661 482.554 867.116 486.631C864.571 490.708 859.329 493.597 861.402 494.509C863.48 495.424 865.127 491.694 865.982 492.565C866.41 493.001 865.168 496.521 863.199 499.646C861.23 502.771 858.536 505.496 860.126 505.825C863.304 506.483 869.323 496.351 869.323 496.351C869.323 496.351 868.115 499.916 866.611 503.546C864.999 507.443 863.141 511.448 865.001 512.177C866.608 512.807 868.048 509.209 869.944 505.811C871.214 503.586 872.611 501.435 874.128 499.37C874.128 499.37 870.086 511.486 871.879 510.792C873.673 510.098 877.032 499.232 877.782 499.543C878.532 499.854 876.455 507.571 877.766 507.406C879.079 507.241 883.116 494.173 883.116 494.173C883.116 494.173 886.55 486.943 885.108 482.348C885.108 482.348 887.301 480.607 885.766 479.354Z" fill="#00AD57"/>
<path d="M984.321 406.594C984.652 407.109 984.877 407.684 984.985 408.286C985.093 408.888 985.081 409.506 984.95 410.103C984.818 410.701 984.571 411.267 984.22 411.769C983.87 412.27 983.424 412.698 982.908 413.028L972.301 419.809C971.785 420.139 971.209 420.364 970.605 420.472C970.002 420.579 969.384 420.567 968.785 420.436C968.187 420.305 967.62 420.058 967.117 419.708C966.615 419.358 966.186 418.913 965.855 418.398L952.022 396.823C951.691 396.308 951.466 395.733 951.358 395.131C951.25 394.529 951.262 393.911 951.393 393.314C951.525 392.716 951.772 392.15 952.123 391.649C952.473 391.147 952.919 390.719 953.435 390.389L964.043 383.608C964.559 383.278 965.135 383.053 965.738 382.945C966.341 382.838 966.959 382.85 967.558 382.981C968.156 383.112 968.723 383.36 969.226 383.709C969.728 384.059 970.157 384.504 970.487 385.019L984.321 406.594Z" fill="#00AD57" fill-opacity="0.2" stroke="#28A49D" stroke-width="0.886623" stroke-linecap="round" stroke-linejoin="round"/>
<path d="M957.355 404.06C957.355 404.06 970.727 403.532 976.38 393.559L957.355 404.06Z" fill="#00AD57" fill-opacity="0.2"/>
<path d="M957.355 404.06C957.355 404.06 970.727 403.532 976.38 393.559" stroke="#28A49D" stroke-width="0.886623" stroke-linecap="round" stroke-linejoin="round"/>
<path d="M951.743 323.218C951.743 325.153 951.362 327.068 950.62 328.856C949.879 330.643 948.792 332.267 947.422 333.635C946.051 335.003 944.425 336.088 942.635 336.828C940.845 337.569 938.926 337.95 936.988 337.95H887.805C883.892 337.95 880.139 336.397 877.372 333.635C874.605 330.872 873.051 327.125 873.051 323.218C873.051 319.311 874.605 315.564 877.372 312.802C880.139 310.039 883.892 308.487 887.805 308.487H936.988C938.926 308.487 940.845 308.868 942.635 309.608C944.425 310.348 946.051 311.434 947.422 312.801C948.792 314.169 949.879 315.793 950.62 317.581C951.362 319.368 951.743 321.284 951.743 323.218Z" fill="#00AD57"/>
<path d="M890.538 323.218H873.051V337.889H890.538V323.218Z" fill="#00AD57"/>
<path d="M394.797 297.119H323.261C311.409 297.119 301.801 308.051 301.801 321.535C301.801 335.02 311.409 345.952 323.261 345.952H394.797C395.436 345.952 396.067 345.914 396.692 345.851H416.257V321.535C416.257 308.051 406.649 297.119 394.797 297.119Z" fill="#00AD57"/>
<path d="M900.372 322.733C900.372 323.165 900.244 323.587 900.004 323.946C899.763 324.305 899.422 324.584 899.023 324.75C898.623 324.915 898.184 324.958 897.759 324.874C897.335 324.79 896.946 324.582 896.64 324.276C896.335 323.971 896.126 323.582 896.042 323.159C895.958 322.735 896.001 322.297 896.166 321.898C896.332 321.499 896.612 321.158 896.972 320.918C897.331 320.678 897.754 320.55 898.186 320.551C898.473 320.551 898.758 320.607 899.023 320.717C899.288 320.826 899.529 320.987 899.732 321.19C899.935 321.392 900.096 321.633 900.206 321.898C900.316 322.163 900.372 322.447 900.372 322.733Z" fill="white"/>
<path d="M914.583 322.733C914.583 323.165 914.455 323.587 914.215 323.946C913.974 324.305 913.633 324.584 913.233 324.75C912.834 324.915 912.394 324.958 911.97 324.874C911.546 324.789 911.157 324.582 910.851 324.276C910.545 323.971 910.337 323.582 910.253 323.159C910.169 322.735 910.212 322.296 910.377 321.898C910.543 321.499 910.823 321.158 911.183 320.918C911.542 320.678 911.965 320.55 912.397 320.551C912.684 320.551 912.969 320.607 913.234 320.717C913.499 320.826 913.74 320.987 913.943 321.19C914.146 321.392 914.307 321.633 914.417 321.898C914.527 322.163 914.583 322.447 914.583 322.733Z" fill="white"/>
<path d="M928.79 322.733C928.79 323.165 928.661 323.587 928.421 323.946C928.181 324.304 927.839 324.584 927.44 324.749C927.041 324.914 926.601 324.957 926.177 324.873C925.753 324.789 925.364 324.581 925.058 324.276C924.752 323.97 924.544 323.582 924.46 323.158C924.376 322.735 924.419 322.296 924.585 321.897C924.75 321.499 925.03 321.158 925.39 320.918C925.749 320.678 926.172 320.55 926.604 320.551C926.891 320.551 927.176 320.607 927.441 320.717C927.706 320.826 927.947 320.987 928.15 321.19C928.353 321.393 928.514 321.633 928.623 321.898C928.733 322.163 928.79 322.447 928.79 322.733Z" fill="white"/>
<path d="M339.524 326.069H336.972L335.91 332.556H332.757L333.819 326.069H330.301V323.173H334.294L334.991 318.996H331.489V316.101H335.466L336.56 309.519H339.698L338.62 316.101H341.172L342.265 309.519H345.418L344.325 316.101H347.986V318.996H343.849L343.152 323.173H346.781V326.069H342.677L341.615 332.556H338.462L339.524 326.069ZM337.447 323.173H339.999L340.696 318.996H338.144L337.447 323.173Z" fill="white"/>
<path d="M361.383 326.069H358.832L357.77 332.556H354.617L355.678 326.069H352.16V323.173H356.153L356.851 318.996H353.348V316.101H357.326L358.419 309.519H361.557L360.48 316.101H363.031L364.125 309.519H367.278L366.185 316.101H369.845V318.996H365.709L365.012 323.173H368.641V326.069H364.537L363.475 332.556H360.321L361.383 326.069ZM359.307 323.173H361.858L362.556 318.996H360.004L359.307 323.173Z" fill="white"/>
<path d="M383.242 326.069H380.691L379.629 332.556H376.476L377.538 326.069H374.02V323.173H378.013L378.71 318.996H375.208V316.101H379.185L380.279 309.519H383.417L382.339 316.101H384.89L385.984 309.519H389.137L388.044 316.101H391.705V318.996H387.568L386.871 323.173H390.5V326.069H386.396L385.334 332.556H382.18L383.242 326.069ZM381.166 323.173H383.718L384.415 318.996H381.863L381.166 323.173Z" fill="white"/>
</svg>
