<svg width="107" height="23" viewBox="0 0 107 23" fill="none" xmlns="http://www.w3.org/2000/svg">
<path d="M24 14.1865H24.9021C24.9881 14.7858 25.2378 15.3114 25.6512 15.7634C26.0647 16.2152 26.6124 16.564 27.2944 16.8096C27.9764 17.0553 28.7577 17.1781 29.6384 17.1781C30.9702 17.1781 32.0334 16.9545 32.8282 16.5076C33.6229 16.0606 34.0203 15.449 34.0203 14.6728C34.0203 14.103 33.7599 13.6609 33.239 13.3465C32.7181 13.0322 31.824 12.8111 30.5567 12.6834L28.5107 12.4771C27.0179 12.3297 25.9573 12.0154 25.3291 11.5339C24.7007 11.0525 24.3866 10.4336 24.3866 9.67711C24.3866 9.02867 24.596 8.46871 25.0149 7.99714C25.4337 7.52556 26.0137 7.16208 26.7547 6.90659C27.4958 6.65119 28.355 6.5235 29.3323 6.5235C30.3419 6.5235 31.236 6.66592 32.0147 6.95088C32.7933 7.23573 33.4109 7.63365 33.8673 8.14454C34.3237 8.65533 34.5735 9.24973 34.6164 9.92763H33.7142C33.6498 9.38728 33.4243 8.92068 33.0376 8.52763C32.651 8.13469 32.1408 7.82764 31.5072 7.60658C30.8735 7.38553 30.1432 7.27505 29.3162 7.27505C28.0918 7.27505 27.1145 7.48626 26.3842 7.90876C25.6539 8.33117 25.2888 8.92068 25.2888 9.67711C25.2888 10.2666 25.5492 10.7185 26.0701 11.0329C26.591 11.3472 27.4583 11.5683 28.6719 11.6961L30.6211 11.9023C31.6522 12.0104 32.4845 12.1725 33.1182 12.3886C33.7519 12.6048 34.2109 12.8971 34.4956 13.2655C34.7802 13.6339 34.9225 14.0932 34.9225 14.6434C34.9225 15.331 34.7023 15.9205 34.2619 16.4117C33.8216 16.903 33.204 17.2787 32.4093 17.5391C31.6146 17.7995 30.6855 17.9296 29.6223 17.9296C28.5698 17.9296 27.6301 17.7724 26.803 17.4581C25.9761 17.1437 25.3156 16.704 24.8216 16.1391C24.3275 15.5743 24.0536 14.9233 24 14.1865Z" fill="black"/>
<path d="M39.4482 17.9296C38.6319 17.9296 37.9393 17.7774 37.37 17.4728C36.8009 17.1682 36.3659 16.7236 36.0651 16.1391C35.7644 15.5546 35.614 14.8447 35.614 14.0097V9.50024H36.484V13.8476C36.484 14.9479 36.7526 15.783 37.2895 16.3528C37.8265 16.9226 38.6105 17.2076 39.6415 17.2076C40.3611 17.2076 40.9894 17.0553 41.5264 16.7507C42.0634 16.4461 42.4822 16.0213 42.783 15.4759C43.0837 14.9307 43.2341 14.2995 43.2341 13.5823L43.6852 13.8329C43.6314 14.6482 43.4194 15.3655 43.0488 15.9844C42.6783 16.6033 42.1842 17.0822 41.5666 17.4212C40.9492 17.7601 40.243 17.9296 39.4482 17.9296ZM43.7174 17.7528L43.2341 15.1149V9.50024H44.104V15.2328L44.5873 17.7528H43.7174Z" fill="black"/>
<path d="M45.5366 9.50026H46.4065V12.8898L46.3421 13.1107V14.1129L46.4065 14.4518V20.1843H45.5366V9.50026ZM45.8427 13.6266C46.1005 12.7718 46.4817 12.0227 46.9866 11.3792C47.4913 10.7357 48.0927 10.2322 48.7908 9.86871C49.489 9.50523 50.2515 9.32349 51.0784 9.32349C51.9591 9.32349 52.7431 9.50523 53.4304 9.86871C54.1179 10.2322 54.6601 10.7357 55.0576 11.3792C55.455 12.0227 55.6536 12.7718 55.6536 13.6266C55.6536 14.4715 55.455 15.2181 55.0576 15.8665C54.6601 16.5149 54.1179 17.0208 53.4304 17.3843C52.7431 17.7479 51.9591 17.9297 51.0784 17.9297C50.2515 17.9297 49.489 17.7503 48.7908 17.3917C48.0927 17.0332 47.4913 16.5297 46.9866 15.8812C46.4817 15.2328 46.1005 14.4812 45.8427 13.6266ZM54.7514 13.6266C54.7514 12.9192 54.593 12.3002 54.2763 11.7697C53.9594 11.2392 53.5244 10.8241 52.9714 10.5245C52.4182 10.2248 51.7872 10.075 51.0784 10.075C50.3696 10.075 49.7199 10.2248 49.1292 10.5245C48.5384 10.8241 48.0122 11.2392 47.5504 11.7697C47.0885 12.3002 46.7019 12.9192 46.3904 13.6266C46.7019 14.3241 47.0885 14.9406 47.5504 15.4759C48.0122 16.0114 48.5384 16.4289 49.1292 16.7286C49.7199 17.0282 50.3696 17.1781 51.0784 17.1781C51.7872 17.1781 52.4182 17.0282 52.9714 16.7286C53.5244 16.4289 53.9594 16.0114 54.2763 15.4759C54.593 14.9406 54.7514 14.3241 54.7514 13.6266Z" fill="black"/>
<path d="M56.0388 9.50026H56.9088L57.3921 12.1381V17.7528H56.5221V11.9908L56.0388 9.50026ZM62.4184 9.50026V10.2814C62.2466 10.2224 62.0264 10.1757 61.7578 10.1413C61.4894 10.1069 61.2262 10.0898 60.9684 10.0898C60.2704 10.0898 59.6502 10.2396 59.1078 10.5393C58.5654 10.8388 58.1439 11.2589 57.8431 11.7992C57.5425 12.3396 57.3921 12.9634 57.3921 13.6708L57.0377 13.155C57.0377 12.5852 57.1344 12.0669 57.3276 11.6002C57.521 11.1335 57.7975 10.7308 58.1574 10.3918C58.5171 10.0529 58.9413 9.79009 59.4299 9.60347C59.9187 9.41675 60.4584 9.32349 61.0491 9.32349C61.2961 9.32349 61.5485 9.34061 61.8062 9.37505C62.064 9.40939 62.268 9.45119 62.4184 9.50026Z" fill="black"/>
<path d="M62.5442 14.2899H64.703C64.7674 14.732 64.9688 15.1201 65.3071 15.4541C65.6453 15.7881 66.0937 16.046 66.6522 16.2278C67.2107 16.4095 67.8551 16.5004 68.5855 16.5004C69.6702 16.5004 70.5294 16.3457 71.1631 16.0362C71.7966 15.7267 72.1135 15.3067 72.1135 14.7762C72.1135 14.344 71.9309 14.0197 71.5658 13.8036C71.2006 13.5874 70.5401 13.4254 69.5842 13.3173L66.9744 13.0078C65.5138 12.831 64.4533 12.4994 63.7927 12.0131C63.1323 11.5268 62.802 10.8366 62.802 9.94264C62.802 9.26475 63.0249 8.67771 63.4706 8.18156C63.9162 7.6854 64.5472 7.30231 65.3634 7.03209C66.1797 6.76196 67.1355 6.62689 68.231 6.62689C69.3158 6.62689 70.277 6.7742 71.1147 7.06891C71.9525 7.36371 72.6209 7.77388 73.1204 8.2995C73.6198 8.82512 73.8909 9.44151 73.9339 10.1489H71.7752C71.7215 9.75592 71.5416 9.41702 71.2355 9.13207C70.9295 8.84721 70.5186 8.62367 70.0031 8.46154C69.4876 8.2995 68.8808 8.21838 68.1827 8.21838C67.1946 8.21838 66.4052 8.36579 65.8145 8.6605C65.2238 8.95521 64.9285 9.35801 64.9285 9.8689C64.9285 10.2619 65.1031 10.564 65.4521 10.7752C65.8012 10.9864 66.4106 11.1461 67.2806 11.2541L69.9226 11.5932C71.0073 11.7306 71.8638 11.9148 72.4921 12.1457C73.1204 12.3766 73.5688 12.6861 73.8373 13.0742C74.1058 13.4622 74.24 13.9608 74.24 14.5699C74.24 15.2773 74.0037 15.8962 73.5312 16.4267C73.0586 16.9572 72.3954 17.3674 71.5416 17.6572C70.6878 17.9471 69.6917 18.092 68.5532 18.092C67.3933 18.092 66.3703 17.9323 65.4843 17.613C64.5982 17.2937 63.8975 16.8491 63.382 16.2793C62.8665 15.7095 62.5872 15.0463 62.5442 14.2899Z" fill="black"/>
<path d="M77.1109 20.5235C76.5738 20.5235 76.0879 20.4621 75.6529 20.3393C75.2179 20.2165 74.8125 20.0471 74.4366 19.8309V18.372C74.8447 18.6078 75.234 18.7796 75.6046 18.8877C75.9751 18.9958 76.3913 19.0499 76.8531 19.0499C77.2935 19.0499 77.6855 18.959 78.0291 18.7773C78.3728 18.5955 78.6575 18.2786 78.883 17.8267L82.9909 9.54474H85.2142L80.494 18.4751C80.2362 18.9664 79.9328 19.3618 79.5837 19.6614C79.2347 19.9611 78.8534 20.1796 78.44 20.3172C78.0265 20.4547 77.5834 20.5235 77.1109 20.5235ZM78.158 17.6204L73.9695 9.54474H76.2731L80.2362 17.6204H78.158Z" fill="black"/>
<path d="M85.2651 9.54476H87.3594L87.9071 12.5511V17.8857H85.8129V12.271L85.2651 9.54476ZM91.5319 9.33844C92.391 9.33844 93.1214 9.4956 93.7228 9.81001C94.3242 10.1244 94.7834 10.5739 95.1001 11.1584C95.417 11.743 95.5754 12.4479 95.5754 13.2732V17.8857H93.4811V13.5826C93.4811 12.7082 93.2583 12.0475 92.8126 11.6006C92.3668 11.1535 91.7144 10.93 90.8552 10.93C90.2645 10.93 89.7464 11.0504 89.3006 11.291C88.8549 11.5318 88.5112 11.8682 88.2696 12.3005C88.0279 12.7328 87.9071 13.2387 87.9071 13.8184L87.1661 13.4499C87.2627 12.5854 87.5098 11.8486 87.9071 11.2395C88.3045 10.6303 88.8147 10.1612 89.4376 9.8321C90.0605 9.50296 90.7586 9.33844 91.5319 9.33844Z" fill="black"/>
<path d="M107 14.5994C106.893 15.2872 106.597 15.8938 106.114 16.4194C105.631 16.945 105.013 17.3552 104.261 17.6499C103.51 17.9446 102.672 18.092 101.748 18.092C100.696 18.092 99.7694 17.9078 98.9692 17.5394C98.1691 17.171 97.5435 16.6576 97.0924 15.9994C96.6413 15.3412 96.4158 14.5798 96.4158 13.7152C96.4158 12.8507 96.6413 12.0892 97.0924 11.4311C97.5435 10.7728 98.1691 10.2595 98.9692 9.89103C99.7694 9.52266 100.696 9.33844 101.748 9.33844C102.672 9.33844 103.51 9.48584 104.261 9.78055C105.013 10.0753 105.631 10.4854 106.114 11.011C106.597 11.5367 106.893 12.1483 107 12.8458H104.89C104.739 12.217 104.379 11.7258 103.81 11.3721C103.241 11.0184 102.554 10.8415 101.748 10.8415C101.104 10.8415 100.54 10.957 100.057 11.1879C99.5733 11.4187 99.2001 11.7479 98.937 12.1752C98.6739 12.6026 98.5423 13.1159 98.5423 13.7152C98.5423 14.3047 98.6739 14.8156 98.937 15.2478C99.2001 15.6801 99.5733 16.0116 100.057 16.2425C100.54 16.4734 101.104 16.5889 101.748 16.5889C102.564 16.5889 103.257 16.4071 103.826 16.0436C104.396 15.6801 104.75 15.1987 104.89 14.5994H107Z" fill="black"/>
<path fill-rule="evenodd" clip-rule="evenodd" d="M6.2791 3.78048C9.21303 3.13886 10.6749 6.42305 12.304 7.45676L11.528 8.17652L15.2488 8.26352C15.2786 8.09371 15.4222 5.07422 15.3287 4.67281L14.6819 5.26315L14.6593 5.22945C14.3341 4.76423 12.489 3.07218 11.9823 2.5999C10.131 0.875111 7.22694 -0.240218 4.03401 1.15212C-0.178303 2.98876 -1.02386 8.59598 1.92606 11.4672L7.35329 16.6622C8.60626 17.9316 10.4622 17.047 10.2535 15.4942C10.1436 14.6768 8.33399 13.1892 7.79554 12.6688C5.65324 10.5992 2.9902 8.79459 3.49407 6.39975C3.79361 4.97658 4.80432 4.10302 6.2791 3.78048ZM5.54549 7.62442C5.71274 8.39832 10.1347 12.342 10.772 12.9552C13.9564 16.0199 11.7151 18.7786 9.55373 19.2219C6.29001 19.8912 4.64029 15.9128 3.05108 15.3073L3.88263 14.5612L0.164018 14.4145C0.131163 14.5838 -0.0647298 17.6006 0.0219342 18.0033L0.869479 17.2552C0.934074 17.4424 1.03834 17.6262 1.18749 17.7982L3.88809 20.4089C10.9525 26.6076 19.4704 17.4626 13.777 11.4293L8.37267 6.21009C7.08883 5.06418 5.19462 6.00109 5.54549 7.62442Z" fill="#00AD57"/>
</svg>
