<svg width="50" height="50" viewBox="0 0 50 50" fill="none" xmlns="http://www.w3.org/2000/svg">
<rect width="50" height="50" rx="4" fill="#00AD57"/>
<path d="M21.4136 24.6975L24.2686 21.835L21.7023 19.26L20.2536 20.7075L19.3686 19.8225L20.8098 18.375L18.3698 15.935L15.5073 18.7975L21.4136 24.6975ZM31.2061 34.4975L34.0686 31.635L31.6298 29.195L30.1823 30.635L29.2986 29.75L30.7373 28.3025L28.1873 25.76L25.3311 28.615L31.2061 34.4975ZM18.9698 35H15.0286V31.0575L20.5211 25.565L13.7786 18.7988L18.3698 14.2075L25.1686 20.9813L30.7523 15.39C30.8898 15.2517 31.0348 15.1521 31.1873 15.0913C31.3398 15.0304 31.5023 15 31.6748 15C31.8473 15 32.0098 15.0304 32.1623 15.0913C32.3148 15.1521 32.4602 15.2517 32.5986 15.39L34.6386 17.51C34.7769 17.6475 34.8727 17.7925 34.9261 17.945C34.9794 18.0975 35.0056 18.26 35.0048 18.4325C35.004 18.605 34.9773 18.7625 34.9248 18.905C34.8723 19.0475 34.7773 19.1875 34.6398 19.325L29.1023 24.8925L35.8223 31.6588L31.2286 36.25L24.4623 29.5075L18.9698 35ZM16.2786 33.75H18.4373L30.7123 21.4825L28.5448 19.3175L16.2786 31.5913V33.75ZM29.6436 20.3925L28.5461 19.3175L30.7111 21.4838L29.6436 20.3925Z" fill="white"/>
</svg>
