<svg width="50" height="50" viewBox="0 0 50 50" fill="none" xmlns="http://www.w3.org/2000/svg">
<rect width="50" height="50" rx="4" fill="#00AD57"/>
<path d="M25.0282 30.3571C24.6088 30.3573 24.1985 30.2344 23.8482 30.0035C23.498 29.7727 23.2232 29.4441 23.0579 29.0586C22.7122 28.9769 22.3719 28.8739 22.039 28.75L22.0208 28.7436C21.0432 28.3766 20.1408 27.8342 19.3583 27.1429C18.3097 26.2179 17.5034 25.0505 17.0096 23.7424C16.5157 22.4344 16.3494 21.0254 16.525 19.6383C16.7007 18.2512 17.213 16.9281 18.0173 15.7844C18.8216 14.6407 19.8934 13.7111 21.1394 13.0767C22.3854 12.4423 23.7676 12.1224 25.1656 12.1447C26.5636 12.1671 27.9349 12.5311 29.16 13.205C30.385 13.8789 31.4266 14.8423 32.1939 16.0111C32.9612 17.1799 33.431 18.5187 33.5622 19.9107C33.604 20.3532 33.2407 20.7143 32.7961 20.7143C32.3525 20.7143 31.9979 20.3532 31.9465 19.9118C31.8048 18.6939 31.3442 17.535 30.611 16.5522C29.8779 15.5694 28.8983 14.7976 27.7713 14.3147C26.6442 13.8319 25.4097 13.6552 24.1924 13.8024C22.9752 13.9497 21.8184 14.4157 20.839 15.1533C19.8596 15.891 19.0923 16.8741 18.6147 18.0033C18.137 19.1326 17.966 20.3679 18.1188 21.5845C18.2717 22.801 18.743 23.9557 19.4852 24.9317C20.2273 25.9077 21.214 26.6704 22.3454 27.1429L22.3883 27.1611C22.6025 27.2489 22.8225 27.3264 23.0483 27.3936C23.2546 26.8907 23.6445 26.485 24.1387 26.2588C24.633 26.0325 25.1948 26.0026 25.7104 26.175C26.2259 26.3474 26.6566 26.7093 26.9153 27.1875C27.174 27.6656 27.2413 28.2241 27.1036 28.75C26.9848 29.2101 26.7165 29.6176 26.3408 29.9085C25.9651 30.1995 25.5034 30.3573 25.0282 30.3571ZM17.5283 28.75H18.7808C18.1817 28.2831 17.6363 27.7513 17.1543 27.1643C16.3719 27.2559 15.6503 27.6317 15.1267 28.2203C14.6031 28.8089 14.3139 29.5693 14.314 30.3571V31.1232C14.314 35.1068 18.8247 37.8571 25.0282 37.8571C31.2318 37.8571 35.7425 34.9557 35.7425 31.1232V30.3571C35.7425 29.5047 35.4039 28.6871 34.8011 28.0843C34.1983 27.4815 33.3807 27.1429 32.5282 27.1429H28.6229C28.7782 27.6637 28.8184 28.2121 28.7408 28.75H32.5282L32.6836 28.7575C33.0811 28.7961 33.45 28.9813 33.7183 29.277C33.9867 29.5728 34.1354 29.9578 34.1354 30.3571V31.1232L34.13 31.2957C33.98 33.9957 30.3061 36.25 25.0282 36.25C19.5522 36.25 15.9211 33.9882 15.9211 31.1232V30.3571L15.9286 30.2018C15.9672 29.8043 16.1524 29.4354 16.4481 29.1671C16.7439 28.8987 17.1289 28.75 17.5283 28.75ZM30.3854 20.7143C30.3856 21.6848 30.1221 22.6371 29.6232 23.4695C29.1242 24.3018 28.4085 24.9831 27.5525 25.4404C26.8619 24.8121 25.9618 24.4641 25.0282 24.4643C25.5207 24.4643 26.0083 24.3673 26.4633 24.1788C26.9183 23.9904 27.3317 23.7142 27.6799 23.3659C28.0281 23.0177 28.3043 22.6043 28.4928 22.1494C28.6813 21.6944 28.7782 21.2067 28.7782 20.7143C28.7782 20.2218 28.6813 19.7342 28.4928 19.2792C28.3043 18.8243 28.0281 18.4109 27.6799 18.0626C27.3317 17.7144 26.9183 17.4382 26.4633 17.2497C26.0083 17.0613 25.5207 16.9643 25.0282 16.9643C24.0337 16.9643 23.0799 17.3594 22.3766 18.0626C21.6733 18.7659 21.2783 19.7197 21.2783 20.7143C21.2783 21.7089 21.6733 22.6627 22.3766 23.3659C23.0799 24.0692 24.0337 24.4643 25.0282 24.4643C24.0554 24.4643 23.1704 24.835 22.505 25.4414C21.6495 24.9845 20.934 24.3039 20.435 23.4721C20.0102 22.7643 19.7546 21.9679 19.6884 21.145C19.6221 20.3222 19.7469 19.4951 20.0531 18.7285C20.3592 17.9618 20.8384 17.2762 21.4532 16.7253C22.068 16.1744 22.8019 15.7731 23.5974 15.5526C24.3929 15.3321 25.2287 15.2984 26.0394 15.4542C26.8501 15.61 27.6138 15.9511 28.2709 16.4508C28.928 16.9505 29.4608 17.5953 29.8276 18.3349C30.1944 19.0744 30.3853 19.8888 30.3854 20.7143Z" fill="white"/>
</svg>
